<svg width="200" height="40" viewBox="0 0 200 40" fill="none" xmlns="http://www.w3.org/2000/svg">
<path d="M96.4227 13.816L96.4439 13.5402L96.4154 13.2682L96.4208 13.0103L96.3783 12.8288L96.3979 12.4947L96.3783 12.0875L96.3802 11.8991C96.359 11.5879 96.3042 11.2767 96.2601 10.9777L96.2316 10.6598C96.2008 10.4591 96.1572 10.2607 96.101 10.0658C96.0535 9.90221 95.9844 9.74375 95.9299 9.58752L95.8501 9.16059L95.7655 8.86917L95.7246 8.64662L95.7018 8.52036L95.4438 8.36221L95.3272 8.22351L95.1327 7.90882L94.8342 8.07048L94.7157 8.17187L94.5971 8.17568L94.4628 8.25539C94.2261 8.28217 94.4045 8.09184 94.3075 7.99236L94.1427 7.95856L94.06 7.92668L93.4732 8.2487L93.3179 8.38007L93.0793 8.55798L92.86 8.85481C92.7894 8.98267 92.7346 9.07704 92.7292 9.24412L92.7894 9.64777L92.8106 9.80433L92.8778 10.1155L92.7311 10.2702L92.4307 10.3094C92.0932 10.354 91.7431 10.361 91.404 10.375L91.289 10.3661L90.9531 10.3999L90.4762 10.4053C90.2851 10.4286 90.1086 10.4321 89.916 10.4532L89.6276 10.4819C89.377 10.485 89.1418 10.4819 88.8909 10.4819L88.7302 10.471L88.6009 10.4924L88.4739 10.4854C88.3129 10.4924 88.1348 10.5102 87.9773 10.5121C87.6097 10.5192 87.2916 10.4978 86.9364 10.5335C86.6236 10.5619 86.3197 10.6292 86.0086 10.656C85.7982 10.6703 85.5916 10.6579 85.3846 10.6773C85.1302 10.7006 84.883 10.7484 84.6321 10.7752L84.4074 10.7733C84.2309 10.7838 84.0452 10.8249 83.8633 10.8355H83.5433L83.1456 10.8817L82.8718 10.8836C82.6278 10.9015 82.3664 10.9636 82.1031 10.9298L82.0077 10.8087L81.5514 10.7309V10.5813L81.746 10.3805L81.9228 9.98192L81.8838 9.78646L81.8715 9.61429L81.7884 9.46445L81.7073 9.25655C81.6294 9.04516 81.5923 8.76937 81.4703 8.58635L81.2973 8.44032L81.124 8.19864L80.9877 8.15241L80.8182 8.08865L80.4065 8.02967L80.2421 7.92668L79.9258 7.88745L80.083 8.04751L79.5618 8.13997L79.2544 8.25539L79.0529 8.20758L78.915 8.3214L78.8478 8.49549L78.6606 8.96673C78.5864 9.1338 78.4574 9.28493 78.3972 9.45583L78.3 9.81867L78.2451 9.99817L78.2382 10.1582L78.1976 10.5759C78.1868 10.816 78.2169 11.0456 78.2436 11.271L78.2309 11.4974L78.2594 11.7869C78.2702 12.0005 78.2258 12.2046 78.247 12.4147L78.3019 12.6101L78.3107 12.7686L78.3725 13.1563C78.3919 13.4337 78.3814 13.6913 78.3884 13.9757L78.4115 14.1858L78.4096 14.3618L78.4768 14.6089L78.5421 14.8917L78.5915 15.0091L78.6799 15.457L78.7807 15.8747C78.8212 16.0405 78.8992 16.2395 78.8478 16.419L78.8444 16.4668L78.8548 16.4725L79.0934 16.4279L79.4965 16.6326L79.4451 16.844L79.7208 16.9632L79.7066 17.2049L79.6556 17.2779L79.6625 17.2993L79.8393 17.4291L79.9312 17.5623L80.1537 17.6746C80.5957 17.8149 81.1699 17.797 81.6047 17.6586L82.0537 17.4683L82.0819 17.4166L82.1985 17.358L82.5131 17.3009L82.7093 17.1998C82.8877 17.182 83.0572 17.2317 83.2198 17.219L83.3649 17.1765L83.607 17.1944L83.734 17.1517L83.9055 17.1338L83.9746 17.0752L84.1352 17.1144L84.2962 17.1054L84.5028 17.1341L84.6796 17.0895L84.7943 17.1373L85.0313 17.1482L85.224 17.0611L85.4642 17.0841L85.6252 17.0449L85.8159 17.0681L86.0244 17.0414L86.1534 17.0611L86.2808 17.0398L86.6978 17.1268L86.9858 17.0592L87.1449 17.0627L87.2916 17.0398L87.6414 17.1447L87.8287 17.0343L87.9808 17.0895L88.1519 17.0752L88.253 17.1322L88.504 17.173C88.7388 17.1587 88.9758 17.1517 89.2106 17.166L89.594 17.1944C90.2191 17.1857 90.8442 17.1814 91.4693 17.1816L91.9145 17.2084L92.3473 17.1979C92.5083 17.2049 92.6778 17.2441 92.8458 17.2585L93.0033 17.2547C93.2292 17.2706 93.489 17.292 93.7242 17.276L93.8991 17.2476C94.9258 17.166 95.7899 17.3114 96.3114 16.339C96.4543 16.0705 96.428 15.6471 96.3609 15.3467L96.2829 15.1353L96.2988 15.0231L96.3042 14.783L96.3273 14.5949L96.3926 14.4259L96.4211 14.2193L96.4756 13.992L96.4227 13.816ZM93.0987 14.1058L93.072 14.2515L93.0156 14.696L92.86 14.7368C92.6956 14.7655 92.5207 14.7581 92.3473 14.7511L91.9956 14.7492L91.7713 14.7173L91.5963 14.7403L91.3562 14.7224C91.0855 14.7243 90.8171 14.7368 90.5396 14.7511L90.2994 14.7795L89.9299 14.7687L89.4793 14.7722L89.324 14.7508C89.0569 14.7403 88.8113 14.7636 88.5534 14.7636L88.2669 14.7508L87.8518 14.7884L87.7051 14.8203H87.4206L87.0654 14.8771L86.6959 14.8398L86.521 14.8771L86.2843 14.8541L86.1518 14.8895L85.9271 14.9198L85.5456 14.9485C85.3793 14.9714 85.2151 15.0158 85.0472 15.0301L84.8881 15.0231C84.7255 15.0212 84.57 15.0177 84.4074 15.025L84.0221 15.0977L83.773 15.1031L83.6244 15.0783L83.4178 15.114C83.1263 15.1031 82.8348 15.0888 82.534 15.1031L82.3575 15.1439L81.9367 15.0818L81.7989 15.0515L81.6611 14.7511C81.6259 14.5627 81.5923 14.0203 81.6737 13.8673C81.7954 13.6396 82.285 13.5612 82.5359 13.5453C82.7039 13.5332 82.8804 13.4955 83.0467 13.4796L83.4321 13.4566L83.561 13.4209L83.8136 13.4244L84.0877 13.3731L84.3596 13.375C84.5098 13.3677 84.6812 13.3463 84.8403 13.3288C85.0028 13.3109 85.1708 13.2701 85.3371 13.2538L85.5279 13.2577L85.7009 13.2309L85.8318 13.229L86.1534 13.1812L86.3777 13.1844L86.68 13.156L86.9221 13.1595L87.1129 13.1257C87.2916 13.1065 87.463 13.0708 87.6414 13.067L87.9314 13.0743C88.3322 13.067 88.76 13.0511 89.145 13.0351C89.4102 13.0246 89.6964 13.0386 89.9635 13.0103L90.3152 13.039C90.4847 13.0316 90.6685 13.0173 90.8419 13.0297L91.0345 13.0584L91.448 13.0705L91.6762 13.1043C91.8369 13.1062 91.9959 13.1062 92.1547 13.1116C92.3473 13.133 92.5983 13.2166 92.7574 13.3106L93.0578 13.6754L93.0987 14.1058ZM91.5472 18.4375L91.5916 18.5444L91.6886 18.539L91.7415 18.5692L91.8651 18.5852L92.0758 18.6279C92.2383 18.626 92.4503 18.434 92.597 18.5444L92.6994 18.8163C92.8886 18.8412 92.9028 18.5887 92.9573 18.5887L93.0492 18.8272L93.3249 18.7631L93.6592 18.7701L93.8693 18.7471L94.2334 18.7204L94.6098 18.5925L94.7936 18.5444L94.9879 18.4857L95.3256 18.6298C95.4898 18.6493 95.626 18.5782 95.7902 18.5887L96.1296 18.7223L96.4195 18.8163L96.7164 18.8804L96.9319 19.1062L97.2022 19.3214L97.2909 19.4709L97.3631 19.5561L97.4075 19.6788L97.4604 19.7802L97.5099 19.9811L97.5983 20.3707C97.6002 20.5378 97.5504 20.6621 97.5187 20.8062L97.3844 21.2526C97.2519 21.5281 96.8577 21.8412 96.5573 21.8785L96.1242 21.8287L95.8539 21.8L95.5766 21.7184L95.1666 21.6224C94.8202 21.5281 94.5249 21.3451 94.1557 21.2953C93.9222 21.2615 93.6855 21.2953 93.4523 21.288L93.2419 21.2434C93.0723 21.2216 92.902 21.2057 92.7314 21.1955C92.5245 21.1936 92.316 21.1923 92.1071 21.1923C91.9075 21.1885 91.7133 21.1509 91.5155 21.1477L91.0824 21.1388C90.9198 21.1139 90.775 21.0409 90.6178 21.0214C90.4638 21.0017 90.2835 21.0479 90.1229 21.0265L89.8491 20.9733L89.5943 20.9644C89.3966 20.9574 89.1738 20.9325 88.9919 20.9946L88.6966 21.4091L88.6668 21.5797L88.4954 21.9512C88.4564 22.1237 88.4653 22.307 88.4564 22.4954C88.4387 22.8458 88.4583 23.2281 88.49 23.5763C88.5078 23.7472 88.6244 23.9092 88.6878 24.0657C88.7568 24.222 88.7815 24.3766 88.817 24.558L88.8576 24.72L88.8418 25.058L88.8221 25.3959L88.7391 25.5164L88.6668 25.6567L88.594 25.6982L88.5376 25.6197L88.2429 25.417L88.151 25.6749L88.0534 25.76L87.9317 25.7476L87.785 25.7763L87.58 25.7406C87.4101 25.7744 87.3379 25.9383 87.2016 26.0288L86.9985 26.0393L86.8908 25.9931L86.8217 26.0304L86.6186 26.0464C86.4452 26.0234 86.3552 25.8101 86.2862 25.6838L86.2703 25.6287L86.1962 25.5394L86.1556 25.1217L86.1645 24.8995C86.1328 24.6151 86.0849 24.3591 86.0495 24.0763L86.0124 23.7864L86.0228 23.6566L86.0178 23.5109L86.0355 23.3828L86.0247 22.9472C86.0247 22.6325 86.0355 22.314 86.0143 21.9977L86 21.5673L85.7136 21.2064C85.5529 21.1155 85.2259 21.2044 85.0494 21.2204L84.7452 21.2277L84.3282 21.2724L84.1675 21.265L83.8617 21.2969C83.6884 21.2969 83.5189 21.2845 83.3367 21.288L83.1583 21.3167L82.9038 21.3093L82.7571 21.3272L82.439 21.2794L82.3826 21.3377L82.2431 21.377L81.9602 21.3913C81.7637 21.4178 81.5733 21.4659 81.3803 21.4943L80.9177 21.544C80.5888 21.6065 80.2903 21.7328 79.9702 21.7965C79.7776 21.8358 79.6061 21.8766 79.4157 21.9209L79.0161 21.9834L78.6995 21.9069L78.6235 21.8501L78.4381 21.8482L78.4188 21.7841L78.3779 21.7254L78.454 21.4512L78.0864 21.4978L78.0015 21.4445L77.8887 21.391L77.8285 21.0584L77.7508 21.0122L77.6272 20.8222C77.5968 20.6462 77.7508 20.5304 77.7949 20.3898L77.7822 20.1284L77.9362 19.8956L78.0794 19.8159L78.1713 19.7177L78.2809 19.6306L78.6327 19.2484L78.7651 19.1648L78.8497 19.0634L78.9312 18.9904L78.9505 19.0599L78.8605 19.1683L78.8339 19.2643L78.7404 19.3389L78.6111 19.5152V19.5596L78.7068 19.5471L78.9683 19.4244L79.0459 19.4562L79.327 19.4228L79.5054 19.3354L79.7281 19.1205L79.6752 19.5168L79.8606 19.5187L80.1505 19.5758L80.5656 19.5242L80.6949 19.5596L81.11 19.5525L81.2532 19.5774L81.4281 19.5136L81.5432 19.5117L82.022 19.4546C82.3753 19.4228 82.72 19.3995 83.0575 19.3427L83.2236 19.2678C83.3845 19.2503 83.5417 19.2806 83.7043 19.2716L83.9429 19.2289L84.1019 19.2181L84.2008 19.1897H84.4394L84.6517 19.1559C84.8166 19.1472 84.981 19.1323 85.1448 19.1113L85.3301 19.058L85.4239 18.9869L85.544 18.9678L85.6606 18.802L85.795 18.9193L85.9769 18.9302L86.3622 18.8769L86.4718 18.7577L86.6962 18.8501C86.8607 18.8645 87.0337 18.8023 87.1927 18.8023L87.5676 18.8948C87.7565 18.9461 88.0024 18.9461 88.2178 18.9372L88.5236 18.8945L88.7622 18.8874L89.1634 18.8163L89.4194 18.7825L89.5468 18.7844C89.7287 18.7577 89.9109 18.7009 90.107 18.6974L90.3155 18.7098L90.5557 18.6671L90.7785 18.6601L91.0364 18.6049C91.2221 18.5747 91.4271 18.589 91.5472 18.4379M145.043 8.68009L145.262 8.69253L145.449 8.83473L145.633 8.95748L145.76 8.99829L145.819 9.0694L145.737 9.08184L145.729 9.33786L145.822 9.43224L146.02 9.67233C146.184 9.91783 146.294 10.2022 146.386 10.4847C146.501 10.8421 146.462 11.2691 146.642 11.5927L146.913 11.719L147.133 11.6389L147.347 11.6868C147.807 11.7687 148.235 11.8701 148.639 12.0585L149.016 12.2843L149.072 12.3697L149.185 12.4941L149.108 12.7663L149.123 12.8499L149.04 13.024L148.754 13.0667L148.712 13.2213L148.6 13.2373L148.588 13.3584L148.473 13.3957L148.445 13.4295L148.63 13.7761L148.56 13.9416L148.591 14.0628L148.386 14.2812L147.863 14.2757L147.475 14.2528L147.314 14.226C147.019 14.1995 146.74 14.2738 146.58 14.5034L146.455 14.8359C146.352 15.2007 146.328 15.6273 146.305 16.0364L146.308 16.3118C146.252 16.6638 146.024 17.1689 145.623 17.21L145.075 17.0251L144.93 16.8845L144.801 16.9253L144.732 16.8934L144.527 16.8437L144.38 16.8883L144.269 16.8756L144.161 16.8845L143.919 16.7314L143.846 16.6036L143.746 16.5341C143.647 16.4043 143.684 16.264 143.684 16.1005L143.64 15.8888L143.666 15.7466V15.6184L143.723 15.2574L143.712 15.0974L143.794 14.8895L143.742 14.7578L143.785 14.5621L143.781 14.4377L143.829 14.2528L143.804 14.0111L143.859 13.6358L143.814 13.3957L143.834 13.2038L143.781 13.1164L143.723 12.7944L143.735 12.3895L143.717 12.2792L143.737 12.1653C143.746 11.9893 143.739 11.8114 143.739 11.63C143.739 11.292 143.621 10.9738 143.583 10.6575L143.599 10.5115L143.546 10.2485L143.562 10.1471L143.52 10.0084L143.541 9.80018L143.495 9.66308L143.435 9.23487C143.514 9.04261 143.597 9.04102 143.781 8.99639L144.027 8.97885L144.251 9.06047L144.557 8.93771L144.594 9.02859L144.746 9.02667L144.935 8.87554L144.923 8.79361L145.043 8.68009ZM138.117 10.8533L138.119 10.8906L138.117 10.8533ZM140.877 11.4336L140.842 11.1259L140.847 10.9821L140.799 10.8147L140.718 10.3935L140.697 10.1608L140.605 9.86012L140.541 9.63948L140.253 9.28238L140.216 9.20745L139.833 8.96546L139.728 8.95303L139.628 8.90519L139.26 8.95303L139.034 8.946L138.931 8.88223H138.733L138.551 9.04932L138.301 9.19152L138.223 9.33914L138.046 9.60377L138.332 10.0023L138.408 10.1872L138.502 10.655L138.099 10.6441L137.86 10.6461L137.587 10.6068L137.541 10.6142L137.53 10.6566L137.993 10.8469L137.827 10.8578L137.68 10.9075L137.47 10.92L137.071 10.9021C136.862 10.9002 136.641 10.9164 136.441 10.9215L136.328 10.9024C136.139 10.8967 135.821 10.9359 135.672 10.8418C135.574 10.7777 135.83 10.6942 135.669 10.6779L135.508 10.6869L135.25 10.6422L135.04 10.655L134.847 10.6422L134.589 10.662L134.187 10.6406L133.976 10.662L133.783 10.6461L133.66 10.662L133.199 10.6158L133.089 10.6285C132.889 10.6104 132.681 10.6285 132.481 10.6352L132.062 10.6212L131.868 10.6193L131.787 10.589L131.684 10.5746L131.567 10.3648L131.573 10.2032L131.527 10.0198L131.507 9.7852L131.394 9.54893L131.32 9.39239L130.984 9.12551L130.876 9.02986L130.73 8.95334L130.533 8.88001L130.405 8.74322L130.145 8.68998L130 8.67914L129.578 8.90519L129.381 9.15931L129.095 9.45807L128.92 9.60377L128.699 9.98447L128.528 10.2564L128.494 10.4911L128.425 10.8182C128.434 11.0602 128.443 11.3019 128.469 11.5474L128.526 11.7591L128.519 11.9386L128.54 12.1465L128.501 12.4721L128.508 12.9379L128.494 13.0377L128.512 13.2172L128.48 13.4608L128.499 13.8322L128.459 14.0937C128.454 14.284 128.487 14.4603 128.494 14.6469L128.454 14.8229L128.448 15.129L128.418 15.2565L128.459 15.3955L128.469 15.4969L128.644 15.9911C128.747 16.1617 128.89 16.249 129.047 16.3629L129.263 16.5334L129.563 16.6438L129.744 16.7043L129.986 16.7254L130.27 16.697C130.472 16.7129 130.756 16.7487 130.963 16.7129H131.144L131.562 16.6989C131.81 16.69 132.057 16.6632 132.304 16.6562L132.513 16.6686C132.7 16.6578 132.886 16.5778 133.061 16.5742C133.34 16.5653 133.607 16.5459 133.882 16.5405L134.041 16.5602L134.176 16.5334L134.329 16.5529L134.492 16.5245L134.851 16.5032L135.134 16.514C135.37 16.4926 135.611 16.4926 135.851 16.4853L136.054 16.4961L136.139 16.528L136.247 16.5315L136.459 16.5672L136.844 16.5886L137.053 16.5637L137.168 16.5832L137.535 16.5886L137.634 16.6026L137.958 16.6135L138.325 16.608L138.456 16.6454L138.631 16.6434L138.859 16.6986L139.06 16.7254L139.246 16.7786L139.47 16.8054L139.681 16.7821C139.875 16.7821 140.172 16.8159 140.292 16.6718L140.269 16.6329L139.951 16.4018L140.195 16.1116L140.384 16.0765L140.462 15.9768L140.642 15.6299L140.709 15.3525L140.725 15.1803L140.773 14.9348L140.789 14.5809L140.778 14.4014L140.812 13.9317L140.838 13.7522L140.842 13.3769L140.826 13.3004L140.868 13.1531C140.879 12.7673 140.858 12.3617 140.858 11.9686C140.858 11.7945 140.874 11.6115 140.877 11.4336ZM138.617 13.5086L138.553 13.6081L138.55 13.7238L138.5 13.7771L138.447 13.8714L138.405 13.9744L137.972 13.9461C137.562 13.9336 137.145 13.9317 136.747 13.9193C136.558 13.9123 136.371 13.9336 136.183 13.9282C135.461 13.9053 134.773 13.9531 134.043 13.9639C133.744 13.9709 133.402 14.0066 133.109 13.9818C132.916 13.9658 132.734 13.9942 132.539 13.9993L132.334 13.9709L132.191 13.9818L132.048 14.0172L131.965 13.9764C131.819 13.9355 131.651 13.8982 131.619 13.7343L131.67 13.5086L131.804 13.4429L132.188 13.3186L132.292 13.2596L132.524 13.2312L132.642 13.192L132.767 13.1815L133.126 13.0836H133.269L133.386 13.0517L133.525 13.0498L133.868 12.9663L133.957 12.9714L134.091 12.9465C134.266 12.9341 134.427 12.9306 134.605 12.9235L134.929 12.8827C135.167 12.8897 135.427 12.8719 135.685 12.8754L135.878 12.9041L136.201 12.8773L136.394 12.8897C136.613 12.877 136.827 12.87 137.037 12.8451L137.376 12.9038H137.714L137.94 12.9341L138.063 12.9146L138.514 13.1442L138.617 13.5086ZM144.577 17.9338L144.759 18.0189L144.929 18.003L145.296 18.1025L145.586 18.0881L145.857 18.3103L146.009 18.3263L146.104 18.5504L146.224 18.6907L146.307 18.7532L146.479 19.1161L146.595 19.3329L146.657 19.5356L146.719 19.6868L146.74 19.8593C146.788 20.0423 146.861 20.2202 146.889 20.414C146.922 20.6222 146.86 20.8301 146.88 21.0453L146.942 21.5147L146.926 21.7761L146.942 22.1281L146.912 22.308L146.913 22.6651L146.91 23.0547C146.88 23.3499 146.797 23.6324 146.767 23.9315L146.746 24.2691L146.705 24.4168L146.68 24.6569L146.613 24.8577L146.588 24.9645L146.251 25.2524L145.977 25.1332L145.737 25.1227L145.647 25.2222L145.588 25.1118L145.452 24.7847L145.396 24.7225L145.258 24.8558L145.173 24.8593L145.115 24.8826L145.017 24.7652L144.954 24.7385L144.747 24.9999L144.604 24.9055L144.436 24.9288L144.242 24.6674L144.098 24.6195L143.793 24.1234C143.759 23.956 143.801 23.707 143.812 23.5384L143.846 23.1577L144.065 22.6989L144.122 22.6013L144.143 22.3414C144.164 22.1371 144.137 22.0178 144.098 21.8345L144.084 21.6161L143.998 21.4506L143.823 21.1005L143.678 20.9117L143.557 20.7093L143.399 20.5936L143.39 20.51L143.201 20.3889L143.031 20.3748L142.805 20.3111L142.579 20.3251L142.45 20.3021L142.291 20.2948L142.192 20.261C141.997 20.2521 141.803 20.2629 141.61 20.2629L141.354 20.2415L141.161 20.2629L141.03 20.2435L140.921 20.2629H140.81L140.776 20.2757L140.804 20.3021L140.967 20.3627L140.962 20.4L140.76 20.4032L140.659 20.4408L140.403 20.4711L140.276 20.4622L139.986 20.4587L139.825 20.43L139.599 20.4443L139.293 20.4303L139.196 20.4514L138.987 20.4427L138.855 20.3927L138.62 20.4016L138.408 20.3678C138.256 20.3767 138.29 20.5582 138.069 20.5422L138.026 20.5295L138.182 20.3751L138.148 20.3608L137.874 20.4125L137.652 20.3806L137.537 20.3927L137.36 20.3876L137.199 20.5406C136.989 20.5422 136.782 20.5457 136.57 20.5457L136.135 20.6203L135.83 20.6615L135.395 20.7466L135.202 20.7377C134.999 20.7396 134.794 20.752 134.589 20.752L134.153 20.7271L133.995 20.7361L133.609 20.7128C133.292 20.7128 132.972 20.7485 132.658 20.752L132.318 20.7555L132.126 20.7928H131.781L131.574 20.8604L131.427 20.8639L131.03 20.9672L130.853 21.024C130.668 21.0559 130.491 21.0718 130.304 21.0916L129.983 21.1005L129.727 21.1413L129.515 21.1467L129.323 21.1538L129.047 21.0632L128.909 21.0224C128.685 20.9102 128.421 20.6879 128.319 20.4517L128.273 20.2349L128.213 20.0247L128.224 19.6836L128.217 19.4397L128.446 19.0325L128.487 18.8603L128.602 18.6732L128.653 18.5434L128.662 18.4599L128.74 18.3853L128.794 18.2947L129.047 18.1933L129.273 18.2396L129.42 18.2147L129.727 18.2038L130.049 18.1771C130.309 18.172 130.546 18.193 130.805 18.193L131.175 18.1681L131.383 18.2038L131.673 18.1771L132.064 18.1968L132.27 18.1771L132.481 18.1825L132.704 18.2163L133.041 18.2144L133.205 18.2338L133.348 18.1984L133.477 18.2073L133.849 18.1646L134.119 18.1503L134.248 18.1076L134.277 18.0613L134.591 18.0046L134.688 18.0384L134.992 18.0951L135.428 18.0524L135.685 18.0613L135.814 18.0349L136.054 18.0738L136.293 18.0597L136.586 18.0616L136.989 18.0954C137.176 18.0973 137.374 18.076 137.551 18.0687L137.89 18.0954C138.051 18.0884 138.224 18.0651 138.38 18.0562C138.569 18.0473 138.774 18.0881 138.972 18.0935L139.15 18.0632L139.534 18.1079L139.873 18.099L139.986 18.1382C140.2 18.1646 140.444 18.1308 140.659 18.1471L140.843 18.1968L141.144 18.2C141.306 18.2109 141.476 18.2322 141.644 18.2396L141.95 18.2415L142.112 18.2714C142.285 18.2858 142.446 18.2874 142.61 18.3033L142.805 18.2893L143.254 18.3071L143.397 18.3231L143.575 18.3071L143.701 18.3142L143.824 18.2077L144.005 18.2109L143.976 18.069L143.964 17.9816L144.03 18.0084L144.157 18.0243L144.457 18.1028L144.503 18.0387L144.577 17.9335" fill="white"/>
<path d="M142.403 19.816L142.312 19.9173L142.622 19.8854M142.755 19.8625L142.85 19.9103L142.755 19.8625ZM136.991 20.3962L137.191 20.4498L136.991 20.3962ZM136.78 20.4303L136.819 20.4517L136.78 20.4303ZM172.899 11.8899L172.901 11.7496C172.944 11.5328 173.039 11.3495 173.025 11.1024C173.009 10.8584 172.873 10.6825 172.804 10.4711L172.769 10.2613L172.735 10.2023L172.804 10.0049L172.772 9.651L172.705 9.46449L172.661 9.33471L172.558 9.22279C172.29 8.90268 171.988 8.66961 171.592 8.56472L171.417 8.54526L171.311 8.50063H171.203L170.957 8.46683L170.728 8.40625L170.501 8.4493L170.399 8.4917L170.134 8.4493L169.971 8.47226L169.627 8.46333L169.45 8.49361L169.195 8.44899L169.068 8.4512L168.883 8.43686L168.688 8.63071L168.411 8.64314L168.1 8.6626L167.835 8.64123L167.688 8.66994L167.476 8.67311L167.391 8.63804L167.273 8.6626L167.064 8.66994C166.912 8.66994 166.748 8.64856 166.587 8.65558L166.373 8.68045L165.979 8.67344L165.813 8.71075C165.645 8.72318 165.475 8.74454 165.304 8.75346C165.076 8.76399 164.857 8.71775 164.632 8.74262L164.334 8.7997L164.008 8.80671L163.793 8.8335L163.334 8.84242L163.233 8.80671L162.759 8.8048C162.584 8.80671 162.393 8.8335 162.217 8.8335L161.823 8.83668L161.673 8.86857L161.291 8.84754L161.096 8.87622L160.702 8.86347C160.532 8.86347 160.342 8.86888 160.16 8.86888L159.979 8.8402H159.847L159.605 8.81373L159.407 8.8083L159.292 8.83317L158.947 8.80671L158.733 8.83317L158.336 8.84401C158.172 8.85103 158.011 8.81213 157.846 8.82074L157.664 8.85104C157.44 8.86889 157.238 8.88291 157.028 8.93106L156.841 8.98623L156.553 8.96136L156.404 9.03788L156.27 9.09112L156.131 9.20495L155.678 9.38445L155.533 9.54801L155.501 9.6373L155.364 9.83624L155.302 10.0441L155.116 10.391L155.047 10.4959L155.026 10.6311L154.98 10.7376L154.982 10.8674L154.948 11.0332C154.948 11.2267 154.98 11.4135 155.009 11.5966L155.065 11.7834L155.111 12.1886L155.15 12.3398C155.164 12.5655 155.12 12.7916 155.107 13.003L155.164 13.3499L155.21 13.6416C155.284 13.8425 155.433 14.0344 155.618 14.1502L155.816 14.2212L156.04 14.351L156.533 14.4221L156.679 14.3988L156.94 14.4167L157.079 14.3651L157.216 14.3491L157.486 14.2656L157.61 14.2477L157.965 14.1358L158.225 14.1055L158.686 13.9882L158.879 13.9847L158.981 13.9509H159.142L159.356 13.9222L159.803 13.8211L159.997 13.8084L160.149 13.7733L160.262 13.7765L160.524 13.7535C160.688 13.7427 160.869 13.757 161.033 13.7624L161.194 13.757L161.36 13.7784L161.657 13.757L161.874 13.764C162.102 13.7481 162.33 13.6627 162.562 13.6502L162.956 13.663C163.18 13.663 163.402 13.6646 163.627 13.6646L164.103 13.6897C164.344 13.677 164.565 13.6292 164.813 13.6222C165.161 13.6078 165.507 13.6183 165.864 13.5954L166.045 13.5667L166.356 13.5546L166.488 13.5332C166.667 13.5278 166.845 13.5189 167.029 13.5332L167.314 13.5705L167.487 13.5577L167.768 13.574L167.966 13.5278L168.378 13.4621L168.504 13.4442C168.683 13.4567 168.874 13.478 169.051 13.4905L169.312 13.4816C169.48 13.4796 169.648 13.4959 169.825 13.501L170.168 13.5278L170.316 13.5189L170.498 13.5581L170.69 13.5721L170.807 13.6132L170.958 13.6273L171.17 13.5989L171.284 13.6222L171.595 13.6113L171.712 13.64L171.991 13.6346L172.097 13.5794L172.267 13.5561L172.24 13.4975L172.205 13.4423L172.313 13.3607L172.299 13.2628L172.373 13.0958L172.447 12.8129L172.666 12.6707L172.767 12.5783L172.956 12.4539L172.885 12.2084L172.9 11.8902M170.021 11.3673L169.961 11.3852L170.012 11.4438L169.941 11.4741L169.911 11.522L169.738 11.5452L169.558 11.5325L169.245 11.5274C169.042 11.513 168.833 11.5344 168.623 11.5328C168.245 11.5255 167.879 11.5149 167.506 11.5079L167.076 11.5522H166.819C166.585 11.5717 166.343 11.5985 166.11 11.609L165.813 11.602L165.338 11.6253L165.156 11.6144L164.993 11.6288L164.876 11.6144L164.647 11.6393L164.401 11.6144L164.073 11.6731L163.894 11.6661L163.793 11.6928L163.68 11.675L163.433 11.6839C163.266 11.6871 163.072 11.6964 162.904 11.7053L162.627 11.7015L162.51 11.7282L162.314 11.7015C162.077 11.689 161.826 11.7088 161.591 11.7142L161.247 11.7317L161.1 11.7566L160.803 11.7477L160.639 11.7691L160.442 11.7496L160.031 11.7764L159.914 11.7566L159.736 11.771L159.695 11.6731L159.419 11.6839L159.545 11.771L159.527 11.7815L159.502 11.7888L159.303 11.7729L159.16 11.7904L159.078 11.7496L158.914 11.7958H158.836L158.716 11.8245L158.645 11.7904L158.419 11.7353L158.288 11.7605L158.027 11.6964L157.947 11.6128L158.138 11.4438L158.265 11.403C158.539 11.2768 158.818 11.2286 159.142 11.2002L159.34 11.1343L159.522 11.1311L159.734 11.0919L159.819 11.1129L159.979 11.1183L160.257 11.0969L160.542 11.0791C161.049 11.0899 161.537 11.0526 162.035 11.0258C162.611 10.9956 163.136 10.9956 163.728 10.9866L164.122 10.9815L164.23 10.9528L164.417 10.9672L164.595 10.9531L165.007 10.9761L165.156 10.9442L165.299 10.9618L165.486 10.9209L165.748 10.9299L165.831 10.9477L165.926 10.9334L166.011 10.9567L166.188 10.9299C166.499 10.9299 166.819 10.9407 167.128 10.9174L167.29 10.8642L167.361 10.8871L167.746 10.8731L167.819 10.809L167.999 10.722L168.13 10.8568L168.211 10.8482L168.474 10.8502L168.589 10.8234L168.72 10.8482L168.819 10.818L168.957 10.8712L169.082 10.8572L169.249 10.8999L169.466 10.9159L169.758 11.0013L170 11.0297L170.219 11.1754C170.309 11.3638 170.162 11.3603 170.021 11.3673ZM170.136 11.3817L170.187 11.419L170.136 11.3817ZM168.738 18.5237L168.508 18.5415L168.114 18.5543L167.983 18.5415L167.819 18.5683L167.695 18.6091L167.884 18.657C168.375 18.6713 168.9 18.7 169.391 18.7175C169.634 18.7265 169.879 18.7513 170.135 18.7549L170.3 18.7568L170.353 18.7303L170.37 18.6876L170.33 18.6397L169.856 18.6056L169.605 18.5632H169.197L168.738 18.524M169.149 19.1355L169.182 19.2191L169.689 19.2902L169.855 19.331L170.023 19.3042L170.085 19.3361L170.513 19.3523L170.55 19.3115L170.414 19.2704L170.297 19.2207C170.092 19.1923 169.884 19.1869 169.674 19.1744C169.506 19.1674 169.323 19.1355 169.149 19.1355ZM168.46 23.6315L168.526 23.6832L168.46 23.6315ZM170.498 23.7319L170.445 23.8066L170.159 23.9025L171.005 23.979L171.044 23.9631M170.331 24.0125L169.921 24.0501L169.888 24.075L169.971 24.1069C170.123 24.1193 170.239 24.1372 170.4 24.1442L170.511 24.1691L170.743 24.1621L170.907 24.1745L170.982 24.1442L170.937 24.1034L170.628 24.0925L170.331 24.0125ZM169.775 24.0619L169.8 24.0887L169.775 24.0619Z" fill="white"/>
<path d="M173.539 23.5651L173.562 23.3018L173.511 23.1487L173.394 22.7454L172.862 22.4804L172.405 22.4929L172.253 22.4642L172.042 22.4715L171.578 22.4428L171.45 22.4804L171.155 22.4607L171.129 22.5069L170.777 22.6226L170.673 22.6545L170.444 22.5959L170.019 22.5531L169.773 22.4999L169.679 22.5053L169.577 22.4607L169.296 22.4307L169.165 22.4715L168.87 22.5337L168.543 22.5318L168.312 22.5566L168.13 22.5247L167.704 22.5088L167.442 22.5318C167.288 22.5139 167.027 22.4607 166.864 22.4785L166.666 22.5994L166.523 22.6013L166.24 22.651H165.912L165.767 22.7062L165.633 22.6759L165.382 22.6972L165.141 22.6724L164.996 22.6832L164.917 22.7062L164.715 22.6599L164.542 22.7078L164.357 22.7062L164.254 22.7451L164.155 22.7275L163.918 22.7451L163.791 22.731L163.66 22.7683L163.448 22.7843L163.25 22.7824L163.159 22.7575L163.07 22.7929L162.794 22.8002L162.676 22.8321L162.561 22.8092L162.234 22.8251L162.035 22.8713L161.757 22.8818L161.672 22.9137L161.543 22.8962L161.407 22.9479L161.204 22.953L161.065 23.0065L160.888 22.9922L160.757 22.9654L160.391 23.0116L160.177 22.9778L159.944 23.0065L159.668 22.9867L159.371 23.0438C159.147 23.047 158.926 23.0046 158.7 23.0046C158.486 23.0046 158.272 23.0205 158.055 23.0151L157.733 22.9976L157.664 22.8053L157.738 22.4712L157.991 22.4214C158.162 22.4017 158.332 22.3628 158.504 22.3395C158.677 22.313 158.85 22.2416 159.011 22.1992L159.423 22.1262L159.67 22.073L159.981 22.0427L160.162 22.0053L160.387 21.9875L160.651 21.9502L160.753 21.9253L161.163 21.8896C161.626 21.8258 162.118 21.8258 162.595 21.8258L162.823 21.7882L163.021 21.8115C163.213 21.8096 163.402 21.7987 163.597 21.8007L163.763 21.8166L163.975 21.7847L164.302 21.7742L164.501 21.719H164.643L164.795 21.6817C165.466 21.6406 166.179 21.6817 166.85 21.6569L167.29 21.6266L167.472 21.6017L167.75 21.6317C167.979 21.639 168.209 21.6247 168.427 21.6247L168.706 21.6549C169.026 21.6674 169.356 21.662 169.672 21.6514L170.054 21.6779L170.328 21.6693L170.466 21.7225L170.613 21.7136L170.941 21.7972C171.104 21.822 171.261 21.8274 171.419 21.8577L171.643 21.9024L171.745 21.9413H171.912L172.138 21.9929L172.468 21.895L172.626 21.8488L172.643 21.838L172.769 21.6017L172.953 21.4557L173.161 21.2369L173.359 20.8387L173.38 20.6608C173.461 20.3888 173.497 20.1188 173.497 19.8146L173.527 19.5139L173.523 19.3842L173.548 19.2668L173.543 19.1709L173.603 18.9913L173.5 18.4417C173.437 18.2513 173.304 18.0524 173.203 17.8815L172.936 17.5046L172.671 17.341L172.434 17.2024C172.173 17.1277 171.544 17.0531 171.29 17.1615L171.18 17.2148L171.037 17.3784L170.742 17.2859L170.639 17.3605L170.445 17.4086L170.201 17.4016L170.068 17.4122L169.692 17.3554L169.494 17.3659L169.296 17.3535L169.066 17.3892L168.819 17.3659C168.573 17.3659 168.313 17.341 168.064 17.341L167.672 17.3608C167.509 17.3608 167.342 17.3127 167.179 17.3127H167.03L166.666 17.2059L166.281 17.0796L166.249 16.9517L166.29 16.5373L166.295 16.5302L166.677 16.491L166.799 16.4591L166.979 16.4661L167.083 16.4343L167.207 16.4272L167.357 16.3861L167.506 16.3364L167.603 16.3542L167.769 16.3577L168.048 16.3507L168.227 16.3313L168.427 16.3523L168.557 16.3348C168.778 16.3686 169.019 16.404 169.248 16.404L169.593 16.4148L169.888 16.411L170.019 16.4467L170.349 16.4824L170.627 16.4751L171.088 16.5302L171.281 16.543L171.463 16.5337C171.631 16.5516 171.795 16.6013 171.958 16.6192C172.124 16.6351 172.274 16.6192 172.434 16.6064L172.806 16.5283L173.122 16.1658L172.942 15.8916L173.108 15.8406C173.254 15.7975 173.44 15.7373 173.46 15.5613L173.396 15.282L173.428 15.1914L173.202 15.0097L173.145 14.8927L173.019 14.745L172.883 14.6366L172.774 14.4303C172.604 14.3219 172.394 14.2454 172.191 14.2043L171.696 14.2062L171.268 14.219L171.153 14.2473L170.954 14.2365L170.563 14.2579L170.185 14.226C169.494 14.2151 168.813 14.2292 168.112 14.2062L167.75 14.1759C167.483 14.167 167.204 14.1938 166.93 14.1903L166.778 14.1708L166.502 14.1727L166.308 14.144L166.126 14.1568L165.88 14.144L165.664 14.1584L165.223 14.1619C164.942 14.1689 164.657 14.2403 164.387 14.2722C163.975 14.3168 163.549 14.32 163.118 14.32C162.572 14.32 162.011 14.3806 161.462 14.3806C161.202 14.3806 160.937 14.3274 160.672 14.3433L160.372 14.3966L160.211 14.4109L159.751 14.4874C159.336 14.5241 158.92 14.552 158.504 14.571L158.141 14.5655L157.845 14.6028L157.583 14.6009L157.433 14.6312L156.973 14.6331C156.538 14.681 156.106 14.7543 155.733 14.9319L155.439 15.1576L154.964 15.5508L154.948 15.8584C154.982 16.2707 155.123 16.5376 155.458 16.7598L155.598 16.8612C155.765 16.925 155.934 16.9377 156.12 16.9591L156.399 16.9855L156.593 16.975L156.86 16.9055L157.235 16.8755L157.369 16.8417L157.68 16.799L157.845 16.7439L158.14 16.7349L158.27 16.6833L158.436 16.7046L158.781 16.6533L159.044 16.6354L159.143 16.5908L159.251 16.5946C159.417 16.5643 159.598 16.5073 159.767 16.4983C160.02 16.4843 160.269 16.461 160.524 16.461L160.804 16.4754H161.048L161.197 16.5127L161.526 16.4754L161.787 16.4684L161.904 16.4346L162.017 16.447L162.363 16.4008L162.496 16.4346L162.727 16.4451C162.93 16.4575 163.114 16.4292 163.294 16.4843L163.457 16.5659L163.549 16.6495L163.772 16.9004C163.667 17.2505 163.206 17.2291 162.89 17.2703C162.727 17.2916 162.537 17.3181 162.376 17.3414L162.234 17.3379L161.872 17.3733L161.459 17.4249L161.326 17.416L160.918 17.4765C160.714 17.489 160.516 17.4855 160.31 17.5068L160.211 17.5279C159.926 17.5406 159.64 17.5598 159.357 17.5706L159.128 17.5725L158.928 17.6082L158.733 17.6028L158.53 17.6366L158.405 17.6207L157.975 17.6277L157.664 17.6152C157.493 17.6223 157.344 17.6723 157.187 17.6953C156.964 17.7221 156.759 17.724 156.551 17.7718L156.362 17.8356L156.206 17.8713L156.114 17.9159C155.913 17.9711 155.71 18.0189 155.54 18.1436L155.459 18.2201L155.284 18.3585L155.31 18.5185L155.34 18.6521L155.202 18.7889L155.084 19.0931L155.176 19.4059C155.312 19.6743 155.351 19.7865 155.655 19.8895L155.844 19.9715L155.95 19.9766L156.042 20.0352L156.464 20.0977L156.634 20.151L156.902 20.2202L156.985 20.2897L156.938 20.3165L156.733 20.3356L156.3 20.487L155.909 20.5476L155.717 20.6968L155.416 20.9264L155.243 21.2143C155.132 21.3884 154.978 21.6071 154.948 21.8188C154.92 22.0003 154.955 22.203 154.996 22.372L155.042 22.5585L155.024 22.6724L155.031 22.8235C155.031 23.003 154.996 23.1828 154.96 23.348L154.9 23.4902L154.854 23.7819L154.817 23.9634L154.867 24.2353L154.95 24.3456L154.99 24.5251L155.118 24.7334L155.155 24.872L155.323 25.1459L155.639 25.2757L155.832 25.3876C156.063 25.4747 156.325 25.5371 156.597 25.5279L156.959 25.4871L157.125 25.503L157.484 25.4998L157.777 25.4747L157.943 25.4358L158.353 25.393L158.799 25.3041L159.007 25.2846L159.242 25.2097C159.433 25.1673 159.633 25.1548 159.833 25.1332L160.179 25.0799C160.359 25.0694 160.531 25.0391 160.706 25.0267L161.098 25.0177L161.542 24.984L161.706 24.961L161.886 24.968L162.135 24.9393L162.345 24.9361C162.701 24.8985 163.058 24.8437 163.416 24.8099C163.802 24.7722 164.182 24.8309 164.565 24.7687L164.62 24.6658L164.809 24.6249L164.873 24.6409L164.961 24.6036L165.088 24.6728L165.157 24.6336L165.242 24.6782L165.465 24.6693L165.557 24.6071L165.65 24.616L165.912 24.6265L166.044 24.6941L166.371 24.7101L166.718 24.7547L166.912 24.7314L167.234 24.6747L167.246 24.5519L167.408 24.6514L167.834 24.6533L167.919 24.5325L168.126 24.5165L168.281 24.4917L168.361 24.5165L168.667 24.5698L168.702 24.6533L168.985 24.7209C169.146 24.7337 169.46 24.7655 169.589 24.6871L169.551 24.6074L169.658 24.543C169.819 24.5271 169.973 24.5644 170.134 24.5484L170.264 24.5146L170.644 24.4933L170.766 24.6055H170.842L170.957 24.6195L171.104 24.5947L171.242 24.6355L171.092 24.7174L171.122 24.7353L171.593 24.7974L172.023 24.8953L172.222 24.961L172.548 24.9967L172.843 24.9929L173.062 24.7761L173.27 24.7283L173.306 24.4827L173.24 24.3938L173.196 24.1483C173.318 23.942 173.357 23.9404 173.601 23.912L173.668 23.862L173.539 23.5651ZM167.603 19.0682L167.866 19.0861C168.073 19.0861 168.281 19.0822 168.474 19.102L168.559 19.1374L168.527 19.1642L168.444 19.1517L168.375 19.1785L168.163 19.198L167.568 19.1288L167.603 19.0682ZM157.565 20.1778L157.703 20.1047L158.12 19.968C158.29 19.9042 158.47 19.8223 158.65 19.7811L159.027 19.726L159.161 19.6852L159.389 19.6622L159.668 19.6176L159.963 19.6086C160.149 19.6035 160.338 19.5768 160.523 19.5643L160.983 19.5146C161.273 19.5111 161.559 19.5111 161.838 19.5111L162.035 19.4843L162.299 19.4967C162.501 19.4878 162.701 19.4521 162.902 19.4575C163.24 19.4648 163.576 19.4594 163.911 19.4361L164.32 19.3848L164.549 19.381L164.876 19.351L165.435 19.3172L165.881 19.3312L166.371 19.3421L166.799 19.4167C167.119 19.4167 167.384 19.3402 167.704 19.3402C168.248 19.3402 168.798 19.3615 169.329 19.4113L169.672 19.4202C169.858 19.4256 170.042 19.4505 170.219 19.4738L170.505 19.5092L170.531 19.5519L170.524 19.5624L170.149 19.6568L169.939 19.6249L169.526 19.6533L169.395 19.6176L169.232 19.6249L169.132 19.6035C168.757 19.5981 168.372 19.6482 168 19.6125L167.72 19.6284C167.557 19.6176 167.375 19.5946 167.211 19.5838L166.946 19.6105L166.668 19.6035L166.46 19.6408C166.207 19.6176 165.972 19.6638 165.714 19.6727L165.587 19.6568L165.435 19.696L165.226 19.6871L165.123 19.6584C164.935 19.6552 164.731 19.6638 164.533 19.6622L164.334 19.6478L164.137 19.6727L164.008 19.6676L163.874 19.696L163.598 19.6906L163.284 19.7457L163.12 19.7387L163.019 19.7725L162.724 19.8098C162.545 19.8203 162.367 19.8149 162.195 19.8382H162.054L161.838 19.8755L161.69 19.8685L161.524 19.8988L161.395 19.8844L161.149 19.9198L160.882 19.9272L160.619 19.968L160.372 19.9699L160.08 19.9807L159.833 20.018L159.523 20.0199C159.318 20.0269 159.11 20.0713 158.914 20.0713L158.733 20.0518C158.565 20.0553 158.369 20.0572 158.211 20.0837C158.025 20.1194 157.823 20.1299 157.648 20.1762L157.565 20.1781M164.678 23.8234L164.434 23.7896L164.27 23.8288L164.201 23.8093L164.387 23.7469L164.648 23.7701L164.74 23.7631L164.753 23.7826L164.678 23.8234ZM164.853 23.8288L164.975 23.7755L165.141 23.7328L165.186 23.8253L164.853 23.8288ZM165.548 24.1594L165.29 24.1881L165.237 24.133L165.166 24.2041L164.905 24.1703L164.873 24.1416L164.899 24.1186L165.387 24.0813L165.465 24.1311L165.546 24.1438L165.548 24.1594ZM165.348 23.8129C165.327 23.6528 165.581 23.781 165.635 23.699L165.348 23.8129ZM165.866 24.133L165.755 24.1435L165.797 24.0973L165.866 24.133ZM165.726 23.8218L165.711 23.8109L165.929 23.7755L166.027 23.715C166.318 23.8466 165.754 23.8129 165.726 23.8218ZM168.195 24.0581L167.72 24.067L167.688 24.0118L168.015 24.0246H168.158L168.197 24.0529L168.195 24.0581M168.907 23.8556C168.679 23.8288 167.58 24.0246 167.53 23.8288L167.561 23.8074L167.769 23.7969L167.934 23.765C168.124 23.7558 168.518 23.816 168.642 23.715L168.741 23.7682L168.837 23.7612L169.02 23.7931L169.061 23.8164L168.907 23.8556Z" fill="white"/>
<path d="M170.562 24.3262L170.527 24.3848L170.66 24.3654M118.828 8.90991L119.159 8.93319L119.738 9.35468L119.901 9.60529L119.966 9.69234L120.125 10.0871L120.251 10.4142L120.263 10.6081L120.3 10.779C120.323 10.9511 120.318 11.5276 120.426 11.6216H120.899C121.076 11.6216 121.265 11.6325 121.431 11.6325L121.645 11.5933L121.763 11.6076L121.859 11.5933L122.057 11.6465C122.446 11.723 122.764 11.7728 123.05 12.061L123.17 12.1943L123.221 12.413L123.262 12.8559L123.119 12.9892L123.145 13.2292L122.976 13.4336L122.935 13.5548L122.933 13.558L122.799 13.6523L122.618 13.6453L122.407 13.6632L122.329 13.6916L122.246 13.6896L122.242 13.7945L122.03 13.8656L121.825 13.9868L121.429 13.8943L121.111 13.9351L120.993 13.9119L120.751 14.0171L120.567 14.4561L120.562 14.6997L120.533 14.8509L120.539 14.9414L120.516 15.3272L120.48 15.772C120.48 16.0494 120.511 16.3567 120.44 16.6112L120.194 16.9597L120.023 17.0234L119.964 17.1784L119.85 17.2141L119.814 17.2814L119.807 17.2887L119.752 17.3295L119.427 17.0113L119.215 17.2316L119.155 17.3171L119.082 17.2763L118.669 17.1854L118.552 17.3812L118.263 17.1516L118.045 17.0681L117.992 17.1446L117.989 17.1481L117.955 17.0005L117.893 16.8851L117.828 16.6807L117.746 16.4706L117.731 16.2592L117.7 16.138L117.695 15.9426L117.635 15.7382L117.64 15.448L117.619 15.3272L117.676 15.2456L117.706 15.0836L117.808 15.0179L117.87 14.8544L117.886 14.5005L117.944 14.2231C117.955 14.0595 117.946 13.9243 117.937 13.7802L117.946 13.5188L117.921 13.366C117.911 13.1384 117.911 12.9232 117.899 12.692L117.86 12.5071L117.851 12.187L117.796 11.9115V11.7176L117.738 11.5132L117.711 11.314L117.72 11.2413L117.674 11.115L117.699 10.9779L117.695 10.5513L117.653 10.4694L117.64 10.3539L117.557 10.1154L117.536 9.92542L117.469 9.80426L117.439 9.61232L117.443 9.57661L117.543 9.43982L117.559 9.35628L117.725 9.18187L117.948 9.23895L118.158 9.36521L118.492 9.13947L118.623 8.97942L118.828 8.90991M108.464 9.12481C108.665 9.1567 108.876 9.3311 109.052 9.42898L109.21 9.49116L109.383 9.63686L109.492 9.68469L109.597 9.77396L109.873 9.94455L109.975 10.0673L110.13 10.2044L110.192 10.2841L110.267 10.3412L110.645 10.7394C110.924 11.0557 111.175 11.3991 111.411 11.7351L111.705 12.0782L111.972 12.4714L112.235 12.8323L112.313 12.9694L112.336 13.0386L112.459 13.1738L112.502 13.2554L112.626 13.4173L112.665 13.5114L112.723 13.5666L112.742 13.6412L112.836 13.8102L112.919 13.917L113.013 14.0876L113.144 14.26L113.198 14.3634L113.267 14.4309L113.433 14.6605C113.711 15.0674 113.796 15.5456 113.608 16.0277L113.513 16.0988L113.412 16.2305L113.375 16.3513L113.278 16.4651L113.094 16.5327L112.859 16.3245L112.797 16.2375L112.788 16.2394L112.728 16.3299L112.447 16.6376L112.421 16.6466L112.276 16.5436L112.087 16.5898L111.977 16.5133L111.867 16.6182L111.737 16.6571L111.664 16.636L111.505 16.5079L111.318 16.6128L111.134 16.4706L111.028 16.1112C110.967 15.8835 110.899 15.6582 110.821 15.4356C110.728 15.1777 110.592 14.9574 110.445 14.7262L110.387 14.5537L110.318 14.4772L110.233 14.3082C109.968 13.8886 109.691 13.4671 109.344 13.0956L109.24 12.9534L109.063 12.795L108.977 12.6671L108.653 12.4324L108.418 12.3684L108.344 12.3773L108.234 12.3276L107.81 12.5711L107.723 12.6065L107.609 12.7506L107.418 12.8556L107.326 12.9426L107.145 13.1754L106.995 13.2538L106.658 13.6485L106.564 13.7091L106.55 13.8602L106.361 13.9705L106.262 13.9989L106.227 14.1711L106.163 14.239L106.126 14.3066L106.025 14.415L106.087 14.5269L106.036 14.5945L106.034 14.6602L105.974 14.7192L105.939 14.7973L105.787 14.8611L105.875 14.9927L105.78 15.1171L105.698 15.1353L105.755 15.215L105.718 15.2845L105.698 15.384L105.597 15.6846C105.557 15.8855 105.511 16.0669 105.46 16.2573L105.359 16.5844L105.07 16.7833L104.949 16.7285L104.855 16.8458L104.709 16.7923L104.583 16.8742L104.555 16.8529L104.484 16.805L104.449 16.7266L104.436 16.7158L104.314 16.8883L104.295 16.8902L104.113 16.8264L104.05 16.7429L103.95 16.8458L103.938 16.8369L103.862 16.7285L103.721 16.6947L103.645 16.6309L103.466 16.7872L103.408 16.7425L103.348 16.7304L103.279 16.5933L103.205 16.3089L103.235 16.124L103.217 16.0723L103.143 16.2075L103.061 16.2145L103.049 15.9088L103.079 15.8163L103.081 15.5619L103.175 15.1729L103.177 14.8081L103.251 14.7246L103.311 14.5964L103.405 14.481L103.468 14.328L103.473 14.321L103.578 14.4239L103.763 14.2588C103.961 14.0203 104.065 13.718 104.237 13.4639L104.35 13.3198L104.446 13.286L104.47 13.19L104.665 12.9177L104.802 12.669L105.188 12.2778L105.382 11.9647L105.455 11.8866L105.488 11.7654L105.61 11.6749L105.647 11.5913L105.766 11.4492L105.834 11.2891L105.93 11.2572L106.114 11.1255L106.305 10.953L106.354 10.8268L106.49 10.6613L106.568 10.5921L106.695 10.5475L106.688 10.3377L106.783 10.3217L106.89 10.2541L106.936 10.1438L106.989 10.1065L107.215 9.84697L107.326 9.63526L107.512 9.85941L107.816 9.41845L107.872 9.29729L107.977 9.27435L108.1 9.23354L108.263 9.22461L108.439 9.14297L108.464 9.12513M117.975 13.0449L118.002 13.0698L117.975 13.0449Z" fill="white"/>
<path d="M110.304 14.0248L110.431 14.2754L110.433 14.2416M104.978 18.1455L105.393 18.2753C105.794 18.4458 106.042 18.5526 106.169 19.0169L106.222 19.1109L106.252 19.3405L106.201 19.6303L106.134 20.0266L106.121 20.144C106.063 20.3005 105.983 20.4695 105.957 20.642L105.902 20.9481L105.911 21.0651L105.874 21.1735L105.892 21.3925L105.877 21.668L106.035 21.9933L106.148 22.02L106.443 22.093L106.529 22.0803L106.865 22.1233L107.033 22.1144C107.353 22.1179 107.68 22.1144 108.009 22.1144L108.249 22.1249C108.507 22.116 108.799 22.0895 109.046 22.1109L109.117 22.0981L109.27 22.093L109.484 22.0682L109.59 22.0911L109.695 22.0752L109.756 22.086L110.077 22.0573L110.23 22.0612L110.309 22.0344L110.594 22.0503L110.916 22.0344L111.08 22.0522L111.177 22.0165L111.294 22.0255L111.49 21.9846L111.6 22.02L111.81 22.0009L111.902 21.9792L112.024 22.0255L112.36 21.9649L112.543 22.006L112.649 21.9757L112.801 21.9936L112.911 21.9544L113.135 21.9563L113.209 21.9403L113.425 21.9563L113.563 21.9457C113.734 21.9403 113.915 21.9489 114.079 21.9457L114.261 21.9582C114.479 21.9633 114.692 21.9473 114.901 21.9422L115.344 21.9493L115.447 21.926C115.659 21.91 115.848 21.91 116.059 21.9081L116.18 21.8832L116.484 21.896L116.604 21.8887L116.76 21.9119L117.108 21.9139C117.301 21.9263 117.504 21.9493 117.7 21.9493L117.9 21.9279L118.357 21.926L118.722 21.9119L119.103 21.8941L119.183 21.7819L119.133 21.7021L119.421 21.727L119.727 21.734L120.171 21.8335C120.464 21.8995 120.84 21.9722 121.077 22.1482L121.173 22.2177L121.194 22.4613L121.303 22.68L121.36 22.938L121.404 23.0588L121.418 23.231L121.445 23.37L121.425 23.4749L121.446 23.612L121.583 23.7414L121.418 23.8339L121.308 23.898L121.13 23.9123L121.051 24.2411C120.915 24.3533 120.727 24.2663 120.566 24.3249L120.501 24.419L120.33 24.4528L120.259 24.6074L120.103 24.7053C119.941 24.764 119.667 24.6929 119.499 24.6645C119.285 24.6253 119.105 24.5433 118.902 24.4936L118.691 24.4474L118.539 24.4244L118.718 24.3479L118.584 24.2624L118.311 24.227L118.207 24.2411L118.018 24.1878L117.795 24.1735L117.61 24.1362L117.456 24.154L117.246 24.1362L116.997 24.1681L116.744 24.1649L116.484 24.1913C116.134 24.2022 115.781 24.1649 115.435 24.1719L115.327 24.1878C115.132 24.2006 114.938 24.2197 114.747 24.2325L114.567 24.227L114.323 24.2376L114.199 24.2146L113.989 24.2484L113.791 24.2325L113.544 24.2589L113.471 24.2484L113.333 24.2608L113.135 24.2589L112.755 24.3017L112.481 24.2873L112.299 24.316L112.149 24.2981C111.904 24.2981 111.656 24.3173 111.414 24.3425L111.308 24.3246L111.232 24.3533L111.128 24.3495L111.022 24.3708L110.762 24.3763L110.594 24.3565L110.35 24.3744L110.244 24.3708L110.108 24.4011L109.924 24.3852L109.825 24.4206L109.755 24.3992L109.604 24.3973L109.518 24.4684L109.624 24.5325L109.574 24.602L109.497 24.5771L109.38 24.5733L109.399 24.4757L109.401 24.4222H108.949L108.663 24.426L108.261 24.5057L108.138 24.5166L108.023 24.6377L108.055 24.6961C107.866 24.7372 107.664 24.7264 107.457 24.7299L107.079 24.7745C106.855 24.7885 106.655 24.7726 106.439 24.7939L106.162 24.8899L106.044 24.8918L105.752 24.9594L105.298 24.9789L105.158 25.0165L104.934 25.0216C104.757 25.0216 104.582 25.0484 104.42 24.9967C104.241 24.9451 104.041 24.9097 103.884 24.8048L103.755 24.6731L103.637 24.5663L103.462 24.2481L103.357 24.1129L103.236 23.8444L103.197 23.7609L103.183 23.4963L103.154 23.3518L103.183 23.217L103.158 23.0926L103.149 22.7846L103.135 22.63L103.209 22.4629L103.216 22.1409L103.244 22.0235L103.276 21.6824L103.297 21.5899C103.319 21.4012 103.317 21.2162 103.338 21.0224L103.382 20.8553L103.387 20.722L103.414 20.6117V20.4019L103.391 20.2278L103.492 19.9058L103.531 19.7279L103.57 19.6587L103.612 19.4792L103.716 19.1591L103.739 18.9582L103.732 18.8833L103.775 18.8335L103.861 18.6824L103.834 18.405L103.84 18.3945L103.856 18.3786L103.866 18.3588L103.942 18.3358L104.121 18.3499L104.26 18.4139C104.436 18.405 104.549 18.2896 104.695 18.2325L104.789 18.2112L104.866 18.1739L104.978 18.1455ZM194.772 8.60962L195.147 8.6788L195.306 8.79805L195.578 8.79105C196.09 8.98841 196.535 9.45423 196.762 9.95035C196.864 10.1742 196.981 10.3789 197.029 10.633C197.071 10.8766 197.096 11.131 197.106 11.3816C197.115 11.652 197.066 12.1197 197.214 12.3241L197.465 12.3719L197.753 12.4147L197.891 12.3955L198.075 12.4201L198.241 12.4076L198.391 12.429L198.589 12.4255C198.861 12.4609 199.952 12.8078 199.999 13.0817L199.983 13.4426L199.883 13.6613L199.969 13.9084L199.936 14.3175L199.893 14.4437L199.913 14.6893C199.849 14.8563 199.789 14.7849 199.666 14.8598L199.607 14.9488L199.455 15.0483L199.307 15.0537L199.169 15.0696L198.745 15.0269L198.515 15.0378L198.347 15.0199C198.068 15.0339 197.744 15.0964 197.515 15.2351L197.384 15.3576L197.225 15.5017C197.129 15.6439 197.156 15.8269 197.152 16.0067L197.126 16.3428L197.161 16.462L197.145 16.7267C197.161 17.0681 197.241 17.3439 197.142 17.68L197.091 17.8521L196.896 18.0836L196.79 18.1423L196.567 18.3664L196.403 18.4605L196.288 18.5459L196.193 18.5032L196.074 18.4889L196.028 18.4162L195.804 18.2437L195.597 18.3824L195.332 18.4162L195.239 18.3715L195.149 18.3326L194.989 18.1334L194.896 18.1066L194.758 18.0518L194.631 17.9414H194.627L194.401 17.9201L194.39 17.9057L194.314 17.4912L194.298 17.3723L194.335 17.1536L194.353 16.8194L194.396 16.4018C194.396 16.1454 194.422 15.9123 194.422 15.6512L194.403 15.4857C194.403 15.1015 194.417 14.7173 194.417 14.3369L194.45 14.1488L194.445 14.0774L194.475 13.7378L194.468 13.647L194.457 13.279L194.426 13.1738L194.463 12.9411L194.426 12.7899C194.408 12.5945 194.403 12.4096 194.371 12.2246C194.337 12.0486 194.277 11.8618 194.235 11.6893L194.217 11.5025L194.157 11.1505L194.106 10.9655C194.081 10.7825 194.113 10.5673 194.122 10.4018V10.1582L194.184 9.90761L194.231 9.60695L194.436 9.2371L194.574 8.89211L194.593 8.79263L194.772 8.60962ZM183.035 9.00753C183.224 9.05918 183.424 8.9951 183.624 9.01806L183.937 9.08564H184.251L184.525 9.13028L184.877 9.10541L184.97 9.13571H185.089L185.333 9.16409L185.485 9.14622C185.649 9.1408 185.812 9.14814 185.971 9.15515L186.276 9.13922L186.414 9.15515L186.642 9.13188L186.927 9.12997L187.234 9.1L187.36 9.12997L187.722 9.12104L187.814 9.13538L188.194 9.07161L188.409 9.11244L188.515 9.09267L188.641 9.12997L188.727 9.11944L188.985 9.13538C189.299 9.18993 189.598 9.30982 189.864 9.48738L190.072 9.65638L190.394 9.94651L190.541 10.259V10.3553L190.586 10.5223L190.558 10.83C190.541 11.1591 190.519 11.557 190.586 11.8701L190.663 12.0837C190.712 12.2418 190.747 12.4408 190.747 12.6225L190.708 12.8056L190.632 13.1735C190.617 13.346 190.593 13.5204 190.574 13.691L190.599 14.0449C190.61 14.2601 190.525 14.438 190.41 14.5907L190.076 14.8076L189.912 14.7135L189.745 14.7154L189.634 14.5286L189.519 14.6921L189.394 14.7655L189.249 14.9485H189.129L189.058 14.9982L188.925 15.0212H188.922L188.588 14.8949L188.517 14.7492L188.422 14.797L188.188 14.5072L188.116 14.4345L188.008 14.2317L187.945 14.1482L187.955 13.9543L187.939 13.6307L187.955 13.3871L187.987 13.2787L187.968 13.1735L187.95 12.8215L188.079 12.5728L188.095 12.2705L188.134 12.0394L188.102 11.8436C188.049 11.607 187.955 11.5359 187.734 11.4667L187.51 11.454C187.349 11.433 187.174 11.4062 187.008 11.3992L186.78 11.4116L186.701 11.3813L186.476 11.3921L186.031 11.3564L185.698 11.3778C185.476 11.3778 185.237 11.3654 184.999 11.3654C184.831 11.3654 184.677 11.4116 184.509 11.4151C184.297 11.4221 184.097 11.3921 183.873 11.4151L183.687 11.4597L183.399 11.4345L183.143 11.4505L183.02 11.4365L182.899 11.4543L182.608 11.4667L182.426 11.4613C182.014 11.5219 181.616 11.6109 181.194 11.6517L180.858 11.7547L180.448 11.7601L180.298 11.7014L180.119 11.6641L179.907 11.4524L179.771 11.1253C179.704 10.999 179.609 10.9011 179.611 10.7376L179.639 10.4621L179.57 10.2026L179.701 10.0336L179.907 9.79889L180.321 9.5907L180.616 9.34709C180.777 9.29927 180.962 9.3098 181.13 9.276C181.377 9.22626 181.623 9.19597 181.878 9.15484L182.153 9.08757L182.502 9.07864L182.758 9.0359L183.035 9.00753ZM185.728 11.2289L185.76 11.2608L185.728 11.2289Z" fill="white"/>
<path d="M184.33 13.2341L184.611 13.2714C184.782 13.3747 184.876 13.5683 185.003 13.7194L185.32 14.0752L185.523 14.3934L185.68 14.7508L185.707 15.0228L185.779 15.3678L185.781 15.6382L185.827 15.7485L185.882 15.8658L186.152 15.9066L186.444 16.0278L186.719 16.017L186.914 16.0294L187.129 15.9956L187.25 16.0135L187.317 15.9761L187.368 15.9886L187.419 15.9672L187.661 15.9529L188.071 15.9816L188.186 16.0045L188.243 16.0399L188.577 16.0613L188.697 16.081L188.755 16.0205L188.641 15.9261L189.193 16.0026L189.263 16.0648L189.337 15.9761L189.459 16.001L189.58 15.9956L190.022 16.0489C190.188 16.0702 190.363 16.1184 190.503 16.1984L190.835 16.4063L190.978 16.4381L191.049 16.639L191.187 16.7194C191.36 16.815 191.351 16.9754 191.341 17.1549L191.358 17.2971L190.917 17.2847L190.984 17.5939L190.878 17.7365L190.869 17.8911L190.625 18.1277L190.441 18.1883L190.409 18.2858L190.358 18.3659L190.328 18.4778L190.227 18.6165L190.213 18.6238L190.204 18.627L189.844 18.611L189.701 18.5667L189.504 18.6079L189.174 18.5543L189.089 18.5154L188.943 18.5313L188.884 18.4672L188.771 18.5259L188.577 18.4851L188.497 18.4513L188.32 18.4921L188.108 18.4867L188.011 18.5116L187.751 18.4743L187.389 18.4781L187.25 18.4513L187.145 18.4653L187.011 18.4264L186.856 18.4711L186.64 18.4548L186.474 18.494L186.357 18.4991L186.188 18.5403L185.972 18.5189L185.866 18.5259L185.792 18.5116L185.712 18.5348L185.396 18.5189C185.184 18.5154 184.973 18.5578 184.77 18.5543L184.696 18.5403L184.449 18.5667H184.04L183.867 18.6273L183.782 18.6165L183.32 18.677H183.157L182.961 18.7287L182.701 18.7392L182.268 18.8904L181.881 18.9669L181.771 19.0131L181.511 18.9685L181.349 18.9493L181.114 18.862L180.967 18.8495L180.601 18.7555L180.186 18.6592L179.808 18.3375L179.737 18.1883L179.606 17.9944L179.585 17.6459L179.619 17.5535L179.642 17.4023L179.727 17.2563L179.788 17.1335L180.061 17.0111L179.979 16.7407L180.022 16.6323L180.135 16.5185L180.357 16.4987L180.545 16.4136H180.72L180.831 16.3658L181.103 16.3176L181.374 16.3782C181.554 16.3728 181.736 16.3301 181.909 16.3017L182.148 16.2838L182.356 16.2322L182.503 16.2213L182.644 16.1824L182.777 16.1856L183.065 16.1254C183.243 15.9637 183.173 15.4854 183.173 15.2399L183.192 15.0337L183.015 14.7295L182.957 14.4629L183.039 14.0912C183.095 13.8814 183.244 13.7178 183.409 13.5791L183.526 13.4707L183.683 13.4369L183.904 13.3266L184.33 13.2341ZM188.987 15.9905L188.939 16.0473L188.987 15.9905ZM181.361 19.2073L181.769 19.2392L181.981 19.3763L182.063 19.4155C182.224 19.5293 182.361 19.675 182.508 19.7994L182.715 19.9718L182.84 20.3755L182.803 20.5301L182.798 20.6886L182.727 20.8646L182.725 20.9979L182.66 21.1669L182.651 21.302L182.615 21.4742L182.621 21.6113L182.602 22.0523L183.054 22.3832L183.218 22.3864L183.34 22.4008L183.444 22.3817L183.554 22.3883L183.628 22.3724L183.72 22.3868L183.858 22.3635L184.072 22.4008C184.342 22.4008 184.616 22.351 184.892 22.3456L185.136 22.367L185.227 22.351L185.454 22.36L185.698 22.337C186.021 22.3297 186.328 22.3192 186.643 22.2729L187.053 22.2675L187.163 22.2337L187.405 22.2318L187.737 22.184L188.012 22.1926L188.136 22.175L188.357 22.1999C188.536 22.184 188.691 22.168 188.866 22.1428L188.987 22.1055L189.184 22.125L189.326 22.095L189.596 22.0842L190.052 22.0504L190.142 22.0274L190.278 22.0325L190.478 21.9987C190.74 21.9955 191.003 22.0325 191.27 22.0185L191.709 21.9917L191.831 21.9649L192.215 21.9401L192.396 21.935L192.485 21.9509L192.699 21.8709L192.991 21.8262L193.277 21.8371L193.44 21.8192L193.721 21.8709L194.131 21.8849L194.329 21.8725L194.643 21.8957L194.815 21.9295L195.166 21.9206L195.636 21.9614L196.078 21.9633L196.202 21.9404L196.223 21.8957L196.232 21.8926L196.308 21.9085L196.394 21.8957L196.56 21.9668L196.689 21.9136H196.78L196.886 21.8941L197.013 21.9206L197.206 21.9314L197.479 21.9369L197.663 21.9882L197.785 21.9901L198.091 22.065C198.271 22.1396 198.467 22.3297 198.522 22.5165L198.535 22.593L198.467 22.6377L198.356 22.8153L198.301 22.8047L198.271 22.8347L198.33 22.9202L198.294 22.9699L198.179 22.9345L198.029 22.9485L197.911 22.9058L197.78 22.9718L197.801 22.9948L197.951 23.0056L198.045 23.0767L198.075 23.0872L198.259 23.0624L198.315 23.0659L198.36 23.0519L198.421 23.0997L198.513 23.1567L198.471 23.1816L198.365 23.196L197.935 23.203L197.928 23.2349L198.036 23.466V23.4944L198.015 23.717L197.911 23.7756L197.858 24.06L197.879 24.1133L197.882 24.1311L197.821 24.1525L197.767 24.2092L197.52 24.3285L197.536 24.5064L197.506 24.6094L197.13 24.6878L196.81 24.6629L196.614 24.6502L196.393 24.5293L196.28 24.501L196.189 24.4583L195.984 24.494L195.921 24.4567L195.806 24.4299L195.787 24.4155L195.836 24.3907L196.083 24.3996L195.972 24.2663H195.87L195.652 24.2414L195.53 24.2182L195.136 24.2041L194.949 24.2182L194.83 24.2022L194.588 24.2217L194.33 24.2112L194.262 24.245L194.147 24.2271L193.828 24.236L193.698 24.3693L193.217 24.4369L193.079 24.4031L192.933 24.3836L192.833 24.3215L192.584 24.3247L192.567 24.2201L192.413 24.1882L192.151 24.1933C191.989 24.1828 191.823 24.1487 191.66 24.1487L191.513 24.1968L191.354 24.1684L191.224 24.2092L191.041 24.1719L190.766 24.2877L190.656 24.2896L190.584 24.2523L190.34 24.2414L190.126 24.2663L189.778 24.2644L189.488 24.3196L189.232 24.2982L189.064 24.2644L188.97 24.2877L188.838 24.3017L188.728 24.3639L188.348 24.3907L188.069 24.4442L187.997 24.4388L187.737 24.4618L187.597 24.5134L187.444 24.5453L187.313 24.5367L187.173 24.5596L186.945 24.5542L186.917 24.567L186.98 24.6715L187.389 24.6486L187.795 24.6432L187.399 24.7073L187.097 24.7465L186.903 24.7535L186.793 24.7784L186.643 24.7838L186.231 24.8565C185.682 24.9081 185.166 24.9458 184.634 25.0149L184.459 25.0647L184.342 25.0717L184.116 25.1447L183.796 25.1855L183.612 25.2353L183.296 25.2193L183.126 25.2531L182.789 25.2512L182.621 25.292L182.536 25.2815L182.227 25.2745L182.059 25.3118L181.803 25.3242L181.647 25.2617L181.53 25.2598L181.419 25.2174L181.089 25.1693L180.868 25.0644L180.666 25.0306L180.364 24.7104L180.29 24.6234L180.232 24.4936L180.111 24.3247L180.019 24.0453L179.983 23.9529L179.977 23.8304L179.905 23.5706L179.924 23.2629L179.901 23.0515L179.896 22.712L179.885 22.3153L179.896 22.1942L179.885 21.78C179.905 21.604 179.99 21.4742 180.018 21.3036L180.048 21.09C180.057 20.9035 180.027 20.7221 180.059 20.5407L180.108 20.4303L180.149 20.2703L180.271 20.1494L180.426 19.9521L180.594 19.799L180.651 19.705L180.882 19.5806L181.154 19.3367L181.361 19.2073ZM192.838 24.1694L192.85 24.1943L192.838 24.1694Z" fill="white"/>
<path d="M186.747 24.6296L186.541 24.7419C186.581 24.8146 186.979 24.658 186.747 24.6296ZM81.5297 29.4266C82.2085 29.4266 82.7297 29.601 83.0919 29.946C83.4506 30.2891 83.6328 30.6748 83.6328 31.1018C83.6328 31.4519 83.3923 31.8664 82.91 32.3446C82.91 32.35 83.0884 32.4674 83.4471 32.6985C83.8043 32.9297 83.9827 33.3298 83.9827 33.906C83.9827 34.6616 83.707 35.1845 83.1591 35.481C82.6096 35.7782 82.127 35.9258 81.71 35.9258H79.1687V29.4266H81.5297ZM80.5791 34.7949H81.5633C81.8498 34.7949 82.09 34.7024 82.2826 34.514C82.4772 34.3272 82.5761 34.1084 82.5761 33.854C82.5761 33.6018 82.4823 33.3812 82.2915 33.1946C82.1042 33.0078 81.8586 32.9153 81.5544 32.9153H80.5791V34.7949ZM80.5861 31.8255H81.5123C81.6606 31.8255 81.8127 31.7755 81.9718 31.6706C82.1289 31.5657 82.2066 31.4091 82.2066 31.1958C82.2066 31.0058 82.1359 30.8528 81.9927 30.7389C81.8546 30.6258 81.6815 30.5649 81.5034 30.5668H80.5861M90.3642 29.4266V33.8967C90.3642 34.0944 90.4507 34.3147 90.624 34.5583C90.7936 34.8019 91.0781 34.925 91.4723 34.925C91.8541 34.925 92.1387 34.8019 92.3206 34.5583C92.5044 34.3147 92.5944 34.0944 92.5944 33.897V29.4269H94.07V33.6729C94.07 34.2261 93.8438 34.7665 93.3897 35.2964C92.9337 35.8263 92.294 36.0913 91.4723 36.0913C90.6595 36.0913 90.0267 35.8228 89.5711 35.291C89.1167 34.7611 88.8885 34.2188 88.8885 33.6729V29.4266M101.467 30.4762C101.253 30.4762 101.062 30.5419 100.891 30.6787C100.719 30.8139 100.634 30.965 100.634 31.1305C100.634 31.4417 100.816 31.6623 101.182 31.7902C101.548 31.9199 101.898 32.0605 102.228 32.2097C102.618 32.3805 102.994 32.5814 103.352 32.8108C103.707 33.0384 103.904 33.4634 103.937 34.0912C103.966 34.5998 103.732 35.0605 103.236 35.4763C102.744 35.8939 102.158 36.1005 101.483 36.0932C100.665 36.09 100.044 35.8477 99.6163 35.3714C99.1923 34.9001 98.9784 34.4148 98.9784 33.9187H100.446C100.446 34.1426 100.53 34.3613 100.702 34.5711C100.873 34.7812 101.126 34.8842 101.458 34.8842C101.783 34.8842 102.029 34.7863 102.2 34.5835C102.368 34.3826 102.446 34.2264 102.435 34.118C102.419 33.9098 102.352 33.7373 102.234 33.6002C102.117 33.4634 101.921 33.3356 101.647 33.2198C101.114 32.9934 100.576 32.7776 100.034 32.5726C99.4556 32.3539 99.1657 31.8915 99.1657 31.1821C99.1657 30.6787 99.3954 30.2288 99.8533 29.8414C100.311 29.4502 100.851 29.2579 101.476 29.2579C102.154 29.2579 102.704 29.4572 103.117 29.8573C103.531 30.2591 103.757 30.6965 103.79 31.1748H102.29C102.29 31.0007 102.207 30.8426 102.041 30.6965C101.884 30.5523 101.679 30.4735 101.467 30.4762ZM112.343 29.4266L115.072 35.9258H113.663L113.046 34.3897H110.146L109.521 35.9258H108.114L110.859 29.4266H112.343ZM110.663 33.2052H112.523L111.597 30.8846M121.378 29.4266L123.934 33.6997V29.4266H125.367V35.9258H123.833L121.276 31.6457V35.9258H119.842V29.4266M139.144 29.4339L140.876 34.2261L142.609 29.4339H144.446V35.9258H143.037V31.765L141.554 35.9258H140.199L138.715 31.8361V35.9258H137.308V29.4342M150.786 29.4266V33.8967C150.786 34.0944 150.87 34.3147 151.043 34.5583C151.215 34.8019 151.498 34.925 151.892 34.925C152.275 34.925 152.56 34.8019 152.742 34.5583C152.924 34.3147 153.018 34.0944 153.018 33.897V29.4269H154.491V33.6729C154.491 34.2261 154.265 34.7665 153.809 35.2964C153.355 35.8263 152.719 36.0913 151.892 36.0913C151.081 36.0913 150.446 35.8228 149.992 35.291C149.538 34.7611 149.31 34.2188 149.31 33.6729V29.4266M161.886 30.4762C161.676 30.4762 161.485 30.5419 161.313 30.6787C161.14 30.8139 161.053 30.965 161.053 31.1305C161.053 31.4417 161.235 31.6623 161.605 31.7902C161.971 31.9199 162.319 32.0605 162.649 32.2097C163.039 32.3805 163.416 32.5814 163.775 32.8108C164.129 33.0384 164.325 33.4634 164.36 34.0912C164.388 34.5998 164.153 35.0605 163.66 35.4763C163.164 35.8939 162.58 36.1005 161.903 36.0932C161.087 36.09 160.465 35.8477 160.035 35.3714C159.611 34.9001 159.398 34.4148 159.398 33.9187H160.866C160.866 34.1426 160.951 34.3613 161.124 34.5711C161.294 34.7812 161.547 34.8842 161.879 34.8842C162.204 34.8842 162.451 34.7863 162.621 34.5835C162.789 34.3826 162.867 34.2264 162.856 34.118C162.84 33.9098 162.773 33.7373 162.654 33.6002C162.538 33.4634 162.342 33.3356 162.066 33.2198C161.533 32.9928 160.995 32.777 160.452 32.5726C159.878 32.3539 159.59 31.8915 159.59 31.1821C159.59 30.6787 159.818 30.2288 160.274 29.8414C160.732 29.4502 161.273 29.2579 161.896 29.2579C162.575 29.2579 163.125 29.4572 163.538 29.8573C163.953 30.2591 164.178 30.6965 164.212 31.1748H162.711C162.711 31.0007 162.628 30.8426 162.462 30.6965C162.305 30.5517 162.099 30.4729 161.886 30.4762ZM173.845 29.4339V30.6608H170.749V31.9553H173.759V33.1484H170.749V34.7095H173.932V35.9258H169.3V29.4342M180.339 29.4266V33.8967C180.339 34.0944 180.424 34.3147 180.596 34.5583C180.767 34.8019 181.052 34.925 181.448 34.925C181.829 34.925 182.112 34.8019 182.296 34.5583C182.478 34.3147 182.57 34.0944 182.57 33.897V29.4269H184.045V33.6729C184.045 34.2261 183.819 34.7665 183.363 35.2964C182.907 35.8263 182.269 36.0913 181.448 36.0913C180.634 36.0913 180 35.8228 179.546 35.291C179.092 34.7611 178.864 34.2188 178.864 33.6729V29.4266M190.744 29.4339L192.479 34.2261L194.211 29.4339H196.047V35.9258H194.639V31.765L193.156 35.9258H191.801L190.316 31.8361V35.9258H188.909V29.4342" fill="white"/>
<path d="M36.9026 34.283H70.9761V0H36.9026V34.283ZM64.7486 28.0203H43.1304V6.26424H64.7486" fill="white"/>
<path d="M0 39.9998H34.0681V5.71143H0V39.9998ZM25.902 31.7721H8.17854V13.9442H25.902" fill="white" fill-opacity="0.6"/>
</svg>
