<svg width="200" height="40" viewBox="0 0 200 40" fill="none" xmlns="http://www.w3.org/2000/svg">
<g clip-path="url(#clip0_52_496)">
<path d="M96.4227 13.8152L96.4439 13.5394L96.4154 13.2675L96.4208 13.0095L96.3783 12.8281L96.3979 12.494L96.3783 12.0868L96.3802 11.8984C96.359 11.5872 96.3042 11.276 96.2601 10.9769L96.2316 10.659C96.2008 10.4584 96.1572 10.26 96.101 10.065C96.0535 9.90148 95.9844 9.74302 95.9299 9.58678L95.8501 9.15986L95.7655 8.86844L95.7246 8.64589L95.7018 8.51963L95.4438 8.36148L95.3272 8.22278L95.1327 7.90809L94.8342 8.06974L94.7157 8.17113L94.5971 8.17495L94.4628 8.25466C94.2261 8.28144 94.4045 8.09111 94.3075 7.99163L94.1427 7.95783L94.06 7.92595L93.4732 8.24796L93.3179 8.37934L93.0793 8.55725L92.86 8.85408C92.7894 8.98193 92.7346 9.07631 92.7292 9.24338L92.7894 9.64703L92.8106 9.80359L92.8778 10.1148L92.7311 10.2694L92.4307 10.3086C92.0932 10.3533 91.7431 10.3603 91.404 10.3743L91.289 10.3654L90.9531 10.3992L90.4762 10.4046C90.2851 10.4279 90.1086 10.4314 89.916 10.4524L89.6276 10.4811C89.377 10.4843 89.1418 10.4811 88.8909 10.4811L88.7302 10.4703L88.6009 10.4917L88.4739 10.4846C88.3129 10.4916 88.1348 10.5095 87.9773 10.5114C87.6097 10.5184 87.2916 10.4971 86.9364 10.5328C86.6236 10.5612 86.3198 10.6284 86.0086 10.6552C85.7982 10.6696 85.5916 10.6571 85.3846 10.6766C85.1302 10.6998 84.883 10.7477 84.6321 10.7745L84.4074 10.7725C84.2309 10.7831 84.0452 10.8242 83.8633 10.8347H83.5433L83.1456 10.8809L82.8718 10.8829C82.6278 10.9007 82.3664 10.9629 82.1031 10.9291L82.0077 10.8079L81.5514 10.7301V10.5806L81.746 10.3797L81.9228 9.98119L81.8838 9.78573L81.8715 9.61356L81.7884 9.46372L81.7073 9.25582C81.6294 9.04443 81.5923 8.76864 81.4703 8.58562L81.2973 8.43959L81.124 8.19791L80.9877 8.15167L80.8182 8.08792L80.4065 8.02894L80.2421 7.92595L79.9258 7.88672L80.083 8.04678L79.5618 8.13924L79.2544 8.25466L79.0529 8.20684L78.915 8.32067L78.8478 8.49476L78.6606 8.966C78.5864 9.13307 78.4574 9.2842 78.3972 9.4551L78.3 9.81794L78.2451 9.99744L78.2382 10.1575L78.1976 10.5752C78.1868 10.8153 78.2169 11.0448 78.2436 11.2702L78.2309 11.4966L78.2594 11.7861C78.2702 11.9998 78.2258 12.2038 78.247 12.4139L78.3019 12.6094L78.3107 12.7678L78.3725 13.1556C78.3919 13.4329 78.3814 13.6906 78.3884 13.975L78.4115 14.1851L78.4096 14.3611L78.4768 14.6082L78.5421 14.891L78.5915 15.0083L78.6799 15.4563L78.7807 15.874C78.8212 16.0398 78.8992 16.2387 78.8478 16.4182L78.8444 16.4661L78.8548 16.4718L79.0934 16.4272L79.4965 16.6319L79.4451 16.8433L79.7208 16.9625L79.7066 17.2042L79.6556 17.2772L79.6625 17.2986L79.8393 17.4283L79.9312 17.5616L80.1537 17.6738C80.5957 17.8141 81.1699 17.7963 81.6047 17.6579L82.0537 17.4675L82.0819 17.4159L82.1985 17.3572L82.5131 17.3002L82.7093 17.1991C82.8877 17.1812 83.0572 17.231 83.2198 17.2182L83.3649 17.1758L83.607 17.1937L83.734 17.1509L83.9055 17.1331L83.9746 17.0744L84.1352 17.1136L84.2962 17.1047L84.5028 17.1334L84.6796 17.0888L84.7943 17.1366L85.0313 17.1474L85.224 17.0604L85.4642 17.0833L85.6252 17.0441L85.8159 17.0674L86.0244 17.0406L86.1534 17.0604L86.2808 17.039L86.6978 17.1261L86.9858 17.0585L87.1449 17.062L87.2916 17.039L87.6414 17.1439L87.8287 17.0336L87.9808 17.0888L88.1519 17.0744L88.253 17.1315L88.504 17.1723C88.7388 17.158 88.9758 17.1509 89.2106 17.1653L89.594 17.1937C90.2191 17.1849 90.8442 17.1807 91.4693 17.1809L91.9145 17.2077L92.3473 17.1972C92.5083 17.2042 92.6778 17.2434 92.8458 17.2577L93.0033 17.2539C93.2292 17.2699 93.489 17.2912 93.7242 17.2753L93.8991 17.2469C94.9258 17.1653 95.7899 17.3107 96.3114 16.3382C96.4543 16.0698 96.428 15.6463 96.3609 15.346L96.2829 15.1346L96.2988 15.0224L96.3042 14.7823L96.3273 14.5942L96.3926 14.4252L96.4211 14.2186L96.4756 13.9912L96.4227 13.8152ZM93.0987 14.1051L93.072 14.2508L93.0156 14.6952L92.86 14.736C92.6956 14.7647 92.5207 14.7574 92.3473 14.7504L91.9956 14.7485L91.7713 14.7166L91.5963 14.7396L91.3562 14.7217C91.0855 14.7236 90.8171 14.7361 90.5396 14.7504L90.2994 14.7788L89.9299 14.7679L89.4793 14.7714L89.324 14.7501C89.0569 14.7395 88.8113 14.7628 88.5534 14.7628L88.2669 14.7501L87.8518 14.7877L87.7051 14.8196H87.4206L87.0654 14.8763L86.6959 14.839L86.521 14.8763L86.2843 14.8534L86.1518 14.8888L85.9271 14.9191L85.5456 14.9477C85.3793 14.9707 85.2151 15.015 85.0472 15.0294L84.8881 15.0224C84.7255 15.0204 84.57 15.017 84.4074 15.0243L84.0221 15.097L83.773 15.1024L83.6244 15.0775L83.4178 15.1132C83.1263 15.1024 82.8348 15.0881 82.534 15.1024L82.3575 15.1432L81.9367 15.081L81.7989 15.0507L81.6611 14.7504C81.6259 14.562 81.5923 14.0196 81.6737 13.8666C81.7954 13.6389 82.285 13.5605 82.5359 13.5445C82.7039 13.5324 82.8804 13.4948 83.0467 13.4789L83.4321 13.4559L83.561 13.4202L83.8136 13.4237L84.0877 13.3724L84.3596 13.3743C84.5098 13.3669 84.6812 13.3456 84.8403 13.3281C85.0028 13.3102 85.1708 13.2694 85.3371 13.2531L85.5279 13.2569L85.7009 13.2302L85.8318 13.2282L86.1534 13.1804L86.3777 13.1836L86.68 13.1552L86.9221 13.1587L87.1129 13.1249C87.2916 13.1058 87.463 13.0701 87.6414 13.0663L87.9314 13.0736C88.3322 13.0663 88.76 13.0503 89.145 13.0344C89.4102 13.0239 89.6964 13.0379 89.9635 13.0095L90.3152 13.0382C90.4847 13.0309 90.6685 13.0165 90.8419 13.029L91.0345 13.0577L91.448 13.0698L91.6762 13.1036C91.8369 13.1055 91.9959 13.1055 92.1547 13.1109C92.3473 13.1323 92.5983 13.2158 92.7574 13.3099L93.0578 13.6746L93.0987 14.1051ZM91.5472 18.4368L91.5916 18.5436L91.6886 18.5382L91.7415 18.5685L91.8651 18.5844L92.0758 18.6272C92.2383 18.6253 92.4503 18.4333 92.597 18.5436L92.6994 18.8156C92.8886 18.8405 92.9028 18.5879 92.9573 18.5879L93.0492 18.8265L93.3249 18.7624L93.6592 18.7694L93.8693 18.7464L94.2334 18.7196L94.6098 18.5918L94.7936 18.5436L94.9879 18.485L95.3256 18.6291C95.4898 18.6485 95.626 18.5774 95.7902 18.5879L96.1296 18.7215L96.4195 18.8156L96.7164 18.8797L96.9319 19.1054L97.2022 19.3206L97.2909 19.4702L97.3631 19.5553L97.4075 19.6781L97.4604 19.7795L97.5099 19.9803L97.5983 20.37C97.6002 20.537 97.5504 20.6614 97.5187 20.8055L97.3844 21.2519C97.2519 21.5273 96.8577 21.8404 96.5573 21.8778L96.1242 21.828L95.8539 21.7993L95.5766 21.7177L95.1666 21.6217C94.8202 21.5273 94.5249 21.3443 94.1557 21.2946C93.9222 21.2608 93.6855 21.2946 93.4523 21.2872L93.2419 21.2426C93.0723 21.2209 92.902 21.205 92.7314 21.1948C92.5245 21.1929 92.316 21.1916 92.1071 21.1916C91.9075 21.1878 91.7133 21.1501 91.5155 21.147L91.0824 21.138C90.9198 21.1132 90.775 21.0401 90.6178 21.0207C90.4638 21.0009 90.2835 21.0472 90.1229 21.0258L89.8491 20.9725L89.5943 20.9636C89.3966 20.9566 89.1738 20.9317 88.9919 20.9939L88.6966 21.4084L88.6668 21.579L88.4954 21.9504C88.4564 22.1229 88.4653 22.3063 88.4564 22.4947C88.4387 22.8451 88.4583 23.2274 88.49 23.5756C88.5078 23.7465 88.6244 23.9084 88.6878 24.065C88.7568 24.2212 88.7815 24.3759 88.817 24.5573L88.8576 24.7193L88.8418 25.0572L88.8221 25.3952L88.7391 25.5157L88.6668 25.656L88.594 25.6975L88.5376 25.619L88.2429 25.4162L88.151 25.6742L88.0534 25.7593L87.9317 25.7469L87.785 25.7756L87.58 25.7399C87.4101 25.7737 87.3379 25.9375 87.2016 26.0281L86.9985 26.0386L86.8908 25.9924L86.8217 26.0297L86.6186 26.0456C86.4452 26.0227 86.3552 25.8094 86.2862 25.6831L86.2703 25.6279L86.1962 25.5387L86.1556 25.121L86.1645 24.8988C86.1328 24.6143 86.0849 24.3583 86.0495 24.0755L86.0124 23.7857L86.0228 23.6559L86.0178 23.5102L86.0355 23.382L86.0247 22.9465C86.0247 22.6318 86.0355 22.3133 86.0143 21.997L86 21.5666L85.7136 21.2056C85.5529 21.1148 85.2259 21.2037 85.0494 21.2197L84.7452 21.227L84.3282 21.2716L84.1675 21.2643L83.8617 21.2962C83.6884 21.2962 83.5189 21.2837 83.3367 21.2872L83.1583 21.3159L82.9038 21.3086L82.7571 21.3265L82.439 21.2786L82.3826 21.337L82.2431 21.3762L81.9602 21.3906C81.7637 21.417 81.5733 21.4652 81.3803 21.4935L80.9177 21.5433C80.5888 21.6058 80.2903 21.732 79.9702 21.7958C79.7776 21.835 79.6061 21.8758 79.4157 21.9202L79.0161 21.9826L78.6995 21.9061L78.6235 21.8494L78.4381 21.8475L78.4188 21.7834L78.3779 21.7247L78.454 21.4505L78.0864 21.497L78.0015 21.4438L77.8887 21.3902L77.8285 21.0577L77.7508 21.0115L77.6272 20.8214C77.5968 20.6454 77.7508 20.5297 77.7949 20.3891L77.7822 20.1276L77.9362 19.8949L78.0794 19.8152L78.1713 19.717L78.2809 19.6299L78.6327 19.2476L78.7651 19.1641L78.8497 19.0627L78.9312 18.9897L78.9505 19.0592L78.8605 19.1676L78.8339 19.2636L78.7404 19.3382L78.6111 19.5145V19.5588L78.7068 19.5464L78.9683 19.4236L79.0459 19.4555L79.327 19.422L79.5054 19.3347L79.7281 19.1198L79.6752 19.5161L79.8606 19.518L80.1505 19.5751L80.5656 19.5234L80.6949 19.5588L81.11 19.5518L81.2532 19.5767L81.4281 19.5129L81.5432 19.511L82.022 19.4539C82.3753 19.422 82.72 19.3988 83.0575 19.342L83.2236 19.2671C83.3845 19.2495 83.5417 19.2798 83.7043 19.2709L83.9429 19.2282L84.1019 19.2174L84.2008 19.189H84.4394L84.6517 19.1552C84.8166 19.1465 84.981 19.1316 85.1448 19.1105L85.3301 19.0573L85.4239 18.9862L85.544 18.9671L85.6606 18.8012L85.795 18.9186L85.9769 18.9294L86.3622 18.8762L86.4718 18.7569L86.6962 18.8494C86.8606 18.8637 87.0337 18.8016 87.1927 18.8016L87.5676 18.894C87.7565 18.9454 88.0024 18.9454 88.2178 18.9364L88.5236 18.8937L88.7622 18.8867L89.1634 18.8156L89.4194 18.7818L89.5468 18.7837C89.7287 18.7569 89.9109 18.7002 90.107 18.6967L90.3155 18.7091L90.5557 18.6664L90.7785 18.6594L91.0364 18.6042C91.2221 18.5739 91.4271 18.5883 91.5472 18.4371M145.043 8.67936L145.262 8.6918L145.449 8.834L145.633 8.95675L145.76 8.99756L145.819 9.06867L145.737 9.0811L145.729 9.33713L145.822 9.43151L146.02 9.67159C146.184 9.9171 146.294 10.2015 146.386 10.484C146.501 10.8414 146.462 11.2683 146.642 11.592L146.913 11.7182L147.133 11.6382L147.347 11.686C147.807 11.768 148.235 11.8694 148.639 12.0578L149.016 12.2835L149.072 12.369L149.185 12.4933L149.108 12.7656L149.123 12.8492L149.04 13.0232L148.754 13.066L148.712 13.2206L148.6 13.2365L148.588 13.3577L148.473 13.395L148.445 13.4288L148.63 13.7754L148.56 13.9409L148.591 14.062L148.386 14.2804L147.863 14.275L147.475 14.252L147.314 14.2253C147.019 14.1988 146.74 14.2731 146.58 14.5026L146.455 14.8352C146.352 15.2 146.328 15.6266 146.305 16.0356L146.308 16.3111C146.252 16.6631 146.024 17.1682 145.623 17.2093L145.075 17.0244L144.93 16.8838L144.801 16.9246L144.732 16.8927L144.527 16.8429L144.38 16.8876L144.269 16.8748L144.161 16.8838L143.919 16.7307L143.846 16.6029L143.746 16.5333C143.647 16.4036 143.684 16.2633 143.684 16.0997L143.64 15.888L143.666 15.7458V15.6176L143.723 15.2567L143.712 15.0967L143.794 14.8888L143.742 14.7571L143.785 14.5613L143.781 14.437L143.829 14.252L143.804 14.0104L143.859 13.6351L143.814 13.395L143.834 13.2031L143.781 13.1157L143.723 12.7937L143.735 12.3887L143.717 12.2784L143.737 12.1646C143.746 11.9886 143.739 11.8107 143.739 11.6293C143.739 11.2913 143.621 10.9731 143.583 10.6568L143.599 10.5108L143.546 10.2477L143.562 10.1463L143.52 10.0077L143.541 9.79945L143.495 9.66235L143.435 9.23414C143.514 9.04188 143.597 9.04029 143.781 8.99565L144.027 8.97812L144.251 9.05974L144.557 8.93698L144.594 9.02786L144.746 9.02593L144.935 8.8748L144.923 8.79288L145.043 8.67936ZM138.117 10.8526L138.119 10.8899ZM140.877 11.4329L140.842 11.1252L140.847 10.9814L140.799 10.814L140.718 10.3928L140.697 10.16L140.605 9.85939L140.541 9.63874L140.253 9.28164L140.216 9.20672L139.833 8.96473L139.728 8.9523L139.628 8.90446L139.26 8.9523L139.034 8.94527L138.931 8.8815H138.733L138.551 9.04859L138.301 9.19078L138.223 9.33841L138.046 9.60303L138.332 10.0016L138.408 10.1865L138.502 10.6542L138.099 10.6434L137.86 10.6453L137.587 10.6061L137.541 10.6134L137.53 10.6558L137.993 10.8462L137.827 10.857L137.68 10.9068L137.47 10.9192L137.071 10.9014C136.862 10.8994 136.641 10.9157 136.441 10.9208L136.328 10.9017C136.139 10.8959 135.821 10.9351 135.672 10.8411C135.574 10.777 135.83 10.6935 135.669 10.6772L135.508 10.6861L135.25 10.6415L135.04 10.6542L134.847 10.6415L134.589 10.6613L134.187 10.6399L133.976 10.6613L133.783 10.6453L133.66 10.6613L133.199 10.615L133.089 10.6278C132.889 10.6096 132.681 10.6278 132.481 10.6345L132.062 10.6205L131.868 10.6185L131.787 10.5883L131.684 10.5739L131.567 10.3641L131.573 10.2025L131.527 10.0191L131.507 9.78446L131.394 9.54819L131.32 9.39165L130.984 9.12477L130.876 9.02913L130.73 8.95261L130.533 8.87928L130.405 8.74249L130.145 8.68925L130 8.67841L129.578 8.90446L129.381 9.15858L129.095 9.45733L128.92 9.60303L128.699 9.98374L128.528 10.2557L128.494 10.4904L128.425 10.8175C128.434 11.0595 128.443 11.3012 128.469 11.5467L128.526 11.7584L128.519 11.9379L128.54 12.1458L128.501 12.4713L128.508 12.9372L128.494 13.0369L128.512 13.2165L128.48 13.4601L128.499 13.8315L128.459 14.0929C128.454 14.2833 128.487 14.4596 128.494 14.6461L128.454 14.8221L128.448 15.1282L128.418 15.2557L128.459 15.3948L128.469 15.4962L128.644 15.9904C128.747 16.1609 128.89 16.2483 129.047 16.3621L129.263 16.5327L129.563 16.643L129.744 16.7036L129.986 16.7246L130.27 16.6963C130.472 16.7122 130.756 16.7479 130.963 16.7122H131.144L131.562 16.6982C131.81 16.6893 132.057 16.6625 132.304 16.6555L132.513 16.6679C132.7 16.6571 132.886 16.577 133.061 16.5735C133.34 16.5646 133.607 16.5452 133.882 16.5397L134.041 16.5595L134.176 16.5327L134.329 16.5522L134.492 16.5238L134.851 16.5024L135.134 16.5133C135.37 16.4919 135.611 16.4919 135.851 16.4846L136.054 16.4954L136.139 16.5273L136.247 16.5308L136.459 16.5665L136.844 16.5879L137.053 16.563L137.168 16.5824L137.535 16.5879L137.634 16.6019L137.958 16.6127L138.325 16.6073L138.456 16.6446L138.631 16.6427L138.859 16.6979L139.06 16.7246L139.246 16.7779L139.47 16.8047L139.681 16.7814C139.875 16.7814 140.172 16.8152 140.292 16.6711L140.269 16.6322L139.951 16.401L140.195 16.1109L140.384 16.0758L140.462 15.976L140.642 15.6291L140.709 15.3517L140.725 15.1796L140.773 14.934L140.789 14.5801L140.778 14.4006L140.812 13.931L140.838 13.7515L140.842 13.3762L140.826 13.2997L140.868 13.1524C140.879 12.7666 140.858 12.361 140.858 11.9679C140.858 11.7938 140.874 11.6108 140.877 11.4329ZM138.617 13.5079L138.553 13.6074L138.55 13.7231L138.5 13.7763L138.447 13.8707L138.405 13.9737L137.972 13.9453C137.562 13.9329 137.145 13.931 136.747 13.9185C136.558 13.9115 136.371 13.9329 136.183 13.9275C135.461 13.9045 134.773 13.9523 134.043 13.9632C133.744 13.9702 133.402 14.0059 133.109 13.981C132.916 13.9651 132.734 13.9935 132.539 13.9986L132.334 13.9702L132.191 13.981L132.048 14.0164L131.965 13.9756C131.819 13.9348 131.651 13.8975 131.619 13.7336L131.67 13.5079L131.804 13.4422L132.188 13.3178L132.292 13.2589L132.524 13.2305L132.642 13.1913L132.767 13.1807L133.126 13.0829H133.269L133.386 13.051L133.525 13.0491L133.868 12.9655L133.957 12.9706L134.091 12.9458C134.266 12.9333 134.427 12.9298 134.605 12.9228L134.929 12.882C135.167 12.889 135.427 12.8712 135.685 12.8747L135.878 12.9034L136.201 12.8766L136.394 12.889C136.613 12.8763 136.827 12.8692 137.037 12.8444L137.376 12.903H137.714L137.94 12.9333L138.063 12.9139L138.514 13.1434L138.617 13.5079ZM144.577 17.9331L144.759 18.0182L144.929 18.0022L145.296 18.1017L145.586 18.0874L145.857 18.3096L146.009 18.3255L146.104 18.5497L146.224 18.69L146.307 18.7525L146.479 19.1153L146.595 19.3321L146.657 19.5349L146.719 19.686L146.74 19.8585C146.788 20.0416 146.861 20.2195 146.889 20.4133C146.922 20.6215 146.86 20.8294 146.88 21.0446L146.942 21.5139L146.926 21.7754L146.942 22.1274L146.912 22.3072L146.913 22.6643L146.91 23.0539C146.88 23.3492 146.797 23.6317 146.767 23.9308L146.746 24.2684L146.705 24.416L146.68 24.6561L146.613 24.857L146.588 24.9638L146.251 25.2517L145.977 25.1325L145.737 25.1219L145.647 25.2214L145.588 25.1111L145.452 24.784L145.396 24.7218L145.258 24.8551L145.173 24.8586L145.115 24.8819L145.017 24.7645L144.954 24.7377L144.747 24.9992L144.604 24.9048L144.436 24.9281L144.242 24.6666L144.098 24.6188L143.793 24.1227C143.759 23.9553 143.801 23.7063 143.812 23.5376L143.846 23.1569L144.065 22.6981L144.122 22.6006L144.143 22.3407C144.164 22.1363 144.137 22.0171 144.098 21.8338L144.084 21.6153L143.998 21.4499L143.823 21.0998L143.678 20.911L143.557 20.7085L143.399 20.5928L143.39 20.5093L143.201 20.3881L143.031 20.3741L142.805 20.3103L142.579 20.3244L142.45 20.3014L142.291 20.2941L142.192 20.2603C141.997 20.2514 141.803 20.2622 141.61 20.2622L141.354 20.2408L141.161 20.2622L141.03 20.2427L140.921 20.2622H140.81L140.776 20.2749L140.804 20.3014L140.967 20.362L140.962 20.3993L140.76 20.4025L140.659 20.4401L140.403 20.4704L140.276 20.4615L139.986 20.458L139.825 20.4293L139.599 20.4436L139.293 20.4296L139.196 20.4506L138.987 20.442L138.855 20.3919L138.62 20.4009L138.408 20.3671C138.256 20.376 138.29 20.5574 138.069 20.5415L138.026 20.5287L138.182 20.3744L138.148 20.3601L137.874 20.4117L137.652 20.3798L137.537 20.3919L137.36 20.3868L137.199 20.5399C136.989 20.5415 136.782 20.545 136.57 20.545L136.135 20.6196L135.83 20.6607L135.395 20.7459L135.202 20.7369C134.999 20.7389 134.794 20.7513 134.589 20.7513L134.153 20.7264L133.995 20.7353L133.609 20.7121C133.292 20.7121 132.972 20.7478 132.658 20.7513L132.318 20.7548L132.126 20.7921H131.781L131.574 20.8597L131.427 20.8632L131.03 20.9665L130.853 21.0232C130.668 21.0551 130.491 21.0711 130.304 21.0908L129.983 21.0998L129.727 21.1406L129.515 21.146L129.323 21.153L129.047 21.0625L128.909 21.0217C128.685 20.9094 128.421 20.6872 128.319 20.4509L128.273 20.2341L128.213 20.024L128.224 19.6828L128.217 19.4389L128.446 19.0318L128.487 18.8596L128.602 18.6724L128.653 18.5427L128.662 18.4591L128.74 18.3845L128.794 18.294L129.047 18.1926L129.273 18.2388L129.42 18.214L129.727 18.2031L130.049 18.1763C130.309 18.1712 130.546 18.1923 130.805 18.1923L131.175 18.1674L131.383 18.2031L131.673 18.1763L132.064 18.1961L132.27 18.1763L132.481 18.1817L132.704 18.2155L133.041 18.2136L133.205 18.2331L133.348 18.1977L133.477 18.2066L133.849 18.1639L134.119 18.1495L134.248 18.1068L134.277 18.0606L134.591 18.0038L134.688 18.0376L134.992 18.0944L135.428 18.0517L135.685 18.0606L135.814 18.0341L136.054 18.073L136.293 18.059L136.586 18.0609L136.989 18.0947C137.176 18.0966 137.374 18.0753 137.551 18.0679L137.89 18.0947C138.051 18.0877 138.224 18.0644 138.38 18.0555C138.569 18.0466 138.774 18.0874 138.972 18.0928L139.15 18.0625L139.534 18.1071L139.873 18.0982L139.986 18.1374C140.2 18.1639 140.444 18.1301 140.659 18.1464L140.843 18.1961L141.144 18.1993C141.306 18.2101 141.476 18.2315 141.644 18.2388L141.95 18.2407L142.112 18.2707C142.285 18.285 142.446 18.2867 142.61 18.3026L142.805 18.2886L143.254 18.3064L143.397 18.3224L143.575 18.3064L143.701 18.3134L143.824 18.2069L144.005 18.2101L143.976 18.0683L143.964 17.9809L144.03 18.0077L144.157 18.0236L144.457 18.102L144.503 18.038L144.577 17.9327" fill="black"/>
<path d="M142.403 19.8152L142.312 19.9165L142.622 19.8847M142.755 19.8617L142.85 19.9095ZM136.991 20.3954L137.191 20.449ZM136.78 20.4295L136.819 20.4509ZM172.899 11.8891L172.901 11.7488C172.944 11.532 173.039 11.3487 173.025 11.1016C173.009 10.8577 172.873 10.6817 172.804 10.4703L172.769 10.2605L172.735 10.2015L172.804 10.0041L172.772 9.65021L172.705 9.4637L172.661 9.33391L172.558 9.222C172.29 8.90188 171.988 8.66882 171.592 8.56392L171.417 8.54446L171.311 8.49984H171.203L170.957 8.46604L170.728 8.40546L170.501 8.4485L170.399 8.49091L170.134 8.4485L169.971 8.47147L169.627 8.46253L169.45 8.49281L169.195 8.44819L169.068 8.45041L168.883 8.43607L168.688 8.62991L168.411 8.64235L168.1 8.66181L167.835 8.64044L167.688 8.66915L167.476 8.67232L167.391 8.63725L167.273 8.66181L167.064 8.66915C166.912 8.66915 166.748 8.64777 166.587 8.65478L166.373 8.67965L165.979 8.67265L165.813 8.70995C165.645 8.72239 165.475 8.74374 165.304 8.75267C165.076 8.76319 164.857 8.71696 164.632 8.74183L164.334 8.79891L164.008 8.80591L163.793 8.83271L163.334 8.84162L163.233 8.80591L162.759 8.80401C162.584 8.80592 162.393 8.83271 162.217 8.83271L161.823 8.83588L161.673 8.86778L161.291 8.84674L161.096 8.87543L160.702 8.86268C160.532 8.86268 160.342 8.86809 160.16 8.86809L159.979 8.83941H159.847L159.605 8.81294L159.407 8.80751L159.292 8.83238L158.947 8.80591L158.733 8.83238L158.336 8.84322C158.172 8.85023 158.011 8.81134 157.846 8.81994L157.664 8.85024C157.44 8.8681 157.238 8.88212 157.028 8.93027L156.841 8.98544L156.553 8.96057L156.404 9.03708L156.27 9.09033L156.131 9.20415L155.678 9.38366L155.533 9.54722L155.501 9.63651L155.364 9.83545L155.302 10.0433L155.116 10.3902L155.047 10.4951L155.026 10.6303L154.98 10.7368L154.982 10.8666L154.948 11.0324C154.948 11.2259 154.98 11.4127 155.009 11.5958L155.065 11.7826L155.111 12.1878L155.15 12.339C155.164 12.5647 155.12 12.7908 155.107 13.0022L155.164 13.3491L155.21 13.6408C155.284 13.8417 155.433 14.0336 155.618 14.1494L155.816 14.2205L156.04 14.3502L156.533 14.4213L156.679 14.398L156.94 14.4159L157.079 14.3643L157.216 14.3483L157.486 14.2648L157.61 14.2469L157.965 14.135L158.225 14.1047L158.686 13.9874L158.879 13.9839L158.981 13.9501H159.142L159.356 13.9214L159.803 13.8203L159.997 13.8076L160.149 13.7725L160.262 13.7757L160.524 13.7527C160.688 13.7419 160.869 13.7562 161.033 13.7617L161.194 13.7562L161.36 13.7776L161.657 13.7562L161.874 13.7632C162.102 13.7473 162.33 13.6619 162.562 13.6494L162.956 13.6622C163.18 13.6622 163.402 13.6638 163.627 13.6638L164.103 13.6889C164.344 13.6762 164.565 13.6284 164.813 13.6214C165.161 13.607 165.507 13.6175 165.864 13.5946L166.045 13.5659L166.356 13.5538L166.488 13.5324C166.667 13.527 166.845 13.5181 167.029 13.5324L167.314 13.5697L167.487 13.5569L167.768 13.5732L167.966 13.527L168.378 13.4613L168.504 13.4435C168.683 13.4559 168.874 13.4772 169.051 13.4897L169.312 13.4808C169.48 13.4788 169.648 13.4951 169.825 13.5002L170.168 13.527L170.316 13.5181L170.498 13.5573L170.69 13.5713L170.807 13.6124L170.958 13.6265L171.17 13.5981L171.284 13.6214L171.595 13.6105L171.712 13.6392L171.991 13.6338L172.097 13.5786L172.267 13.5554L172.24 13.4967L172.205 13.4415L172.313 13.3599L172.299 13.262L172.373 13.095L172.447 12.8121L172.666 12.6699L172.767 12.5775L172.956 12.4531L172.885 12.2076L172.9 11.8894M170.021 11.3665L169.961 11.3844L170.012 11.443L169.941 11.4733L169.911 11.5212L169.738 11.5444L169.558 11.5317L169.245 11.5266C169.042 11.5122 168.833 11.5336 168.623 11.532C168.245 11.5247 167.879 11.5142 167.506 11.5071L167.076 11.5515H166.819C166.585 11.5709 166.343 11.5977 166.11 11.6082L165.813 11.6012L165.338 11.6245L165.156 11.6136L164.993 11.628L164.876 11.6136L164.647 11.6385L164.401 11.6136L164.073 11.6723L163.894 11.6653L163.793 11.6921L163.68 11.6742L163.433 11.6831C163.266 11.6863 163.072 11.6956 162.904 11.7045L162.627 11.7007L162.51 11.7275L162.314 11.7007C162.077 11.6882 161.826 11.708 161.591 11.7134L161.247 11.731L161.1 11.7558L160.803 11.7469L160.639 11.7683L160.442 11.7488L160.031 11.7756L159.914 11.7558L159.736 11.7702L159.695 11.6723L159.419 11.6831L159.545 11.7702L159.527 11.7807L159.502 11.788L159.303 11.7721L159.16 11.7896L159.078 11.7488L158.914 11.795H158.836L158.716 11.8237L158.645 11.7896L158.419 11.7345L158.288 11.7597L158.027 11.6956L157.947 11.612L158.138 11.443L158.265 11.4022C158.539 11.276 158.818 11.2278 159.142 11.1995L159.34 11.1335L159.522 11.1303L159.734 11.0911L159.819 11.1121L159.979 11.1175L160.257 11.0962L160.542 11.0783C161.049 11.0891 161.537 11.0518 162.035 11.025C162.611 10.9948 163.136 10.9948 163.728 10.9858L164.122 10.9807L164.23 10.952L164.417 10.9664L164.595 10.9523L165.007 10.9753L165.156 10.9434L165.299 10.961L165.486 10.9202L165.748 10.9291L165.831 10.9469L165.926 10.9326L166.011 10.9559L166.188 10.9291C166.499 10.9291 166.819 10.9399 167.128 10.9166L167.29 10.8634L167.361 10.8864L167.746 10.8723L167.819 10.8082L167.999 10.7212L168.13 10.8561L168.211 10.8475L168.474 10.8494L168.589 10.8226L168.72 10.8475L168.819 10.8172L168.957 10.8704L169.082 10.8564L169.249 10.8991L169.466 10.9151L169.758 11.0005L170 11.0289L170.219 11.1746C170.309 11.363 170.162 11.3595 170.021 11.3665ZM170.136 11.3809L170.187 11.4182ZM168.738 18.5229L168.508 18.5408L168.114 18.5535L167.983 18.5408L167.819 18.5675L167.695 18.6083L167.884 18.6562C168.375 18.6705 168.9 18.6992 169.391 18.7168C169.634 18.7257 169.879 18.7506 170.135 18.7541L170.3 18.756L170.353 18.7295L170.37 18.6868L170.33 18.6389L169.856 18.6048L169.605 18.5624H169.197L168.738 18.5232M169.149 19.1347L169.182 19.2183L169.689 19.2894L169.855 19.3302L170.023 19.3034L170.085 19.3353L170.513 19.3516L170.55 19.3107L170.414 19.2696L170.297 19.2199C170.092 19.1915 169.884 19.1861 169.674 19.1736C169.506 19.1666 169.323 19.1347 169.149 19.1347ZM168.46 23.6307L168.526 23.6824ZM170.498 23.7311L170.445 23.8058L170.159 23.9017L171.005 23.9782L171.044 23.9623M170.331 24.0117L169.921 24.0493L169.888 24.0742L169.971 24.1061C170.123 24.1185 170.239 24.1364 170.4 24.1434L170.511 24.1683L170.743 24.1613L170.907 24.1737L170.982 24.1434L170.937 24.1026L170.628 24.0917L170.331 24.0117ZM169.775 24.0611L169.8 24.0879Z" fill="black"/>
<path d="M173.539 23.5644L173.562 23.301L173.511 23.148L173.394 22.7447L172.862 22.4797L172.405 22.4921L172.253 22.4634L172.042 22.4708L171.578 22.4421L171.45 22.4797L171.155 22.4599L171.129 22.5061L170.777 22.6219L170.673 22.6538L170.444 22.5951L170.019 22.5524L169.773 22.4991L169.679 22.5046L169.577 22.4599L169.296 22.43L169.165 22.4708L168.87 22.5329L168.543 22.531L168.312 22.5559L168.13 22.524L167.704 22.5081L167.442 22.531C167.288 22.5132 167.027 22.4599 166.864 22.4778L166.666 22.5986L166.523 22.6005L166.24 22.6503H165.912L165.767 22.7054L165.633 22.6751L165.382 22.6965L165.141 22.6716L164.996 22.6825L164.917 22.7054L164.715 22.6592L164.542 22.707L164.357 22.7054L164.254 22.7443L164.155 22.7268L163.918 22.7443L163.791 22.7303L163.66 22.7676L163.448 22.7836L163.25 22.7816L163.159 22.7568L163.07 22.7922L162.794 22.7995L162.676 22.8314L162.561 22.8084L162.234 22.8244L162.035 22.8706L161.757 22.8811L161.672 22.913L161.543 22.8955L161.407 22.9471L161.204 22.9522L161.065 23.0058L160.888 22.9914L160.757 22.9647L160.391 23.0109L160.177 22.9771L159.944 23.0058L159.668 22.986L159.371 23.0431C159.147 23.0463 158.926 23.0039 158.7 23.0039C158.486 23.0039 158.272 23.0198 158.055 23.0144L157.733 22.9968L157.664 22.8046L157.738 22.4704L157.991 22.4207C158.162 22.4009 158.332 22.362 158.504 22.3388C158.677 22.3123 158.85 22.2409 159.011 22.1985L159.423 22.1255L159.67 22.0722L159.981 22.0419L160.162 22.0046L160.387 21.9868L160.651 21.9495L160.753 21.9246L161.163 21.8889C161.626 21.8251 162.118 21.8251 162.595 21.8251L162.823 21.7875L163.021 21.8108C163.213 21.8089 163.402 21.798 163.597 21.7999L163.763 21.8159L163.975 21.784L164.302 21.7735L164.501 21.7183H164.643L164.795 21.681C165.466 21.6399 166.179 21.681 166.85 21.6561L167.29 21.6258L167.472 21.601L167.75 21.6309C167.979 21.6383 168.209 21.6239 168.427 21.6239L168.706 21.6542C169.026 21.6666 169.356 21.6612 169.672 21.6507L170.054 21.6772L170.328 21.6686L170.466 21.7218L170.613 21.7129L170.941 21.7964C171.104 21.8213 171.261 21.8267 171.419 21.857L171.643 21.9016L171.745 21.9405H171.912L172.138 21.9922L172.468 21.8943L172.626 21.8481L172.643 21.8372L172.769 21.601L172.953 21.4549L173.161 21.2362L173.359 20.838L173.38 20.6601C173.461 20.3881 173.497 20.118 173.497 19.8139L173.527 19.5132L173.523 19.3834L173.548 19.2661L173.543 19.1701L173.603 18.9906L173.5 18.4409C173.437 18.2506 173.304 18.0516 173.203 17.8807L172.936 17.5039L172.671 17.3403L172.434 17.2016C172.173 17.127 171.544 17.0524 171.29 17.1608L171.18 17.2141L171.037 17.3776L170.742 17.2851L170.639 17.3598L170.445 17.4079L170.201 17.4009L170.068 17.4114L169.692 17.3547L169.494 17.3652L169.296 17.3527L169.066 17.3885L168.819 17.3652C168.573 17.3652 168.313 17.3403 168.064 17.3403L167.672 17.3601C167.509 17.3601 167.342 17.3119 167.179 17.3119H167.03L166.666 17.2051L166.281 17.0789L166.249 16.951L166.29 16.5365L166.295 16.5295L166.677 16.4903L166.799 16.4584L166.979 16.4654L167.083 16.4335L167.207 16.4265L167.357 16.3854L167.506 16.3356L167.603 16.3535L167.769 16.357L168.048 16.35L168.227 16.3305L168.427 16.3516L168.557 16.3341C168.778 16.3678 169.019 16.4032 169.248 16.4032L169.593 16.4141L169.888 16.4103L170.019 16.446L170.349 16.4817L170.627 16.4743L171.088 16.5295L171.281 16.5423L171.463 16.533C171.631 16.5509 171.795 16.6006 171.958 16.6185C172.124 16.6344 172.274 16.6185 172.434 16.6057L172.806 16.5276L173.122 16.1651L172.942 15.8909L173.108 15.8399C173.254 15.7968 173.44 15.7365 173.46 15.5605L173.396 15.2812L173.428 15.1907L173.202 15.009L173.145 14.8919L173.019 14.7443L172.883 14.6359L172.774 14.4296C172.604 14.3212 172.394 14.2447 172.191 14.2036L171.696 14.2055L171.268 14.2182L171.153 14.2466L170.954 14.2358L170.563 14.2571L170.185 14.2252C169.494 14.2144 168.813 14.2284 168.112 14.2055L167.75 14.1752C167.483 14.1663 167.204 14.193 166.93 14.1895L166.778 14.1701L166.502 14.172L166.308 14.1433L166.126 14.1561L165.88 14.1433L165.664 14.1577L165.223 14.1612C164.942 14.1682 164.657 14.2396 164.387 14.2715C163.975 14.3161 163.549 14.3193 163.118 14.3193C162.572 14.3193 162.011 14.3799 161.462 14.3799C161.202 14.3799 160.937 14.3266 160.672 14.3426L160.372 14.3958L160.211 14.4102L159.751 14.4867C159.336 14.5234 158.92 14.5512 158.504 14.5702L158.141 14.5648L157.845 14.6021L157.583 14.6002L157.433 14.6305L156.973 14.6324C156.538 14.6802 156.106 14.7536 155.733 14.9311L155.439 15.1569L154.964 15.55L154.948 15.8577C154.982 16.27 155.123 16.5368 155.458 16.7591L155.598 16.8605C155.765 16.9242 155.934 16.937 156.12 16.9583L156.399 16.9848L156.593 16.9743L156.86 16.9048L157.235 16.8748L157.369 16.841L157.68 16.7983L157.845 16.7431L158.14 16.7342L158.27 16.6825L158.436 16.7039L158.781 16.6526L159.044 16.6347L159.143 16.5901L159.251 16.5939C159.417 16.5636 159.598 16.5065 159.767 16.4976C160.02 16.4836 160.269 16.4603 160.524 16.4603L160.804 16.4747H161.048L161.197 16.512L161.526 16.4747L161.787 16.4676L161.904 16.4338L162.017 16.4463L162.363 16.4L162.496 16.4338L162.727 16.4444C162.93 16.4568 163.114 16.4284 163.294 16.4836L163.457 16.5652L163.549 16.6487L163.772 16.8997C163.667 17.2498 163.206 17.2284 162.89 17.2695C162.727 17.2909 162.537 17.3173 162.376 17.3406L162.234 17.3371L161.872 17.3725L161.459 17.4242L161.326 17.4152L160.918 17.4758C160.714 17.4883 160.516 17.4848 160.31 17.5061L160.211 17.5272C159.926 17.5399 159.64 17.559 159.357 17.5699L159.128 17.5718L158.928 17.6075L158.733 17.6021L158.53 17.6359L158.405 17.6199L157.975 17.6269L157.664 17.6145C157.493 17.6215 157.344 17.6716 157.187 17.6946C156.964 17.7213 156.759 17.7232 156.551 17.7711L156.362 17.8348L156.206 17.8705L156.114 17.9152C155.913 17.9703 155.71 18.0182 155.54 18.1428L155.459 18.2194L155.284 18.3577L155.31 18.5178L155.34 18.6514L155.202 18.7882L155.084 19.0923L155.176 19.4051C155.312 19.6736 155.351 19.7858 155.655 19.8888L155.844 19.9707L155.95 19.9758L156.042 20.0345L156.464 20.097L156.634 20.1502L156.902 20.2194L156.985 20.2889L156.938 20.3157L156.733 20.3348L156.3 20.4863L155.909 20.5469L155.717 20.6961L155.416 20.9257L155.243 21.2136C155.132 21.3877 154.978 21.6064 154.948 21.8181C154.92 21.9995 154.955 22.2023 154.996 22.3713L155.042 22.5578L155.024 22.6716L155.031 22.8228C155.031 23.0023 154.996 23.1821 154.96 23.3472L154.9 23.4895L154.854 23.7812L154.817 23.9626L154.867 24.2346L154.95 24.3449L154.99 24.5244L155.118 24.7326L155.155 24.8713L155.323 25.1452L155.639 25.275L155.832 25.3869C156.063 25.4739 156.325 25.5364 156.597 25.5272L156.959 25.4864L157.125 25.5023L157.484 25.4991L157.777 25.4739L157.943 25.435L158.353 25.3923L158.799 25.3033L159.007 25.2839L159.242 25.209C159.433 25.1666 159.633 25.1541 159.833 25.1324L160.179 25.0792C160.359 25.0687 160.531 25.0384 160.706 25.0259L161.098 25.017L161.542 24.9832L161.706 24.9603L161.886 24.9673L162.135 24.9386L162.345 24.9354C162.701 24.8978 163.058 24.8429 163.416 24.8091C163.802 24.7715 164.182 24.8302 164.565 24.768L164.62 24.665L164.809 24.6242L164.873 24.6402L164.961 24.6029L165.088 24.672L165.157 24.6328L165.242 24.6775L165.465 24.6685L165.557 24.6064L165.65 24.6153L165.912 24.6258L166.044 24.6934L166.371 24.7093L166.718 24.754L166.912 24.7307L167.234 24.6739L167.246 24.5512L167.408 24.6507L167.834 24.6526L167.919 24.5317L168.126 24.5158L168.281 24.4909L168.361 24.5158L168.667 24.5691L168.702 24.6526L168.985 24.7202C169.146 24.7329 169.46 24.7648 169.589 24.6864L169.551 24.6067L169.658 24.5423C169.819 24.5263 169.973 24.5636 170.134 24.5477L170.264 24.5139L170.644 24.4925L170.766 24.6048H170.842L170.957 24.6188L171.104 24.5939L171.242 24.6347L171.092 24.7167L171.122 24.7345L171.593 24.7967L172.023 24.8946L172.222 24.9603L172.548 24.996L172.843 24.9922L173.062 24.7753L173.27 24.7275L173.306 24.482L173.24 24.3931L173.196 24.1475C173.318 23.9413 173.357 23.9397 173.601 23.9113L173.668 23.8612L173.539 23.5644ZM167.603 19.0675L167.866 19.0853C168.073 19.0853 168.281 19.0815 168.474 19.1013L168.559 19.1366L168.527 19.1634L168.444 19.151L168.375 19.1778L168.163 19.1972L167.568 19.128L167.603 19.0675ZM157.565 20.177L157.703 20.104L158.12 19.9672C158.29 19.9035 158.47 19.8215 158.65 19.7804L159.027 19.7252L159.161 19.6844L159.389 19.6615L159.668 19.6168L159.963 19.6079C160.149 19.6028 160.338 19.576 160.523 19.5636L160.983 19.5139C161.273 19.5103 161.559 19.5103 161.838 19.5103L162.035 19.4836L162.299 19.496C162.501 19.4871 162.701 19.4514 162.902 19.4568C163.24 19.4641 163.576 19.4587 163.911 19.4354L164.32 19.3841L164.549 19.3803L164.876 19.3503L165.435 19.3165L165.881 19.3305L166.371 19.3414L166.799 19.416C167.119 19.416 167.384 19.3394 167.704 19.3394C168.248 19.3394 168.798 19.3608 169.329 19.4105L169.672 19.4195C169.858 19.4249 170.042 19.4497 170.219 19.473L170.505 19.5084L170.531 19.5512L170.524 19.5617L170.149 19.656L169.939 19.6242L169.526 19.6525L169.395 19.6168L169.232 19.6242L169.132 19.6028C168.757 19.5974 168.372 19.6474 168 19.6117L167.72 19.6277C167.557 19.6168 167.375 19.5939 167.211 19.583L166.946 19.6098L166.668 19.6028L166.46 19.6401C166.207 19.6168 165.972 19.6631 165.714 19.672L165.587 19.656L165.435 19.6953L165.226 19.6863L165.123 19.6576C164.935 19.6545 164.731 19.6631 164.533 19.6615L164.334 19.6471L164.137 19.672L164.008 19.6669L163.874 19.6953L163.598 19.6899L163.284 19.745L163.12 19.738L163.019 19.7718L162.724 19.8091C162.545 19.8196 162.367 19.8142 162.195 19.8375H162.054L161.838 19.8748L161.69 19.8678L161.524 19.898L161.395 19.8837L161.149 19.9191L160.882 19.9264L160.619 19.9672L160.372 19.9691L160.08 19.98L159.833 20.0173L159.523 20.0192C159.318 20.0262 159.11 20.0705 158.914 20.0705L158.733 20.0511C158.565 20.0546 158.369 20.0565 158.211 20.083C158.025 20.1187 157.823 20.1292 157.648 20.1754L157.565 20.1774M164.678 23.8226L164.434 23.7888L164.27 23.8281L164.201 23.8086L164.387 23.7461L164.648 23.7694L164.74 23.7624L164.753 23.7818L164.678 23.8226ZM164.853 23.8281L164.975 23.7748L165.141 23.7321L165.186 23.8246L164.853 23.8281ZM165.548 24.1587L165.29 24.1874L165.237 24.1322L165.166 24.2034L164.905 24.1695L164.873 24.1408L164.899 24.1179L165.387 24.0806L165.465 24.1303L165.546 24.1431L165.548 24.1587ZM165.348 23.8121C165.327 23.6521 165.581 23.7802 165.635 23.6983L165.348 23.8121ZM165.866 24.1322L165.755 24.1428L165.797 24.0965L165.866 24.1322ZM165.726 23.8211L165.711 23.8102L165.929 23.7748L166.027 23.7142C166.318 23.8459 165.754 23.8121 165.726 23.8211ZM168.195 24.0573L167.72 24.0662L167.688 24.0111L168.015 24.0238H168.158L168.197 24.0522L168.195 24.0573M168.907 23.8549C168.679 23.8281 167.58 24.0238 167.53 23.8281L167.561 23.8067L167.769 23.7962L167.934 23.7643C168.124 23.7551 168.518 23.8153 168.642 23.7142L168.741 23.7675L168.837 23.7605L169.02 23.7924L169.061 23.8156L168.907 23.8549Z" fill="black"/>
<path d="M170.562 24.3255L170.527 24.3841L170.66 24.3647M118.828 8.90924L119.159 8.93252L119.738 9.35401L119.901 9.60462L119.966 9.69167L120.125 10.0864L120.251 10.4135L120.263 10.6074L120.3 10.7783C120.323 10.9505 120.318 11.5269 120.426 11.621H120.899C121.076 11.621 121.265 11.6318 121.431 11.6318L121.645 11.5926L121.763 11.6069L121.859 11.5926L122.057 11.6458C122.446 11.7224 122.764 11.7721 123.05 12.0603L123.17 12.1936L123.221 12.4123L123.262 12.8552L123.119 12.9885L123.145 13.2286L122.976 13.4329L122.935 13.5541L122.933 13.5573L122.799 13.6517L122.618 13.6447L122.407 13.6625L122.329 13.6909L122.246 13.689L122.242 13.7939L122.03 13.865L121.825 13.9861L121.429 13.8937L121.111 13.9345L120.993 13.9112L120.751 14.0164L120.567 14.4555L120.562 14.6991L120.533 14.8502L120.539 14.9407L120.516 15.3265L120.48 15.7713C120.48 16.0487 120.511 16.3561 120.44 16.6105L120.194 16.959L120.023 17.0228L119.964 17.1777L119.85 17.2134L119.814 17.2807L119.807 17.288L119.752 17.3288L119.427 17.0106L119.215 17.231L119.155 17.3164L119.082 17.2756L118.669 17.1847L118.552 17.3805L118.263 17.1509L118.045 17.0674L117.992 17.1439L117.989 17.1474L117.955 16.9998L117.893 16.8844L117.828 16.68L117.746 16.4699L117.731 16.2585L117.7 16.1373L117.695 15.9419L117.635 15.7375L117.64 15.4474L117.619 15.3265L117.676 15.2449L117.706 15.0829L117.808 15.0173L117.87 14.8537L117.886 14.4998L117.944 14.2224C117.955 14.0588 117.946 13.9236 117.937 13.7795L117.946 13.5181L117.921 13.3654C117.911 13.1377 117.911 12.9225 117.899 12.6913L117.86 12.5064L117.851 12.1863L117.796 11.9108V11.7169L117.738 11.5126L117.711 11.3133L117.72 11.2406L117.674 11.1143L117.699 10.9772L117.695 10.5506L117.653 10.4687L117.64 10.3533L117.557 10.1148L117.536 9.92475L117.469 9.80358L117.439 9.61165L117.443 9.57594L117.543 9.43915L117.559 9.35561L117.725 9.1812L117.948 9.23828L118.158 9.36454L118.492 9.1388L118.623 8.97875L118.828 8.90924M108.464 9.12414C108.665 9.15603 108.876 9.33043 109.052 9.42831L109.21 9.49049L109.383 9.63619L109.492 9.68402L109.597 9.77328L109.873 9.94388L109.975 10.0666L110.13 10.2037L110.192 10.2834L110.267 10.3405L110.645 10.7387C110.924 11.055 111.175 11.3984 111.411 11.7345L111.705 12.0776L111.972 12.4707L112.235 12.8316L112.313 12.9687L112.336 13.0379L112.459 13.1731L112.502 13.2547L112.626 13.4167L112.665 13.5107L112.723 13.5659L112.742 13.6405L112.836 13.8095L112.919 13.9163L113.013 14.0869L113.144 14.2594L113.198 14.3627L113.267 14.4303L113.433 14.6598C113.711 15.0667 113.796 15.5449 113.608 16.027L113.513 16.0981L113.412 16.2298L113.375 16.3506L113.278 16.4645L113.094 16.5321L112.859 16.3239L112.797 16.2368L112.788 16.2387L112.728 16.3293L112.447 16.637L112.421 16.6459L112.276 16.5429L112.087 16.5891L111.977 16.5126L111.867 16.6175L111.737 16.6564L111.664 16.6354L111.505 16.5072L111.318 16.6121L111.134 16.4699L111.028 16.1106C110.967 15.8829 110.899 15.6575 110.821 15.4349C110.728 15.177 110.592 14.9567 110.445 14.7255L110.387 14.553L110.318 14.4765L110.233 14.3075C109.968 13.8879 109.691 13.4664 109.344 13.095L109.24 12.9528L109.063 12.7943L108.977 12.6665L108.653 12.4318L108.418 12.3677L108.344 12.3766L108.234 12.3269L107.81 12.5705L107.723 12.6059L107.609 12.75L107.418 12.8549L107.326 12.9419L107.145 13.1747L106.995 13.2531L106.658 13.6478L106.564 13.7084L106.55 13.8596L106.361 13.9699L106.262 13.9982L106.227 14.1704L106.163 14.2383L106.126 14.3059L106.025 14.4143L106.087 14.5262L106.036 14.5938L106.034 14.6595L105.974 14.7185L105.939 14.7966L105.787 14.8604L105.875 14.9921L105.78 15.1164L105.698 15.1346L105.755 15.2143L105.718 15.2838L105.698 15.3833L105.597 15.684C105.557 15.8848 105.511 16.0662 105.46 16.2566L105.359 16.5837L105.07 16.7827L104.949 16.7278L104.855 16.8452L104.709 16.7916L104.583 16.8735L104.555 16.8522L104.484 16.8043L104.449 16.7259L104.436 16.7151L104.314 16.8876L104.295 16.8895L104.113 16.8257L104.05 16.7422L103.95 16.8452L103.938 16.8362L103.862 16.7278L103.721 16.694L103.645 16.6303L103.466 16.7865L103.408 16.7419L103.348 16.7298L103.279 16.5926L103.205 16.3082L103.235 16.1233L103.217 16.0717L103.143 16.2069L103.061 16.2139L103.049 15.9081L103.079 15.8156L103.081 15.5612L103.175 15.1722L103.177 14.8075L103.251 14.7239L103.311 14.5957L103.405 14.4803L103.468 14.3273L103.473 14.3203L103.578 14.4233L103.763 14.2581C103.961 14.0196 104.065 13.7173 104.237 13.4632L104.35 13.3191L104.446 13.2853L104.47 13.1894L104.665 12.9171L104.802 12.6684L105.188 12.2771L105.382 11.964L105.455 11.8859L105.488 11.7648L105.61 11.6742L105.647 11.5907L105.766 11.4485L105.834 11.2884L105.93 11.2565L106.114 11.1249L106.305 10.9524L106.354 10.8261L106.49 10.6606L106.568 10.5914L106.695 10.5468L106.688 10.337L106.783 10.3211L106.89 10.2535L106.936 10.1432L106.989 10.1058L107.215 9.8463L107.326 9.63459L107.512 9.85874L107.816 9.41778L107.872 9.29662L107.977 9.27368L108.1 9.23287L108.263 9.22394L108.439 9.1423L108.464 9.12445M117.975 13.0443L118.002 13.0691Z" fill="black"/>
<path d="M110.304 14.0241L110.431 14.2747L110.433 14.2409M104.978 18.1448L105.393 18.2745C105.794 18.4451 106.042 18.5519 106.169 19.0161L106.222 19.1102L106.252 19.3398L106.201 19.6296L106.134 20.0259L106.121 20.1433C106.063 20.2998 105.983 20.4688 105.957 20.6413L105.902 20.9474L105.911 21.0644L105.874 21.1728L105.892 21.3918L105.877 21.6673L106.035 21.9925L106.148 22.0193L106.443 22.0923L106.529 22.0796L106.865 22.1226L107.033 22.1137C107.353 22.1172 107.68 22.1137 108.009 22.1137L108.249 22.1242C108.507 22.1153 108.799 22.0888 109.046 22.1102L109.117 22.0974L109.27 22.0923L109.484 22.0674L109.59 22.0904L109.695 22.0745L109.756 22.0853L110.077 22.0566L110.23 22.0604L110.309 22.0336L110.594 22.0496L110.916 22.0336L111.08 22.0515L111.177 22.0158L111.294 22.0247L111.49 21.9839L111.6 22.0193L111.81 22.0002L111.902 21.9785L112.024 22.0247L112.36 21.9641L112.543 22.0053L112.649 21.975L112.801 21.9928L112.911 21.9536L113.135 21.9555L113.209 21.9396L113.425 21.9555L113.563 21.945C113.734 21.9396 113.915 21.9482 114.079 21.945L114.261 21.9575C114.479 21.9626 114.692 21.9466 114.901 21.9415L115.344 21.9485L115.447 21.9252C115.659 21.9093 115.848 21.9093 116.059 21.9074L116.18 21.8825L116.484 21.8953L116.604 21.8879L116.76 21.9112L117.108 21.9131C117.301 21.9256 117.504 21.9485 117.7 21.9485L117.9 21.9272L118.357 21.9252L118.722 21.9112L119.103 21.8933L119.183 21.7811L119.133 21.7014L119.421 21.7263L119.727 21.7333L120.171 21.8328C120.464 21.8988 120.84 21.9715 121.077 22.1475L121.173 22.217L121.194 22.4606L121.303 22.6793L121.36 22.9372L121.404 23.0581L121.418 23.2303L121.445 23.3693L121.425 23.4742L121.446 23.6113L121.583 23.7407L121.418 23.8332L121.308 23.8973L121.13 23.9116L121.051 24.2403C120.915 24.3526 120.727 24.2655 120.566 24.3242L120.501 24.4182L120.33 24.452L120.259 24.6067L120.103 24.7046C119.941 24.7632 119.667 24.6921 119.499 24.6638C119.285 24.6245 119.105 24.5426 118.902 24.4929L118.691 24.4466L118.539 24.4237L118.718 24.3472L118.584 24.2617L118.311 24.2263L118.207 24.2403L118.018 24.1871L117.795 24.1728L117.61 24.1354L117.456 24.1533L117.246 24.1354L116.997 24.1673L116.744 24.1641L116.484 24.1906C116.134 24.2014 115.781 24.1641 115.435 24.1712L115.327 24.1871C115.132 24.1998 114.938 24.219 114.747 24.2317L114.567 24.2263L114.323 24.2368L114.199 24.2139L113.989 24.2477L113.791 24.2317L113.544 24.2582L113.471 24.2477L113.333 24.2601L113.135 24.2582L112.755 24.3009L112.481 24.2866L112.299 24.3153L112.149 24.2974C111.904 24.2974 111.656 24.3165 111.414 24.3417L111.308 24.3239L111.232 24.3526L111.128 24.3488L111.022 24.3701L110.762 24.3755L110.594 24.3558L110.35 24.3736L110.244 24.3701L110.108 24.4004L109.924 24.3845L109.825 24.4198L109.755 24.3985L109.604 24.3966L109.518 24.4677L109.624 24.5318L109.574 24.6013L109.497 24.5764L109.38 24.5726L109.399 24.475L109.401 24.4214H108.949L108.663 24.4253L108.261 24.505L108.138 24.5158L108.023 24.637L108.055 24.6953C107.866 24.7365 107.664 24.7256 107.457 24.7291L107.079 24.7737C106.855 24.7878 106.655 24.7718 106.439 24.7932L106.162 24.8892L106.044 24.8911L105.752 24.9587L105.298 24.9781L105.158 25.0158L104.934 25.0209C104.757 25.0209 104.582 25.0476 104.42 24.996C104.241 24.9443 104.041 24.9089 103.884 24.804L103.755 24.6724L103.637 24.5656L103.462 24.2473L103.357 24.1122L103.236 23.8437L103.197 23.7602L103.183 23.4955L103.154 23.3511L103.183 23.2162L103.158 23.0919L103.149 22.7839L103.135 22.6292L103.209 22.4622L103.216 22.1401L103.244 22.0228L103.276 21.6816L103.297 21.5892C103.319 21.4004 103.317 21.2155 103.338 21.0217L103.382 20.8546L103.387 20.7213L103.414 20.611V20.4012L103.391 20.2271L103.492 19.9051L103.531 19.7272L103.57 19.658L103.612 19.4785L103.716 19.1583L103.739 18.9575L103.732 18.8825L103.775 18.8328L103.861 18.6817L103.834 18.4043L103.84 18.3938L103.856 18.3778L103.866 18.3581L103.942 18.3351L104.121 18.3491L104.26 18.4132C104.436 18.4043 104.549 18.2889 104.695 18.2318L104.789 18.2104L104.866 18.1731L104.978 18.1448ZM194.772 8.60889L195.147 8.67807L195.306 8.79732L195.578 8.79032C196.09 8.98768 196.535 9.4535 196.762 9.94961C196.864 10.1734 196.981 10.3781 197.029 10.6322C197.071 10.8758 197.096 11.1303 197.107 11.3809C197.115 11.6513 197.066 12.119 197.214 12.3234L197.465 12.3712L197.753 12.4139L197.891 12.3948L198.075 12.4193L198.241 12.4069L198.391 12.4283L198.589 12.4248C198.861 12.4602 199.952 12.8071 199.999 13.0809L199.983 13.4419L199.883 13.6606L199.969 13.9077L199.936 14.3168L199.893 14.443L199.913 14.6885C199.849 14.8556 199.789 14.7842 199.666 14.8591L199.607 14.9481L199.455 15.0476L199.307 15.053L199.169 15.0689L198.745 15.0262L198.515 15.037L198.347 15.0192C198.068 15.0332 197.744 15.0957 197.515 15.2344L197.384 15.3568L197.225 15.5009C197.129 15.6431 197.156 15.8262 197.152 16.006L197.126 16.342L197.161 16.4613L197.145 16.7259C197.161 17.0674 197.241 17.3432 197.142 17.6792L197.091 17.8514L196.896 18.0829L196.79 18.1416L196.567 18.3657L196.403 18.4598L196.288 18.5452L196.193 18.5025L196.074 18.4881L196.028 18.4155L195.804 18.243L195.597 18.3817L195.332 18.4155L195.239 18.3708L195.149 18.3319L194.989 18.1326L194.896 18.1059L194.758 18.051L194.631 17.9407H194.627L194.401 17.9193L194.39 17.905L194.314 17.4905L194.298 17.3716L194.335 17.1528L194.353 16.8187L194.396 16.401C194.396 16.1447 194.422 15.9116 194.422 15.6505L194.403 15.485C194.403 15.1008 194.417 14.7166 194.417 14.3362L194.45 14.1481L194.445 14.0767L194.475 13.7371L194.468 13.6462L194.457 13.2783L194.426 13.1731L194.463 12.9403L194.426 12.7892C194.408 12.5938 194.403 12.4088 194.371 12.2239C194.337 12.0479 194.277 11.8611 194.235 11.6886L194.217 11.5017L194.157 11.1497L194.106 10.9648C194.081 10.7818 194.113 10.5666 194.122 10.4011V10.1575L194.184 9.90688L194.231 9.60622L194.436 9.23637L194.574 8.89137L194.593 8.79189L194.772 8.60889ZM183.035 9.00679C183.224 9.05845 183.424 8.99437 183.624 9.01732L183.937 9.08491H184.251L184.525 9.12955L184.877 9.10468L184.97 9.13498H185.089L185.333 9.16335L185.485 9.14549C185.649 9.14007 185.812 9.14741 185.971 9.15442L186.276 9.13848L186.414 9.15442L186.642 9.13115L186.927 9.12924L187.234 9.09927L187.36 9.12924L187.722 9.12031L187.814 9.13465L188.194 9.07088L188.409 9.11171L188.515 9.09193L188.641 9.12924L188.727 9.11871L188.985 9.13465C189.299 9.1892 189.598 9.30909 189.864 9.48665L190.072 9.65564L190.394 9.94578L190.541 10.2582V10.3545L190.586 10.5216L190.558 10.8293C190.541 11.1583 190.519 11.5562 190.586 11.8693L190.663 12.083C190.712 12.2411 190.747 12.4401 190.747 12.6218L190.708 12.8048L190.632 13.1728C190.617 13.3453 190.593 13.5197 190.574 13.6902L190.599 14.0442C190.61 14.2594 190.525 14.4373 190.41 14.59L190.076 14.8068L189.912 14.7128L189.745 14.7147L189.634 14.5278L189.519 14.6914L189.394 14.7647L189.249 14.9477H189.129L189.058 14.9975L188.925 15.0204H188.922L188.588 14.8942L188.517 14.7485L188.422 14.7963L188.188 14.5065L188.116 14.4338L188.008 14.231L187.945 14.1475L187.955 13.9536L187.939 13.63L187.955 13.3864L187.987 13.278L187.968 13.1728L187.95 12.8208L188.079 12.5721L188.095 12.2698L188.134 12.0387L188.102 11.8429C188.049 11.6063 187.955 11.5352 187.734 11.466L187.51 11.4533C187.349 11.4322 187.174 11.4054 187.008 11.3984L186.78 11.4109L186.701 11.3806L186.476 11.3914L186.031 11.3557L185.698 11.3771C185.476 11.3771 185.237 11.3646 184.999 11.3646C184.831 11.3646 184.677 11.4109 184.509 11.4144C184.297 11.4214 184.097 11.3914 183.873 11.4144L183.687 11.459L183.399 11.4338L183.143 11.4498L183.02 11.4357L182.899 11.4536L182.608 11.466L182.426 11.4606C182.014 11.5212 181.616 11.6101 181.194 11.6509L180.858 11.7539L180.448 11.7593L180.298 11.7007L180.119 11.6634L179.907 11.4517L179.771 11.1245C179.704 10.9983 179.609 10.9004 179.611 10.7368L179.639 10.4613L179.57 10.2018L179.701 10.0328L179.907 9.79815L180.321 9.58997L180.616 9.34636C180.777 9.29853 180.962 9.30907 181.13 9.27527C181.377 9.22553 181.623 9.19524 181.878 9.15411L182.153 9.08684L182.502 9.0779L182.758 9.03517L183.035 9.00679ZM185.728 11.2282L185.76 11.26Z" fill="black"/>
<path d="M184.33 13.2333L184.611 13.2706C184.782 13.3739 184.876 13.5675 185.003 13.7186L185.32 14.0744L185.523 14.3926L185.68 14.75L185.707 15.022L185.779 15.367L185.781 15.6374L185.827 15.7477L185.882 15.865L186.152 15.9058L186.444 16.027L186.719 16.0162L186.914 16.0286L187.129 15.9948L187.25 16.0127L187.317 15.9754L187.368 15.9878L187.419 15.9664L187.661 15.9521L188.071 15.9808L188.186 16.0037L188.243 16.0391L188.577 16.0605L188.697 16.0802L188.755 16.0197L188.641 15.9253L189.193 16.0018L189.263 16.064L189.337 15.9754L189.459 16.0002L189.58 15.9948L190.022 16.0481C190.188 16.0694 190.363 16.1176 190.503 16.1976L190.835 16.4055L190.978 16.4373L191.049 16.6382L191.187 16.7186C191.36 16.8142 191.351 16.9746 191.341 17.1541L191.358 17.2963L190.917 17.2839L190.984 17.5931L190.878 17.7357L190.869 17.8903L190.625 18.1269L190.441 18.1875L190.409 18.285L190.358 18.3651L190.328 18.477L190.227 18.6157L190.213 18.623L190.204 18.6262L189.844 18.6102L189.701 18.5659L189.504 18.6071L189.174 18.5535L189.089 18.5146L188.943 18.5305L188.884 18.4664L188.771 18.5251L188.577 18.4843L188.497 18.4505L188.32 18.4913L188.108 18.4859L188.011 18.5108L187.751 18.4735L187.389 18.4773L187.25 18.4505L187.145 18.4645L187.011 18.4256L186.856 18.4703L186.64 18.454L186.474 18.4932L186.357 18.4983L186.188 18.5395L185.972 18.5181L185.866 18.5251L185.792 18.5108L185.712 18.5341L185.396 18.5181C185.184 18.5146 184.973 18.557 184.77 18.5535L184.696 18.5395L184.449 18.5659H184.04L183.867 18.6265L183.782 18.6157L183.32 18.6763H183.157L182.961 18.7279L182.701 18.7384L182.268 18.8896L181.881 18.9661L181.771 19.0123L181.511 18.9677L181.349 18.9485L181.114 18.8612L180.967 18.8487L180.601 18.7547L180.186 18.6584L179.808 18.3367L179.737 18.1875L179.606 17.9936L179.585 17.6451L179.619 17.5527L179.642 17.4015L179.727 17.2555L179.788 17.1327L180.061 17.0103L179.979 16.7399L180.022 16.6315L180.135 16.5177L180.357 16.4979L180.545 16.4128H180.72L180.831 16.365L181.103 16.3168L181.374 16.3774C181.554 16.372 181.736 16.3293 181.909 16.3009L182.148 16.283L182.356 16.2314L182.503 16.2205L182.644 16.1816L182.777 16.1848L183.065 16.1246C183.243 15.9629 183.173 15.4847 183.173 15.2391L183.192 15.0329L183.015 14.7287L182.957 14.4621L183.039 14.0904C183.095 13.8806 183.244 13.717 183.409 13.5783L183.526 13.4699L183.683 13.4361L183.904 13.3258L184.33 13.2333ZM188.987 15.9897L188.939 16.0465ZM181.361 19.2065L181.769 19.2384L181.981 19.3755L182.063 19.4147C182.224 19.5285 182.361 19.6742 182.508 19.7986L182.715 19.9711L182.84 20.3747L182.803 20.5294L182.798 20.6878L182.727 20.8638L182.725 20.9971L182.66 21.1661L182.651 21.3013L182.615 21.4734L182.621 21.6105L182.602 22.0515L183.054 22.3824L183.218 22.3856L183.34 22.4L183.444 22.3809L183.554 22.3876L183.628 22.3716L183.72 22.386L183.858 22.3627L184.072 22.4C184.342 22.4 184.616 22.3502 184.892 22.3448L185.136 22.3662L185.227 22.3502L185.454 22.3592L185.698 22.3362C186.021 22.3289 186.328 22.3184 186.643 22.2721L187.053 22.2667L187.163 22.2329L187.405 22.231L187.737 22.1832L188.012 22.1918L188.136 22.1742L188.357 22.1991C188.536 22.1832 188.691 22.1672 188.866 22.142L188.987 22.1047L189.184 22.1242L189.326 22.0942L189.596 22.0834L190.052 22.0496L190.142 22.0266L190.278 22.0317L190.478 21.9979C190.74 21.9947 191.003 22.0317 191.27 22.0177L191.709 21.9909L191.831 21.9641L192.215 21.9393L192.395 21.9342L192.485 21.9501L192.699 21.8701L192.991 21.8254L193.277 21.8363L193.44 21.8184L193.721 21.8701L194.131 21.8841L194.329 21.8717L194.643 21.8949L194.815 21.9287L195.166 21.9198L195.636 21.9606L196.078 21.9625L196.202 21.9396L196.223 21.8949L196.232 21.8918L196.308 21.9077L196.394 21.8949L196.56 21.966L196.689 21.9128H196.78L196.886 21.8933L197.013 21.9198L197.206 21.9306L197.479 21.9361L197.663 21.9874L197.785 21.9893L198.091 22.0642C198.271 22.1388 198.467 22.3289 198.522 22.5157L198.535 22.5922L198.467 22.6369L198.356 22.8145L198.301 22.804L198.271 22.8339L198.33 22.9194L198.294 22.9691L198.179 22.9337L198.029 22.9477L197.911 22.905L197.78 22.971L197.801 22.994L197.951 23.0048L198.045 23.0759L198.075 23.0864L198.259 23.0616L198.315 23.0651L198.36 23.0511L198.421 23.0989L198.513 23.156L198.471 23.1808L198.365 23.1952L197.935 23.2022L197.928 23.2341L198.036 23.4652V23.4936L198.015 23.7162L197.911 23.7748L197.858 24.0592L197.879 24.1125L197.882 24.1303L197.821 24.1517L197.767 24.2084L197.52 24.3277L197.536 24.5056L197.506 24.6086L197.13 24.687L196.81 24.6622L196.614 24.6494L196.393 24.5286L196.28 24.5002L196.189 24.4575L195.984 24.4932L195.921 24.4559L195.806 24.4291L195.787 24.4147L195.836 24.3899L196.083 24.3988L195.972 24.2655H195.87L195.652 24.2406L195.53 24.2174L195.136 24.2034L194.949 24.2174L194.83 24.2014L194.588 24.2209L194.33 24.2104L194.262 24.2442L194.147 24.2263L193.828 24.2352L193.698 24.3685L193.217 24.4361L193.079 24.4023L192.933 24.3829L192.833 24.3207L192.584 24.3239L192.567 24.2193L192.413 24.1874L192.151 24.1925C191.989 24.182 191.823 24.1479 191.66 24.1479L191.513 24.196L191.354 24.1676L191.224 24.2084L191.041 24.1711L190.766 24.2869L190.656 24.2888L190.584 24.2515L190.34 24.2406L190.126 24.2655L189.778 24.2636L189.488 24.3188L189.232 24.2974L189.064 24.2636L188.97 24.2869L188.838 24.3009L188.728 24.3631L188.348 24.3899L188.069 24.4434L187.997 24.438L187.737 24.461L187.597 24.5126L187.444 24.5445L187.313 24.5359L187.173 24.5589L186.945 24.5534L186.917 24.5662L186.98 24.6708L187.389 24.6478L187.795 24.6424L187.399 24.7065L187.097 24.7457L186.903 24.7527L186.793 24.7776L186.643 24.783L186.231 24.8557C185.682 24.9073 185.166 24.945 184.634 25.0142L184.459 25.0639L184.342 25.0709L184.116 25.1439L183.796 25.1847L183.612 25.2345L183.296 25.2185L183.126 25.2523L182.789 25.2504L182.621 25.2912L182.536 25.2807L182.227 25.2737L182.059 25.311L181.803 25.3234L181.647 25.2609L181.53 25.259L181.419 25.2166L181.089 25.1685L180.868 25.0636L180.666 25.0298L180.364 24.7097L180.29 24.6226L180.232 24.4928L180.111 24.3239L180.019 24.0446L179.983 23.9521L179.977 23.8297L179.905 23.5698L179.924 23.2621L179.901 23.0507L179.896 22.7112L179.885 22.3145L179.896 22.1934L179.885 21.7792C179.905 21.6032 179.99 21.4734 180.018 21.3028L180.048 21.0892C180.057 20.9027 180.027 20.7213 180.059 20.5399L180.108 20.4295L180.149 20.2695L180.271 20.1486L180.426 19.9513L180.594 19.7982L180.651 19.7042L180.882 19.5798L181.154 19.3359L181.361 19.2065ZM192.838 24.1686L192.85 24.1935Z" fill="black"/>
<path d="M186.747 24.629L186.541 24.7413C186.581 24.814 186.979 24.6574 186.747 24.629ZM81.5297 29.426C82.2085 29.426 82.7297 29.6004 83.0919 29.9454C83.4506 30.2884 83.6328 30.6742 83.6328 31.1012C83.6328 31.4513 83.3923 31.8657 82.91 32.344C82.91 32.3494 83.0884 32.4668 83.4471 32.6979C83.8043 32.9291 83.9827 33.3292 83.9827 33.9054C83.9827 34.661 83.707 35.1839 83.1591 35.4804C82.6096 35.7776 82.127 35.9252 81.71 35.9252H79.1687V29.426H81.5297ZM80.5791 34.7943H81.5633C81.8498 34.7943 82.09 34.7018 82.2826 34.5134C82.4772 34.3266 82.5761 34.1078 82.5761 33.8534C82.5761 33.6012 82.4823 33.3806 82.2915 33.194C82.1042 33.0072 81.8586 32.9147 81.5544 32.9147H80.5791V34.7943ZM80.5861 31.8249H81.5123C81.6606 31.8249 81.8127 31.7749 81.9718 31.67C82.1289 31.5651 82.2066 31.4085 82.2066 31.1952C82.2066 31.0052 82.1359 30.8522 81.9927 30.7383C81.8546 30.6252 81.6815 30.5643 81.5034 30.5662H80.5861M90.3642 29.426V33.8961C90.3642 34.0938 90.4507 34.3141 90.624 34.5577C90.7936 34.8013 91.0781 34.9244 91.4723 34.9244C91.8541 34.9244 92.1387 34.8013 92.3206 34.5577C92.5044 34.3141 92.5944 34.0938 92.5944 33.8964V29.4263H94.07V33.6723C94.07 34.2255 93.8438 34.7659 93.3897 35.2958C92.9337 35.8257 92.294 36.0907 91.4723 36.0907C90.6595 36.0907 90.0267 35.8222 89.5711 35.2904C89.1167 34.7605 88.8885 34.2182 88.8885 33.6723V29.426M101.467 30.4756C101.253 30.4756 101.062 30.5413 100.891 30.6781C100.719 30.8132 100.634 30.9644 100.634 31.1299C100.634 31.4411 100.816 31.6617 101.182 31.7895C101.548 31.9193 101.898 32.0599 102.228 32.2091C102.618 32.3799 102.994 32.5808 103.352 32.8101C103.707 33.0378 103.904 33.4628 103.937 34.0906C103.966 34.5992 103.732 35.0599 103.236 35.4756C102.744 35.8933 102.158 36.0999 101.483 36.0926C100.665 36.0894 100.044 35.8471 99.6163 35.3707C99.1923 34.8995 98.9784 34.4142 98.9784 33.9181H100.446C100.446 34.1419 100.53 34.3607 100.702 34.5705C100.873 34.7806 101.126 34.8836 101.458 34.8836C101.783 34.8836 102.029 34.7857 102.2 34.5829C102.368 34.382 102.446 34.2258 102.435 34.1174C102.419 33.9092 102.352 33.7367 102.234 33.5996C102.117 33.4628 101.921 33.335 101.647 33.2192C101.114 32.9928 100.576 32.777 100.034 32.572C99.4556 32.3532 99.1657 31.8909 99.1657 31.1815C99.1657 30.6781 99.3954 30.2282 99.8533 29.8408C100.311 29.4496 100.851 29.2573 101.476 29.2573C102.154 29.2573 102.704 29.4566 103.117 29.8567C103.531 30.2585 103.757 30.6959 103.79 31.1742H102.29C102.29 31.0001 102.207 30.8419 102.041 30.6959C101.884 30.5517 101.679 30.4729 101.467 30.4756ZM112.343 29.426L115.072 35.9252H113.663L113.046 34.389H110.146L109.521 35.9252H108.114L110.859 29.426H112.343ZM110.663 33.2045H112.523L111.597 30.884M121.378 29.426L123.934 33.6991V29.426H125.367V35.9252H123.833L121.276 31.6451V35.9252H119.842V29.426M139.144 29.4333L140.876 34.2255L142.609 29.4333H144.446V35.9252H143.037V31.7644L141.554 35.9252H140.199L138.715 31.8354V35.9252H137.308V29.4336M150.786 29.426V33.8961C150.786 34.0938 150.87 34.3141 151.043 34.5577C151.215 34.8013 151.498 34.9244 151.892 34.9244C152.275 34.9244 152.56 34.8013 152.742 34.5577C152.924 34.3141 153.018 34.0938 153.018 33.8964V29.4263H154.491V33.6723C154.491 34.2255 154.265 34.7659 153.809 35.2958C153.355 35.8257 152.719 36.0907 151.892 36.0907C151.081 36.0907 150.446 35.8222 149.992 35.2904C149.538 34.7605 149.31 34.2182 149.31 33.6723V29.426M161.886 30.4756C161.676 30.4756 161.485 30.5413 161.313 30.6781C161.14 30.8132 161.053 30.9644 161.053 31.1299C161.053 31.4411 161.235 31.6617 161.605 31.7895C161.971 31.9193 162.319 32.0599 162.649 32.2091C163.039 32.3799 163.416 32.5808 163.775 32.8101C164.129 33.0378 164.325 33.4628 164.36 34.0906C164.388 34.5992 164.153 35.0599 163.66 35.4756C163.164 35.8933 162.58 36.0999 161.903 36.0926C161.087 36.0894 160.465 35.8471 160.035 35.3707C159.611 34.8995 159.398 34.4142 159.398 33.9181H160.866C160.866 34.1419 160.951 34.3607 161.124 34.5705C161.294 34.7806 161.547 34.8836 161.879 34.8836C162.204 34.8836 162.451 34.7857 162.621 34.5829C162.789 34.382 162.867 34.2258 162.856 34.1174C162.84 33.9092 162.773 33.7367 162.654 33.5996C162.538 33.4628 162.342 33.335 162.066 33.2192C161.533 32.9922 160.995 32.7764 160.452 32.572C159.878 32.3532 159.59 31.8909 159.59 31.1815C159.59 30.6781 159.818 30.2282 160.274 29.8408C160.732 29.4496 161.273 29.2573 161.896 29.2573C162.575 29.2573 163.125 29.4566 163.538 29.8567C163.953 30.2585 164.178 30.6959 164.212 31.1742H162.711C162.711 31.0001 162.628 30.8419 162.462 30.6959C162.305 30.5511 162.099 30.4723 161.886 30.4756ZM173.845 29.4333V30.6602H170.749V31.9547H173.759V33.1478H170.749V34.7088H173.932V35.9252H169.3V29.4336M180.339 29.426V33.8961C180.339 34.0938 180.424 34.3141 180.596 34.5577C180.767 34.8013 181.052 34.9244 181.448 34.9244C181.829 34.9244 182.112 34.8013 182.296 34.5577C182.478 34.3141 182.57 34.0938 182.57 33.8964V29.4263H184.045V33.6723C184.045 34.2255 183.819 34.7659 183.363 35.2958C182.907 35.8257 182.269 36.0907 181.448 36.0907C180.634 36.0907 180 35.8222 179.546 35.2904C179.092 34.7605 178.864 34.2182 178.864 33.6723V29.426M190.744 29.4333L192.479 34.2255L194.211 29.4333H196.047V35.9252H194.639V31.7644L193.156 35.9252H191.801L190.316 31.8354V35.9252H188.909V29.4336" fill="black"/>
<path d="M36.9026 34.2822H70.9761V-0.000732422H36.9026V34.2822ZM64.7486 28.0196H43.1304V6.26351H64.7486" fill="#0338A0"/>
<path d="M0 39.999H34.0682V5.71063H0V39.999ZM25.902 31.7713H8.17854V13.9434H25.902" fill="#B79427"/>
</g>
<defs>
<clipPath id="clip0_52_496">
<rect width="200" height="40" fill="white"/>
</clipPath>
</defs>
</svg>
