<svg width="423" height="124" viewBox="0 0 423 124" fill="none" xmlns="http://www.w3.org/2000/svg">
<g filter="url(#filter0_d_52_522)">
<path d="M13.1166 32.32C13.1166 32.24 13.1566 32 13.2366 31.6C13.3166 31.2 13.3966 30.8 13.4766 30.4C13.5566 30 13.6366 29.64 13.7166 29.32C13.7966 28.92 13.8366 28.68 13.8366 28.6V27.88C13.8366 27.64 13.8766 27.24 13.9566 26.68C14.1166 26.04 14.2766 25.4 14.4366 24.76C14.6766 24.12 14.8766 23.48 15.0366 22.84C15.1966 22.2 15.3166 21.72 15.3966 21.4C15.4766 21.08 15.6366 20.6 15.8766 19.96C16.1166 19.24 16.3166 18.52 16.4766 17.8C16.7166 17.08 16.9166 16.44 17.0766 15.88C17.3166 15.24 17.4766 14.8 17.5566 14.56C17.7966 14.16 18.0366 13.72 18.2766 13.24C18.5166 12.76 18.8766 12.52 19.3566 12.52H19.7166C20.7566 13.16 21.3566 13.92 21.5166 14.8C21.6766 15.6 22.0766 16.48 22.7166 17.44C23.4366 22.24 23.7966 27.04 23.7966 31.84H25.1166C27.5966 30.72 29.9566 29.72 32.1966 28.84C34.1166 28.04 36.1166 27.24 38.1966 26.44C40.2766 25.64 41.9966 24.96 43.3566 24.4C45.0366 23.76 46.2366 22.72 46.9566 21.28C47.7566 19.76 48.4766 18.28 49.1166 16.84L50.4366 14.2H50.7966C50.7966 13.88 50.8766 13.56 51.0366 13.24C51.1166 13 51.1966 12.76 51.2766 12.52C51.4366 12.2 51.5966 11.96 51.7566 11.8L52.1166 9.99999L52.4766 8.8L52.1166 7.12V6.28C52.7566 5.4 53.3166 4.68 53.7966 4.12C54.3566 3.56 55.1966 3.27999 56.3166 3.27999C56.8766 3.27999 57.5166 3.51999 58.2366 3.99999C58.9566 4.39999 59.5966 4.91999 60.1566 5.55999C60.7166 6.2 61.1966 6.92 61.5966 7.72C61.9966 8.44 62.1966 9.12 62.1966 9.76V9.99999C61.3166 14.64 60.1966 19.28 58.8366 23.92C57.5566 28.48 56.1566 32.92 54.6366 37.24C54.6366 37.56 54.4766 37.96 54.1566 38.44C53.9166 38.92 53.7966 39.28 53.7966 39.52L52.1166 42.88C51.9566 43.04 51.6766 43.44 51.2766 44.08C50.9566 44.64 50.7966 45.04 50.7966 45.28L50.4366 47.44L49.5966 48.64C49.3566 48.88 49.0766 49.32 48.7566 49.96C48.5166 50.6 48.3966 51 48.3966 51.16V52C48.0766 52.88 47.8366 53.52 47.6766 53.92C47.5966 54.24 47.2766 54.6 46.7166 55C45.5966 55.64 44.4366 56.12 43.2366 56.44C42.0366 56.76 40.8766 57.28 39.7566 58C39.6766 58 39.4766 58.12 39.1566 58.36C38.9166 58.52 38.5966 58.72 38.1966 58.96C37.8766 59.2 37.5166 59.44 37.1166 59.68C36.7966 59.84 36.5966 59.92 36.5166 59.92C36.3566 60 36.0366 60.16 35.5566 60.4C35.0766 60.64 34.5166 60.92 33.8766 61.24C33.3166 61.48 32.7966 61.76 32.3166 62.08C31.8366 62.32 31.5566 62.52 31.4766 62.68C30.1966 63.16 28.9166 63.84 27.6366 64.72C26.3566 65.52 24.9566 65.92 23.4366 65.92C22.5566 65.92 21.9566 65.72 21.6366 65.32C21.3166 64.92 20.9566 64.36 20.5566 63.64L20.0766 63.4C18.4766 61.32 17.1966 59.28 16.2366 57.28C15.3566 55.28 14.6766 53.28 14.1966 51.28C13.7166 49.2 13.3966 47.08 13.2366 44.92C13.1566 42.76 13.1166 40.4 13.1166 37.84V32.32ZM4.95656 83.08C5.11656 82.84 5.35656 82.52 5.67656 82.12C6.07656 81.72 6.43656 81.52 6.75656 81.52L8.67656 81.04C10.9166 80.56 12.9966 79.84 14.9166 78.88C16.8366 77.84 18.7166 76.88 20.5566 76C25.8366 73.44 31.1166 71.24 36.3966 69.4C41.7566 67.56 47.2766 66.64 52.9566 66.64H54.1566C54.2366 66.64 54.4766 66.68 54.8766 66.76C55.3566 66.76 55.8366 66.8 56.3166 66.88C56.7966 66.96 57.2366 67.04 57.6366 67.12C58.0366 67.12 58.3166 67.12 58.4766 67.12C58.8766 67.12 59.4766 67.2 60.2766 67.36C61.1566 67.44 61.9966 67.64 62.7966 67.96C63.6766 68.2 64.4366 68.56 65.0766 69.04C65.7166 69.44 66.0366 69.96 66.0366 70.6L65.6766 71.32L64.2366 71.8C63.6766 71.96 63.2366 72.44 62.9166 73.24C62.5966 74.04 62.1166 74.44 61.4766 74.44V73.96C58.5166 73.64 55.7166 73.64 53.0766 73.96C50.4366 74.2 47.9166 74.64 45.5166 75.28C43.1166 75.84 40.7966 76.56 38.5566 77.44C36.3166 78.32 34.0766 79.16 31.8366 79.96C29.9966 80.6 28.0366 81.32 25.9566 82.12C23.8766 82.84 21.9166 83.6 20.0766 84.4C19.6766 84.64 19.1566 84.96 18.5166 85.36C17.8766 85.68 17.2366 86 16.5966 86.32C16.0366 86.56 15.5166 86.8 15.0366 87.04C14.5566 87.28 14.2766 87.4 14.1966 87.4L12.3966 89.08C12.2366 89.32 11.6766 89.44 10.7166 89.44C10.1566 89.44 9.51656 89.28 8.79656 88.96C8.15656 88.56 7.55656 88.08 6.99656 87.52C6.43656 86.96 5.95656 86.32 5.55656 85.6C5.15656 84.88 4.95656 84.16 4.95656 83.44V83.08ZM36.0366 101.92C36.0366 101.52 36.0766 100.8 36.1566 99.76C36.3166 98.8 36.4366 97.72 36.5166 96.52C36.6766 95.32 36.8366 94.16 36.9966 93.04C37.1566 91.92 37.3166 91 37.4766 90.28C37.6366 89.4 37.7966 88.64 37.9566 88C38.1166 87.28 38.3966 86.48 38.7966 85.6C38.7966 85.36 38.8366 85 38.9166 84.52C38.9966 84.04 39.0766 83.52 39.1566 82.96C39.3166 82.32 39.4366 81.76 39.5166 81.28C39.5966 80.8 39.6766 80.44 39.7566 80.2L40.3566 79.72C41.5566 79.72 42.6766 80.28 43.7166 81.4C44.8366 82.44 45.3966 83.56 45.3966 84.76C45.3966 86.04 45.3566 87.2 45.2766 88.24C45.2766 89.28 45.2366 90.32 45.1566 91.36C45.0766 92.4 44.9566 93.44 44.7966 94.48C44.7166 95.6 44.5966 96.84 44.4366 98.2C44.4366 98.28 44.3566 98.56 44.1966 99.04C44.1166 99.6 43.9966 100.24 43.8366 100.96C43.7566 101.68 43.6366 102.36 43.4766 103C43.3166 103.64 43.1966 104.12 43.1166 104.44C42.7166 106.28 41.9966 108.08 40.9566 109.84C39.9966 111.68 39.3166 113.52 38.9166 115.36C38.0366 114.96 37.4366 114.16 37.1166 112.96C36.7966 111.84 36.5166 110.96 36.2766 110.32C36.1166 109.2 36.0366 108.32 36.0366 107.68C36.0366 107.12 36.0366 106.2 36.0366 104.92V101.92ZM23.0766 43.6C23.0766 43.68 23.0366 43.88 22.9566 44.2C22.9566 44.44 22.9166 44.72 22.8366 45.04C22.8366 45.36 22.7966 45.68 22.7166 46C22.7166 46.32 22.7166 46.52 22.7166 46.6V55.96C28.7166 55.96 33.1966 54.12 36.1566 50.44C37.8366 48.44 39.0366 45.72 39.7566 42.28C40.3966 41 40.7166 39.76 40.7166 38.56H40.3566L39.5166 39.04C37.9966 39.6 36.5966 40.12 35.3166 40.6C34.0366 41.08 32.6366 41.64 31.1166 42.28C30.4766 42.6 29.8366 42.96 29.1966 43.36C28.5566 43.68 27.9166 43.84 27.2766 43.84C26.6366 43.84 25.9966 43.8 25.3566 43.72C24.7966 43.64 24.2766 43.6 23.7966 43.6H23.0766ZM103.757 88.36L104.117 86.92C104.357 86.52 104.597 86 104.837 85.36C105.157 84.64 105.397 84.16 105.557 83.92C105.557 83.76 105.877 83.48 106.517 83.08C107.157 82.68 107.477 82.36 107.477 82.12C109.477 79.8 111.397 77.44 113.237 75.04C115.077 72.56 116.997 70.12 118.997 67.72C120.357 66.36 121.717 64.96 123.077 63.52C124.437 62.08 125.757 60.64 127.037 59.2C127.277 58.64 127.797 58.04 128.597 57.4C129.477 56.76 129.997 56.16 130.157 55.6C127.757 54.48 125.797 53.44 124.277 52.48C122.757 51.44 121.557 49.96 120.677 48.04C120.197 47.08 119.957 46.08 119.957 45.04C119.957 44 119.957 42.88 119.957 41.68C119.957 40.32 120.157 39 120.557 37.72C121.037 36.36 121.477 34.96 121.877 33.52C122.277 31.76 122.677 30.04 123.077 28.36C123.557 26.6 124.037 24.8 124.517 22.96L125.597 20.92L126.197 18.16C126.197 17.84 126.397 17.48 126.797 17.08C127.277 16.6 127.517 16.28 127.517 16.12V15.16C127.517 14.76 127.677 14.32 127.997 13.84C128.317 13.36 128.517 12.92 128.597 12.52L129.317 11.8V10.72L129.917 10.48C130.157 9.92 130.437 9.36 130.757 8.8C131.157 8.15999 131.677 7.83999 132.317 7.83999C132.877 7.83999 133.477 7.99999 134.117 8.31999C134.757 8.64 135.237 9 135.557 9.39999C135.637 9.39999 135.837 9.52 136.157 9.76C136.477 9.99999 136.837 10.28 137.237 10.6C137.637 10.92 137.997 11.24 138.317 11.56C138.717 11.88 138.997 12.12 139.157 12.28L139.517 12.52C139.677 12.92 139.877 13.52 140.117 14.32C140.437 15.12 140.597 15.6 140.597 15.76C140.597 16.48 140.437 17.32 140.117 18.28C139.877 19.24 139.557 20 139.157 20.56L138.077 21.88L137.837 22.72C137.597 23.36 137.277 24.24 136.877 25.36C136.557 26.4 136.197 27.48 135.797 28.6C135.397 29.72 135.037 30.72 134.717 31.6C134.397 32.48 134.197 33 134.117 33.16C134.117 33.24 134.037 33.52 133.877 34C133.797 34.48 133.677 35 133.517 35.56C133.437 36.04 133.317 36.52 133.157 37C133.077 37.4 133.037 37.64 133.037 37.72C132.877 38.36 132.717 38.96 132.557 39.52C132.397 40.08 132.317 40.72 132.317 41.44C132.317 42.88 133.197 43.6 134.957 43.6H135.197C135.357 43.6 135.597 43.48 135.917 43.24C136.237 42.92 136.477 42.76 136.637 42.76H140.957C142.397 43.72 143.877 44.44 145.397 44.92C146.997 45.32 148.517 45.84 149.957 46.48C150.357 46.64 151.077 47 152.117 47.56C153.237 48.04 153.997 48.44 154.397 48.76C155.277 49.24 155.837 49.84 156.077 50.56C156.317 51.2 156.437 52 156.437 52.96V54.52C156.437 54.6 156.357 54.8 156.197 55.12C156.037 55.36 155.837 55.64 155.597 55.96C155.357 56.28 155.117 56.6 154.877 56.92C154.637 57.16 154.477 57.28 154.397 57.28C153.597 57.68 152.717 57.96 151.757 58.12C150.877 58.2 150.037 58.4 149.237 58.72C149.077 58.72 148.637 58.92 147.917 59.32C147.277 59.64 146.757 59.92 146.357 60.16L145.277 61L144.557 61.24C144.397 61.48 143.957 61.92 143.237 62.56C142.597 63.2 142.197 63.6 142.037 63.76L141.317 64.12C140.837 64.52 140.277 65 139.637 65.56C138.997 66.04 138.477 66.56 138.077 67.12L137.837 67.72L134.957 70.6L134.477 71.44L133.037 71.68C132.877 71.68 132.637 71.8 132.317 72.04C131.997 72.2 131.757 72.36 131.597 72.52L131.237 73.6H130.397L129.317 74.2L119.717 85.6H121.637C121.877 85.6 122.237 85.56 122.717 85.48C123.197 85.4 123.677 85.32 124.157 85.24C124.637 85.08 125.077 84.96 125.477 84.88C125.877 84.8 126.117 84.76 126.197 84.76C126.437 84.76 126.957 84.68 127.757 84.52C128.637 84.28 129.557 84.08 130.517 83.92C131.557 83.68 132.477 83.48 133.277 83.32C134.157 83.08 134.717 82.96 134.957 82.96C136.957 82.56 138.957 82.2 140.957 81.88C142.957 81.56 144.757 80.68 146.357 79.24C146.197 80.04 146.277 80.76 146.597 81.4C146.917 81.96 147.077 82.6 147.077 83.32H148.637C148.797 83.64 148.877 84 148.877 84.4V85.12V86.2L147.797 86.92C147.637 86.92 147.317 87.24 146.837 87.88C146.437 88.44 146.157 88.72 145.997 88.72C145.437 89.12 144.837 89.52 144.197 89.92C143.637 90.24 143.237 90.68 142.997 91.24L142.037 92.68L140.597 93.04C140.437 93.04 140.077 93.24 139.517 93.64C139.037 93.96 138.677 94.12 138.437 94.12C137.717 94.52 136.717 94.88 135.437 95.2C134.237 95.52 133.197 95.8 132.317 96.04L115.397 98.8C114.997 98.96 114.757 99.04 114.677 99.04C114.757 99.04 114.757 99.04 114.677 99.04C114.597 99.12 114.397 99.24 114.077 99.4C113.357 99.88 112.717 100.24 112.157 100.48C111.677 100.72 110.997 100.84 110.117 100.84C109.557 100.84 109.197 100.8 109.037 100.72C108.957 100.72 108.717 100.64 108.317 100.48L105.557 99.28C105.237 99.04 105.037 98.64 104.957 98.08C104.877 97.52 104.757 97.04 104.597 96.64C104.437 96.32 104.277 95.84 104.117 95.2C103.957 94.64 103.797 94.08 103.637 93.52C103.477 92.96 103.317 92.48 103.157 92.08C103.077 91.6 103.037 91.32 103.037 91.24V89.56L103.757 88.36ZM72.1969 62.32C72.1969 58.96 72.8769 55.84 74.2369 52.96C75.6769 50.08 77.1969 47.12 78.7969 44.08C79.9169 42 81.1969 40 82.6369 38.08C84.1569 36.16 85.6369 34.28 87.0769 32.44C87.3169 32.2 87.7969 31.68 88.5169 30.88C89.3169 30 90.1969 29.04 91.1569 28C92.1169 26.88 93.0369 25.8 93.9169 24.76C94.8769 23.64 95.6369 22.8 96.1969 22.24C97.1569 21.12 98.1169 20.08 99.0769 19.12C100.117 18.08 101.117 16.96 102.077 15.76L103.037 14.68C103.437 14.44 103.957 13.92 104.597 13.12C104.917 12.8 105.237 12.36 105.557 11.8L106.037 10.72C106.117 10.32 106.397 9.99999 106.877 9.76C107.357 9.52 107.757 9.39999 108.077 9.39999C108.477 9.39999 108.957 9.63999 109.517 10.12C110.077 10.6 110.437 10.96 110.597 11.2C111.877 12.24 113.237 13.36 114.677 14.56C116.117 15.76 116.837 17.24 116.837 19C116.837 19.96 116.597 20.88 116.117 21.76C115.637 22.56 114.997 23.24 114.197 23.8C114.117 23.88 113.997 23.92 113.837 23.92C113.677 24 113.437 24.04 113.117 24.04C112.077 24.44 110.997 24.92 109.877 25.48C108.757 26.04 107.797 26.8 106.997 27.76L106.637 28.48C106.317 29.04 105.917 29.52 105.437 29.92C104.957 30.24 104.397 30.6 103.757 31L103.517 31.36C103.277 31.52 102.957 31.92 102.557 32.56C102.157 33.2 101.837 33.6 101.597 33.76L100.997 34.24C100.037 34.96 99.1169 35.88 98.2369 37C97.4369 38.12 96.5969 39.12 95.7169 40C95.5569 40.16 95.1969 40.56 94.6369 41.2C94.0769 41.76 93.4769 42.4 92.8369 43.12C92.1969 43.76 91.5569 44.4 90.9169 45.04C90.2769 45.6 89.8369 45.96 89.5969 46.12L86.7169 49.72C85.1169 51.56 83.5169 53.28 81.9169 54.88C80.3969 56.48 78.9969 58.4 77.7169 60.64C77.3169 61.28 77.0369 61.92 76.8769 62.56C76.7969 63.12 76.6769 63.68 76.5169 64.24C76.3569 64.8 76.1169 65.32 75.7969 65.8C75.4769 66.28 74.9569 66.72 74.2369 67.12C73.6769 66.72 73.1969 66 72.7969 64.96C72.3969 63.92 72.1969 63.04 72.1969 62.32ZM88.7569 51.64C88.7569 50.84 88.8369 50.32 88.9969 50.08C89.2369 49.76 89.7569 49.48 90.5569 49.24C91.5969 49.48 92.7569 49.76 94.0369 50.08C95.3169 50.4 96.3969 51 97.2769 51.88L101.597 57.28C101.997 57.92 102.397 58.52 102.797 59.08C103.277 59.64 103.597 60.28 103.757 61C103.757 61.72 103.997 62.48 104.477 63.28C105.037 64.08 105.637 64.88 106.277 65.68C106.997 66.4 107.597 67.08 108.077 67.72C108.637 68.28 108.917 68.64 108.917 68.8V69.28L108.557 69.52C108.317 69.76 107.917 70 107.357 70.24C106.797 70.48 106.397 70.6 106.157 70.6H106.037C104.837 70.28 103.637 69.76 102.437 69.04C101.317 68.24 100.197 67.4 99.0769 66.52C98.0369 65.64 96.9969 64.72 95.9569 63.76C94.9969 62.8 94.1169 61.96 93.3169 61.24L92.1169 60.64L91.7569 60.16C91.6769 59.84 91.4369 59.36 91.0369 58.72C90.7169 58 90.5569 57.52 90.5569 57.28C90.5569 57.12 90.4769 56.72 90.3169 56.08C90.1569 55.44 90.0769 55 90.0769 54.76L89.2369 54.04C89.0769 53.64 88.9569 53.2 88.8769 52.72C88.7969 52.24 88.7569 51.88 88.7569 51.64ZM161.873 49.96C161.873 49.72 161.913 49.28 161.993 48.64C162.073 48 162.153 47.32 162.233 46.6C162.393 45.88 162.513 45.2 162.593 44.56C162.673 43.92 162.713 43.52 162.713 43.36V40L162.953 38.92V37.6C162.953 37.44 163.073 37.12 163.313 36.64C163.553 36.08 163.673 35.72 163.673 35.56C163.673 35.32 163.833 34.92 164.153 34.36C164.553 33.8 164.753 33.44 164.753 33.28C164.753 33.12 164.873 32.76 165.113 32.2C165.433 31.56 165.593 31.16 165.593 31C165.913 29.48 166.353 28.04 166.913 26.68C167.473 25.24 167.993 23.72 168.473 22.12L168.833 21.28C169.153 20.88 169.313 20.52 169.313 20.2C169.393 19.88 169.513 19.4 169.673 18.76C169.753 18.44 169.873 17.96 170.033 17.32C170.193 16.68 170.393 16.04 170.633 15.4C170.873 14.76 171.073 14.16 171.233 13.6C171.473 12.96 171.633 12.56 171.713 12.4C172.033 11.76 172.313 11.28 172.553 10.96C172.793 10.56 173.273 10.36 173.993 10.36C174.713 10.36 175.473 10.56 176.273 10.96C177.073 11.36 177.793 11.88 178.433 12.52C179.153 13.08 179.713 13.72 180.113 14.44C180.593 15.16 180.833 15.84 180.833 16.48C180.833 17.2 180.673 17.84 180.353 18.4C180.033 18.88 179.673 19.48 179.273 20.2C177.673 23.56 176.313 27 175.193 30.52L174.833 31.36C174.833 31.68 175.033 31.84 175.433 31.84C175.593 31.92 175.793 31.92 176.033 31.84C176.833 31.84 177.553 31.64 178.193 31.24C178.913 30.76 179.593 30.44 180.233 30.28C180.553 30.28 181.113 30.12 181.913 29.8C182.713 29.48 183.193 29.32 183.353 29.32C183.993 29.16 184.873 28.96 185.993 28.72C187.113 28.48 188.193 28.16 189.233 27.76C190.353 27.36 191.353 26.88 192.233 26.32C193.113 25.76 193.633 25.12 193.793 24.4C193.873 24.16 193.953 23.76 194.033 23.2C194.193 22.56 194.313 21.92 194.393 21.28C194.553 20.56 194.673 19.88 194.753 19.24C194.833 18.6 194.873 18.16 194.873 17.92V15.88C194.873 14.76 194.833 13.72 194.753 12.76C194.673 11.72 194.633 10.64 194.633 9.51999C194.633 8.24 194.953 7.12 195.593 6.15999C196.313 5.2 197.353 4.72 198.713 4.72H198.953C199.273 4.72 199.913 4.92 200.873 5.32C201.833 5.64 202.433 5.88 202.673 6.04C202.833 6.04 203.193 6.24 203.753 6.63999C204.313 6.96 204.753 7.12 205.073 7.12C205.473 7.44 206.033 7.88 206.753 8.43999C207.553 8.92 208.033 9.28 208.193 9.51999L209.273 10.6V11.68L209.153 12.64V14.68C208.993 15.8 208.633 16.84 208.073 17.8C207.593 18.76 207.473 19.8 207.713 20.92C207.553 21.24 207.393 21.76 207.233 22.48C207.073 23.12 206.873 23.84 206.633 24.64C206.473 25.36 206.313 26.04 206.153 26.68C205.993 27.32 205.873 27.76 205.793 28L204.473 32.08V33.28L203.873 34.84C203.873 35 203.713 35.48 203.393 36.28C203.153 37 203.033 37.44 203.033 37.6L202.673 38.8V39.64L201.473 40.72V41.44L200.873 43V45.76C200.873 46 200.753 46.32 200.513 46.72C200.273 47.04 199.953 47.4 199.553 47.8C199.233 48.2 198.873 48.6 198.473 49C198.153 49.32 197.833 49.52 197.513 49.6C197.273 49.76 196.873 50.12 196.313 50.68C195.833 51.24 195.273 51.84 194.633 52.48C194.073 53.04 193.513 53.6 192.953 54.16C192.473 54.72 192.113 55.08 191.873 55.24L189.833 57.04C189.593 57.2 189.193 57.64 188.633 58.36C188.073 59.08 187.713 59.6 187.553 59.92L182.993 64.6V66.04L181.913 66.4C181.753 66.4 181.433 66.68 180.953 67.24C180.473 67.72 180.193 67.96 180.113 67.96C179.713 68.28 179.113 68.72 178.313 69.28C177.513 69.84 176.993 70.12 176.753 70.12H175.193C174.393 70.12 173.673 70.04 173.033 69.88C172.473 69.64 171.873 69.52 171.233 69.52C170.833 69.52 170.393 69.76 169.913 70.24C169.513 70.72 168.993 71.08 168.353 71.32L167.513 70.84C167.353 70.68 167.153 70.52 166.913 70.36C166.673 70.2 166.473 70.04 166.313 69.88C165.993 69.64 165.753 69.44 165.593 69.28L164.993 67.96L164.393 67.12C164.233 66.72 164.113 66.28 164.033 65.8C163.953 65.24 163.833 64.84 163.673 64.6C162.873 62.52 162.353 60.48 162.113 58.48C161.953 56.4 161.873 54.2 161.873 51.88V49.96ZM211.913 100.84C211.913 99.08 211.993 97.36 212.153 95.68C212.313 94 212.513 92.28 212.753 90.52C212.833 89.24 212.913 88.16 212.993 87.28C213.073 86.32 213.153 85.4 213.233 84.52C213.393 83.56 213.553 82.6 213.713 81.64C213.873 80.6 214.113 79.4 214.433 78.04C214.513 77.72 214.633 77.28 214.793 76.72C214.953 76.16 215.073 75.6 215.153 75.04C215.313 74.48 215.433 74 215.513 73.6C215.593 73.12 215.633 72.84 215.633 72.76C215.633 72.6 215.753 72.12 215.993 71.32C216.313 70.52 216.633 69.92 216.953 69.52L217.313 68.68V68.2C216.993 68.44 216.393 68.76 215.513 69.16C214.713 69.56 213.833 70 212.873 70.48C211.913 70.88 211.033 71.32 210.233 71.8C209.433 72.2 208.873 72.52 208.553 72.76C208.473 72.84 208.193 73.04 207.713 73.36C207.233 73.6 206.713 73.88 206.153 74.2C205.593 74.52 205.033 74.84 204.473 75.16C203.993 75.4 203.713 75.56 203.633 75.64C203.473 75.64 203.033 75.84 202.313 76.24C201.673 76.64 201.193 76.84 200.873 76.84C199.353 77.48 197.873 78.28 196.433 79.24C194.993 80.2 193.433 80.68 191.753 80.68C191.273 80.68 190.633 80.56 189.833 80.32C189.033 80 188.233 79.64 187.433 79.24C186.633 78.76 185.953 78.24 185.393 77.68C184.833 77.04 184.553 76.36 184.553 75.64C184.553 75.48 184.553 75.36 184.553 75.28C184.633 75.2 184.793 75 185.033 74.68C185.193 74.52 185.433 74.28 185.753 73.96C186.153 73.64 186.553 73.32 186.953 73L188.393 71.8L189.833 71.44C191.433 70.8 192.953 70.04 194.393 69.16C195.913 68.2 197.393 67.2 198.833 66.16C201.473 64.64 203.993 63.24 206.393 61.96C208.793 60.68 211.473 59.48 214.433 58.36L216.473 57.28L216.713 55.24C216.713 55 216.713 54.48 216.713 53.68C216.793 52.88 216.793 52 216.713 51.04C216.713 50.08 216.673 49.2 216.593 48.4C216.513 47.52 216.433 46.96 216.353 46.72L216.953 40.84C217.113 38.52 217.353 36.28 217.673 34.12C217.993 31.96 218.593 29.72 219.473 27.4C219.553 27.08 219.753 26.4 220.073 25.36C220.393 24.24 220.753 23.08 221.153 21.88C221.553 20.6 221.913 19.44 222.233 18.4C222.633 17.28 222.913 16.6 223.073 16.36C223.073 16.2 223.193 15.64 223.433 14.68C223.673 13.72 223.793 13.16 223.793 13C224.033 12.36 224.273 11.8 224.513 11.32C224.833 10.76 224.993 10.16 224.993 9.51999C225.153 8.64 225.153 7.88 224.993 7.23999C224.833 6.6 224.793 5.96 224.873 5.32L224.993 5.07999L227.033 3.16H227.633C228.193 3.16 228.713 3.28 229.193 3.52C229.673 3.76 230.153 3.96 230.633 4.12C230.793 4.36 230.993 4.63999 231.233 4.95999C231.713 5.6 232.033 5.96 232.193 6.04C232.273 6.43999 232.593 6.92 233.153 7.48C233.713 8.04 233.913 8.56 233.753 9.04L233.513 9.51999L233.273 10.6L232.673 16.12C232.513 17.8 232.033 19.64 231.233 21.64C230.433 23.64 229.833 25.56 229.433 27.4C228.873 27.72 228.593 28.16 228.593 28.72C228.673 29.28 228.633 29.88 228.473 30.52C229.513 30.68 230.353 30.56 230.993 30.16C231.633 29.68 232.393 29.4 233.273 29.32C234.873 29 236.593 28.6 238.433 28.12C240.353 27.64 242.153 27.44 243.833 27.52C244.233 27.52 244.873 27.56 245.753 27.64C246.633 27.72 247.513 27.84 248.393 28C249.273 28.16 250.033 28.44 250.673 28.84C251.313 29.16 251.593 29.64 251.513 30.28C251.433 30.68 251.353 31.08 251.273 31.48C251.273 31.88 251.193 32.4 251.033 33.04H250.673C249.953 32.88 249.513 32.72 249.353 32.56C249.193 32.32 248.953 32.2 248.633 32.2C247.993 32.2 247.113 32.64 245.993 33.52C244.873 34.4 243.993 34.96 243.353 35.2C242.233 35.76 240.953 36.28 239.513 36.76C238.073 37.16 236.553 37.52 234.953 37.84C233.433 38.16 231.873 38.4 230.273 38.56C228.753 38.72 227.353 38.76 226.073 38.68C225.433 40.36 225.073 42.08 224.993 43.84C224.913 45.52 224.833 47.2 224.753 48.88C224.753 48.96 224.673 49.32 224.513 49.96C224.353 50.52 224.153 51.16 223.913 51.88C223.753 52.6 223.593 53.28 223.433 53.92C223.273 54.48 223.193 54.8 223.193 54.88L223.073 55.72C223.233 55.72 223.473 55.72 223.793 55.72C224.193 55.64 224.593 55.6 224.993 55.6C225.473 55.6 225.873 55.6 226.193 55.6C226.593 55.52 226.833 55.48 226.913 55.48C227.393 55.56 228.033 55.72 228.833 55.96C229.713 56.12 230.513 56.36 231.233 56.68C232.033 56.92 232.713 57.28 233.273 57.76C233.833 58.24 234.113 58.84 234.113 59.56C234.113 60.28 233.953 60.84 233.633 61.24C233.313 61.64 232.913 62 232.433 62.32C232.033 62.56 231.593 62.84 231.113 63.16C230.713 63.4 230.393 63.72 230.153 64.12L229.553 65.2L228.233 66.64L227.753 67.84L227.513 68.68C226.553 70.04 225.673 71.4 224.873 72.76C224.153 74.12 223.473 75.6 222.833 77.2C222.513 78.48 222.153 79.72 221.753 80.92C221.433 82.12 221.153 83.32 220.913 84.52C220.513 86.76 220.153 88.76 219.833 90.52C219.513 92.2 219.073 94.04 218.513 96.04C218.513 96.2 218.353 96.6 218.033 97.24C217.793 97.96 217.673 98.44 217.673 98.68C217.673 98.76 217.633 99 217.553 99.4C217.473 99.8 217.353 100.24 217.193 100.72C217.113 101.2 217.033 101.64 216.953 102.04C216.873 102.52 216.833 102.8 216.833 102.88C216.833 103.04 216.673 103.4 216.353 103.96C216.113 104.52 215.993 104.88 215.993 105.04C215.913 105.28 215.833 105.6 215.753 106C215.673 106.4 215.553 106.8 215.393 107.2C215.313 107.6 215.153 107.92 214.913 108.16C214.673 108.48 214.313 108.64 213.833 108.64C213.273 108.64 212.833 108.28 212.513 107.56C212.273 106.92 212.113 106.12 212.033 105.16C211.953 104.28 211.913 103.4 211.913 102.52C211.913 101.72 211.913 101.16 211.913 100.84ZM188.273 38.8C188.273 39.52 187.633 40.24 186.353 40.96C185.153 41.68 183.753 42.32 182.153 42.88C180.633 43.44 179.153 43.96 177.713 44.44C176.273 44.92 175.313 45.28 174.833 45.52L173.393 46.6C173.233 46.76 172.833 46.84 172.193 46.84C171.633 46.76 171.313 46.92 171.233 47.32C170.593 48.2 170.193 49.44 170.033 51.04C169.953 52.64 169.913 53.88 169.913 54.76V59.56C171.113 59.56 172.233 59.24 173.273 58.6C174.313 57.88 175.313 57.24 176.273 56.68C176.513 56.6 176.993 56.4 177.713 56.08C178.513 55.76 179.353 55.4 180.233 55C181.113 54.52 181.913 54.12 182.633 53.8C183.433 53.4 183.953 53.12 184.193 52.96C184.673 52.8 185.153 52.48 185.633 52C186.193 51.52 186.553 50.96 186.713 50.32C186.873 49.68 186.953 49.12 186.953 48.64C187.033 48.08 187.073 47.52 187.073 46.96C187.073 46.8 187.153 46.44 187.313 45.88C187.473 45.32 187.553 44.96 187.553 44.8C187.713 43.92 187.913 42.96 188.153 41.92C188.393 40.8 188.513 39.76 188.513 38.8H188.273ZM270.199 110.2C269.799 110.04 269.559 109.76 269.479 109.36C269.479 109.04 269.479 108.72 269.479 108.4V108.04C269.479 107.48 269.599 106.6 269.839 105.4C270.079 104.2 270.199 103.48 270.199 103.24L270.559 102.76C270.719 102.36 271.079 101.8 271.639 101.08C272.279 100.36 272.599 99.92 272.599 99.76L275.239 97.48L277.039 96.52C277.119 96.44 277.439 96.2 277.999 95.8C278.559 95.48 279.199 95.04 279.919 94.48C280.719 94 281.479 93.48 282.199 92.92C282.919 92.36 283.479 91.88 283.879 91.48C284.359 90.92 284.879 90.44 285.439 90.04C286.079 89.64 286.639 89.08 287.119 88.36C286.399 87.96 285.479 87.8 284.359 87.88C283.239 87.96 282.279 88 281.479 88H278.479L277.039 88.36H276.679C275.959 88.36 275.319 88.12 274.759 87.64C274.279 87.08 273.879 86.48 273.559 85.84V84.04C273.559 82.76 273.719 81.48 274.039 80.2C274.439 78.84 275.119 77.6 276.079 76.48L279.439 72.88C279.679 72.72 279.999 72.52 280.399 72.28C280.799 72.04 281.079 71.92 281.239 71.92L289.999 63.16L290.359 61.84C289.239 61.84 287.959 62.28 286.519 63.16C285.079 64.04 283.919 64.76 283.039 65.32C282.879 65.4 282.599 65.52 282.199 65.68C281.879 65.84 281.519 66.04 281.119 66.28C280.799 66.52 280.439 66.76 280.039 67C279.719 67.16 279.519 67.28 279.439 67.36C278.559 68 277.679 68.64 276.799 69.28C275.999 69.92 275.119 70.48 274.159 70.96C273.839 70.96 273.439 71.16 272.959 71.56C272.559 71.96 272.239 72.16 271.999 72.16C271.839 72.16 271.519 72.36 271.039 72.76C270.639 73.08 270.359 73.24 270.199 73.24C269.959 73.24 269.439 73.48 268.639 73.96C267.919 74.36 267.479 74.56 267.319 74.56C266.519 74.96 265.679 75.44 264.799 76C263.999 76.48 263.159 76.72 262.279 76.72H261.919C261.119 76.08 260.399 75.16 259.759 73.96C259.119 72.68 258.519 71.6 257.959 70.72V70C257.959 68.96 258.319 68.2 259.039 67.72L259.879 67.24H263.479C263.719 67.24 263.959 67.2 264.199 67.12C264.759 66.96 265.079 66.84 265.159 66.76C266.039 66.12 266.919 65.64 267.799 65.32C268.759 65 269.799 64.6 270.919 64.12L271.639 63.88C273.079 63 274.639 62.2 276.319 61.48C278.079 60.68 279.479 59.64 280.519 58.36C280.599 58.12 280.719 57.76 280.879 57.28C281.039 56.72 281.199 56.16 281.359 55.6C281.599 55.04 281.759 54.52 281.839 54.04C281.999 53.48 282.079 53.08 282.079 52.84V50.56C281.599 50.56 280.999 50.72 280.279 51.04C279.639 51.36 278.919 51.72 278.119 52.12C277.399 52.52 276.679 52.92 275.959 53.32C275.239 53.72 274.639 54.04 274.159 54.28C272.719 55 271.159 55.68 269.479 56.32C267.799 56.88 266.279 57.52 264.919 58.24C264.199 58.64 263.399 59.12 262.519 59.68C261.719 60.16 260.879 60.4 259.999 60.4C259.919 60.4 259.679 60.32 259.279 60.16C258.959 60 258.799 59.84 258.799 59.68L253.279 55.12C252.879 54.96 252.719 54.84 252.799 54.76C252.959 54.6 253.039 54.2 253.039 53.56C253.039 53.24 253.159 52.88 253.399 52.48C253.719 52 254.159 51.68 254.719 51.52C254.959 51.52 255.519 51.48 256.399 51.4C257.359 51.24 257.879 51.16 257.959 51.16C259.479 50.92 260.999 50.56 262.519 50.08C264.119 49.52 265.679 48.92 267.199 48.28C268.719 47.56 270.239 46.88 271.759 46.24C273.279 45.52 274.719 44.88 276.079 44.32C280.639 42.08 285.479 40.4 290.599 39.28C295.719 38.16 300.879 37.6 306.079 37.6H308.599C308.759 37.6 309.079 37.64 309.559 37.72C310.039 37.72 310.519 37.72 310.999 37.72C311.559 37.72 312.079 37.76 312.559 37.84C313.039 37.84 313.359 37.84 313.519 37.84C314.079 37.92 314.839 38.04 315.799 38.2C316.839 38.36 317.839 38.64 318.799 39.04C319.839 39.36 320.719 39.8 321.439 40.36C322.159 40.92 322.519 41.6 322.519 42.4C322.519 42.8 322.159 43.08 321.439 43.24C320.799 43.4 320.399 43.56 320.239 43.72V44.92L318.559 45.4C317.199 46.04 315.839 46.4 314.479 46.48L313.279 47.08C312.159 47.08 311.119 46.84 310.159 46.36C309.199 45.88 308.199 45.64 307.159 45.64H302.959C302.719 45.64 302.279 45.68 301.639 45.76C301.079 45.76 300.439 45.8 299.719 45.88C298.999 45.96 298.279 46.04 297.559 46.12C296.919 46.2 296.399 46.28 295.999 46.36C295.279 46.36 294.599 46.48 293.959 46.72C293.399 46.96 292.759 47.08 292.039 47.08C292.199 47.64 292.359 48 292.519 48.16C292.759 48.32 292.919 48.6 292.999 49L292.879 49.48C292.879 49.64 292.839 49.92 292.759 50.32C292.759 50.64 292.719 51 292.639 51.4C292.559 51.8 292.479 52.2 292.399 52.6C292.399 52.92 292.399 53.12 292.399 53.2C292.399 53.36 292.199 53.72 291.799 54.28C291.399 54.76 291.119 55.08 290.959 55.24H291.319C292.199 55.24 292.999 55.04 293.719 54.64C294.519 54.16 295.279 53.84 295.999 53.68C296.799 53.52 297.399 53.44 297.799 53.44C298.199 53.44 298.719 53.44 299.359 53.44C300.559 53.44 301.719 53.64 302.839 54.04C303.959 54.44 304.799 55.32 305.359 56.68C305.359 56.76 305.279 57 305.119 57.4C305.039 57.8 304.919 58.24 304.759 58.72C304.679 59.12 304.559 59.52 304.399 59.92C304.319 60.32 304.279 60.56 304.279 60.64L303.559 61.72C303.159 61.96 302.679 62.4 302.119 63.04C301.559 63.6 300.999 64.2 300.439 64.84C299.879 65.4 299.359 65.92 298.879 66.4C298.399 66.8 298.119 67.04 298.039 67.12C296.679 68.48 295.199 69.8 293.599 71.08C292.079 72.28 290.879 73.8 289.999 75.64V75.88C289.999 76.2 290.279 76.48 290.839 76.72C291.479 76.96 292.199 77.16 292.999 77.32C293.799 77.4 294.559 77.48 295.279 77.56C295.999 77.64 296.479 77.68 296.719 77.68C297.599 77.68 298.479 77.6 299.359 77.44C300.319 77.28 301.319 77.2 302.359 77.2H304.999C306.599 77.52 307.999 78.36 309.199 79.72C310.479 81 311.119 82.44 311.119 84.04V85.24C310.959 85.48 310.759 85.72 310.519 85.96C310.119 86.36 309.839 86.72 309.679 87.04C309.119 87.52 308.519 87.84 307.879 88C307.239 88.08 306.639 88.32 306.079 88.72C303.439 90.08 300.879 91.4 298.399 92.68C295.999 93.88 293.639 95.32 291.319 97C290.679 97.48 289.959 98.04 289.159 98.68C288.359 99.4 287.679 100.12 287.119 100.84H288.199C290.119 100.84 292.039 100.8 293.959 100.72C295.959 100.64 297.959 100.32 299.959 99.76C300.279 99.68 300.839 99.52 301.639 99.28C302.519 99.12 303.399 98.92 304.279 98.68C305.159 98.44 305.999 98.2 306.799 97.96C307.599 97.8 308.199 97.64 308.599 97.48C308.919 97.4 309.239 97.32 309.559 97.24C309.959 97.24 310.359 97.16 310.759 97C312.839 96.12 314.839 95.08 316.759 93.88C318.759 92.6 319.999 91 320.479 89.08L321.319 90.16L322.279 90.04C322.279 90.76 322.119 91.36 321.799 91.84C321.479 92.32 321.279 92.84 321.199 93.4C321.199 93.8 321.199 94.08 321.199 94.24C321.279 94.48 321.319 94.8 321.319 95.2V95.8L321.199 96.52L320.719 97.96C320.559 98.28 320.119 98.68 319.399 99.16C318.759 99.64 318.279 99.96 317.959 100.12C317.559 100.28 317.039 100.52 316.399 100.84C315.759 101.24 315.119 101.6 314.479 101.92C313.839 102.32 313.239 102.68 312.679 103C312.119 103.4 311.799 103.64 311.719 103.72C310.119 104.6 308.439 105.28 306.679 105.76C304.919 106.32 303.119 106.76 301.279 107.08C299.519 107.4 297.679 107.68 295.759 107.92C293.919 108.16 292.079 108.4 290.239 108.64C289.199 108.8 288.079 109.04 286.879 109.36C285.679 109.76 284.519 110.04 283.399 110.2C281.959 110.36 280.519 110.52 279.079 110.68C277.639 110.84 276.119 110.92 274.519 110.92C274.039 110.92 273.279 110.8 272.239 110.56C271.279 110.32 270.599 110.2 270.199 110.2ZM265.039 26.32C265.119 26 265.199 25.68 265.279 25.36C265.439 24.72 265.519 24.2 265.519 23.8C265.519 23.64 265.559 23.36 265.639 22.96C265.719 22.48 265.759 22.12 265.759 21.88C265.759 21.56 265.879 21.08 266.119 20.44C266.439 19.72 266.599 19.28 266.599 19.12C266.759 18.64 267.039 17.84 267.439 16.72C267.839 15.52 268.279 14.32 268.759 13.12C269.239 11.84 269.719 10.72 270.199 9.76C270.759 8.8 271.239 8.31999 271.639 8.31999H271.879C272.599 8.31999 273.159 8.76 273.559 9.64C273.639 9.72 273.719 9.76 273.799 9.76C273.879 9.84 274.039 9.88 274.279 9.88C275.559 9.48 276.759 8.96 277.879 8.31999C279.079 7.67999 280.199 7.11999 281.239 6.63999C283.719 5.51999 286.319 4.56 289.039 3.76C291.839 2.88 294.519 2.2 297.079 1.71999C298.519 1.08 299.919 0.759999 301.279 0.759999C301.839 0.759999 302.599 0.879997 303.559 1.11999C304.599 1.36 305.599 1.68 306.559 2.08C307.599 2.48 308.519 2.96 309.319 3.52C310.199 4 310.759 4.48 310.999 4.95999C310.999 5.28 311.039 5.6 311.119 5.92C311.279 6.56 311.359 7.04 311.359 7.35999V7.96C311.359 8.12 311.319 8.27999 311.239 8.43999C311.159 8.6 311.079 8.76 310.999 8.91999C310.839 9.16 310.719 9.4 310.639 9.64C310.479 9.72 309.999 10.04 309.199 10.6C308.399 11.08 307.919 11.4 307.759 11.56C305.759 13.24 303.999 15.08 302.479 17.08C301.039 19 299.359 20.88 297.439 22.72L296.719 23.56C298.319 23.16 299.719 22.92 300.919 22.84C302.199 22.76 303.479 22.72 304.759 22.72H307.399C307.719 22.72 308.039 22.8 308.359 22.96C308.679 23.12 308.839 23.4 308.839 23.8C308.839 24.52 308.599 25.2 308.119 25.84C307.719 26.48 307.279 27 306.799 27.4C306.639 27.48 306.479 27.52 306.319 27.52C306.159 27.6 305.919 27.64 305.599 27.64H302.239C301.199 27.64 300.159 28 299.119 28.72C298.079 29.36 297.119 29.88 296.239 30.28C295.839 30.44 295.119 30.8 294.079 31.36C293.119 31.84 292.519 32.16 292.279 32.32C292.199 32.48 291.959 32.68 291.559 32.92C291.159 33.16 290.719 33.4 290.239 33.64C289.839 33.88 289.439 34.12 289.039 34.36C288.639 34.6 288.399 34.76 288.319 34.84C287.439 35.4 286.399 36.04 285.199 36.76C284.079 37.48 282.839 37.84 281.479 37.84C280.999 37.84 280.519 37.68 280.039 37.36C279.639 36.96 279.439 36.44 279.439 35.8C279.439 35.16 279.479 34.64 279.559 34.24C279.639 33.76 279.599 33.08 279.439 32.2C279.839 30.6 280.439 29.2 281.239 28C282.039 26.72 282.879 25.32 283.759 23.8C283.839 23.72 283.999 23.48 284.239 23.08C284.559 22.68 284.839 22.28 285.079 21.88C285.319 21.4 285.559 20.96 285.799 20.56C286.039 20.16 286.199 19.92 286.279 19.84C286.359 19.76 286.519 19.52 286.759 19.12C286.999 18.72 287.279 18.28 287.599 17.8C287.919 17.32 288.199 16.92 288.439 16.6C288.759 16.2 288.999 15.96 289.159 15.88C289.399 15.48 289.719 15.04 290.119 14.56C290.599 14 291.039 13.44 291.439 12.88C291.839 12.32 292.199 11.8 292.519 11.32C292.839 10.76 292.999 10.24 292.999 9.76H292.759C290.679 10.56 288.559 11.4 286.399 12.28C284.239 13.16 282.239 14.04 280.399 14.92L279.319 15.4C279.159 15.72 278.959 16 278.719 16.24C278.319 16.8 277.999 17.08 277.759 17.08C277.599 17.08 277.319 17.08 276.919 17.08C276.519 17 276.119 17.08 275.719 17.32C275.559 17.72 275.399 18.32 275.239 19.12C275.159 19.92 275.119 20.52 275.119 20.92C274.319 24.2 273.399 27.4 272.359 30.52C271.319 33.56 270.599 36.88 270.199 40.48C269.959 40.64 269.359 40.72 268.399 40.72C267.519 40.72 266.999 40.72 266.839 40.72C266.679 40.72 266.479 40.68 266.239 40.6C266.079 40.52 265.999 40.28 265.999 39.88C265.919 39.64 265.839 39.28 265.759 38.8C265.679 38.24 265.559 37.68 265.399 37.12C265.319 36.56 265.239 36.08 265.159 35.68C265.079 35.2 265.039 34.92 265.039 34.84V26.32ZM380.032 87.88C383.392 88.04 386.712 87.92 389.992 87.52C393.272 87.04 396.632 86.72 400.072 86.56C400.232 86.4 400.432 86.24 400.672 86.08C400.912 85.92 401.112 85.84 401.272 85.84C401.752 85.92 401.992 86.2 401.992 86.68C401.992 87.16 402.512 87.56 403.552 87.88C403.792 87.96 404.152 88 404.632 88C405.112 88 405.352 88.28 405.352 88.84C405.192 89.88 404.872 90.6 404.392 91H404.752C404.912 91 405.032 90.96 405.112 90.88C405.192 90.72 405.312 90.64 405.472 90.64C405.312 91.36 405.392 91.8 405.712 91.96C406.112 92.04 406.312 92.32 406.312 92.8L406.072 93.16C406.072 93.24 405.992 93.44 405.832 93.76C405.752 93.92 405.712 94.04 405.712 94.12L405.112 94C403.592 95.28 401.592 96.12 399.112 96.52C396.712 96.92 394.472 97.2 392.392 97.36C392.392 97.36 392.152 97.36 391.672 97.36C391.192 97.44 390.672 97.48 390.112 97.48C389.552 97.48 388.992 97.48 388.432 97.48C387.952 97.56 387.672 97.6 387.592 97.6L386.752 97.72C385.552 97.96 384.232 98 382.792 97.84C381.432 97.76 380.072 97.76 378.712 97.84C378.552 97.84 378.192 97.84 377.632 97.84C377.152 97.84 376.632 97.84 376.072 97.84C375.592 97.84 375.112 97.84 374.632 97.84C374.152 97.84 373.872 97.84 373.792 97.84C373.712 97.84 373.472 97.84 373.072 97.84C372.672 97.84 372.232 97.84 371.752 97.84C371.272 97.84 370.832 97.8 370.432 97.72C370.032 97.72 369.792 97.72 369.712 97.72C369.232 97.72 368.792 97.8 368.392 97.96C367.992 98.2 367.552 98.44 367.072 98.68C366.672 98.92 366.232 99.12 365.752 99.28C365.272 99.44 364.752 99.48 364.192 99.4C363.552 99.32 362.952 99.08 362.392 98.68C361.912 98.28 361.512 97.92 361.192 97.6L359.392 95.32L359.032 94C359.032 93.28 358.912 92.84 358.672 92.68C358.432 92.44 358.312 92 358.312 91.36L358.792 87.64C359.112 87.24 359.392 86.84 359.632 86.44C359.952 85.96 360.272 85.6 360.592 85.36C360.752 85.2 361.072 84.92 361.552 84.52C362.032 84.12 362.352 83.84 362.512 83.68C362.752 83.44 363.112 83.2 363.592 82.96C364.072 82.72 364.472 82.48 364.792 82.24C365.112 82.08 365.472 81.8 365.872 81.4C366.352 81 366.792 80.6 367.192 80.2C367.672 79.8 368.152 79.36 368.632 78.88L368.752 78.64C368.992 78.48 369.232 78.28 369.472 78.04C369.632 77.88 369.792 77.72 369.952 77.56C370.192 77.32 370.392 77.12 370.552 76.96L380.152 70.12L380.992 70C381.152 70 381.392 69.76 381.712 69.28C382.112 68.72 382.472 68.44 382.792 68.44C383.112 68.28 383.112 67.96 382.792 67.48C382.552 67 382.472 66.56 382.552 66.16C382.712 65.52 382.752 64.8 382.672 64C382.672 63.12 382.512 62.36 382.192 61.72C382.032 60.92 382.072 59.68 382.312 58C382.552 56.32 383.432 53.72 384.952 50.2C385.352 49.4 385.632 48.6 385.792 47.8C386.032 47 386.312 46.24 386.632 45.52C386.632 45.28 386.792 45 387.112 44.68C387.272 44.52 387.392 44.36 387.472 44.2L387.592 43.96C387.832 43.32 388.072 42.64 388.312 41.92C388.552 41.2 388.872 40.48 389.272 39.76C389.272 39.6 389.392 39.28 389.632 38.8C389.872 38.24 390.112 37.68 390.352 37.12C390.592 36.56 390.832 36.04 391.072 35.56C391.312 35 391.472 34.64 391.552 34.48C391.552 34.4 391.592 34.16 391.672 33.76C391.832 33.28 391.992 32.8 392.152 32.32C392.312 31.76 392.432 31.28 392.512 30.88C392.672 30.4 392.752 30.12 392.752 30.04C392.832 29.88 393.072 29.36 393.472 28.48C393.952 27.6 394.192 27 394.192 26.68L395.512 22.6C395.032 22.76 394.712 23.08 394.552 23.56C394.472 23.96 394.352 24.32 394.192 24.64C394.192 25.12 393.992 25.52 393.592 25.84C393.192 26.16 392.792 26.48 392.392 26.8L388.072 34.12C387.432 34.92 386.832 35.72 386.272 36.52C385.792 37.24 385.352 37.96 384.952 38.68C384.872 38.84 384.712 39.12 384.472 39.52C384.312 39.92 384.112 40.4 383.872 40.96C383.712 41.44 383.512 41.92 383.272 42.4C383.112 42.8 383.032 43.08 383.032 43.24C382.952 43.48 382.912 43.84 382.912 44.32C382.992 44.72 382.992 45 382.912 45.16L382.192 46.48C382.032 46.72 381.872 47 381.712 47.32C381.632 47.64 381.512 47.96 381.352 48.28C381.192 48.6 381.072 48.96 380.992 49.36L380.752 51.04C380.512 51.6 380.312 52.12 380.152 52.6C380.072 53.08 380.032 53.68 380.032 54.4C380.032 54.56 380.152 54.84 380.392 55.24C380.632 55.56 380.712 55.88 380.632 56.2V56.68C379.912 57.64 379.272 58.84 378.712 60.28C378.152 61.64 377.352 62.64 376.312 63.28C375.912 63.44 375.592 63.68 375.352 64C375.192 64.24 374.912 64.44 374.512 64.6H373.432C373.272 64.6 372.952 64.72 372.472 64.96C371.992 65.12 371.672 65.28 371.512 65.44L370.672 66.16H369.352C368.792 66.32 368.232 66.52 367.672 66.76C367.112 67 366.512 67.16 365.872 67.24C364.432 67.64 362.992 68 361.552 68.32C360.112 68.64 358.672 69 357.232 69.4L352.192 70.6L351.592 70.84C351.432 71 350.992 71.2 350.272 71.44C349.632 71.68 348.912 71.92 348.112 72.16C347.312 72.32 346.592 72.52 345.952 72.76C345.392 73 345.072 73.2 344.992 73.36C344.672 73.28 344.272 73.36 343.792 73.6C343.392 73.84 343.112 74.04 342.952 74.2C342.632 74.36 342.232 74.44 341.752 74.44C341.352 74.36 340.952 74.48 340.552 74.8L339.592 75.64L338.632 75.76L337.552 76.72L336.832 76.96C336.112 77.2 335.272 77.56 334.312 78.04C333.352 78.52 332.552 78.76 331.912 78.76L328.312 81.52H328.072C326.152 81.28 324.952 80.76 324.472 79.96C323.592 78.92 323.192 77.6 323.272 76C323.432 74.4 323.592 72.88 323.752 71.44L323.512 70.84V70.48C323.672 70.24 323.792 69.96 323.872 69.64C324.032 69.24 324.232 68.92 324.472 68.68V68.44L324.112 67.72C324.992 66.84 325.832 66.2 326.632 65.8C327.512 65.32 328.472 64.8 329.512 64.24L330.112 63.64C330.192 63.56 330.312 63.36 330.472 63.04C330.712 62.72 330.952 62.4 331.192 62.08C331.512 61.68 331.792 61.36 332.032 61.12C332.272 60.8 332.472 60.6 332.632 60.52V59.92C332.632 59.76 332.832 59.4 333.232 58.84C333.712 58.28 333.952 57.92 333.952 57.76L335.752 53.92C335.832 53.52 335.912 53.24 335.992 53.08C336.152 52.92 336.272 52.64 336.352 52.24C336.352 52.08 336.432 51.72 336.592 51.16C336.752 50.6 336.832 50.24 336.832 50.08L337.192 49.72C337.912 48.12 338.472 46.4 338.872 44.56C339.272 42.72 339.512 40.88 339.592 39.04L341.032 37.72L342.352 37.84C343.552 38 344.392 38.32 344.872 38.8C345.432 39.28 346.152 39.84 347.032 40.48C347.192 40.48 347.592 40.76 348.232 41.32C348.872 41.8 349.272 42.08 349.432 42.16C350.072 42.64 350.392 43.44 350.392 44.56C350.472 45.6 350.512 46.56 350.512 47.44V47.92L350.272 48.4C350.272 48.4 350.232 48.6 350.152 49C350.072 49.4 349.992 49.84 349.912 50.32C349.832 50.72 349.752 51.12 349.672 51.52C349.672 51.84 349.672 52.04 349.672 52.12C349.592 52.28 349.472 52.56 349.312 52.96C349.152 53.28 349.072 53.56 349.072 53.8C349.072 53.88 348.952 54.2 348.712 54.76C348.472 55.32 348.352 55.68 348.352 55.84V56.8L348.112 59.92C349.712 59.92 351.272 59.6 352.792 58.96C354.312 58.24 355.872 57.72 357.472 57.4C357.632 57.48 357.992 57.4 358.552 57.16C359.112 56.92 359.472 56.84 359.632 56.92C359.792 56.92 360.072 56.8 360.472 56.56C360.952 56.32 361.272 56.2 361.432 56.2L362.032 56.32L362.752 55.84C363.712 55.44 364.752 55.12 365.872 54.88C367.072 54.56 368.152 54.12 369.112 53.56C369.432 53.16 369.752 52.8 370.072 52.48C370.312 52.16 370.552 51.88 370.792 51.64C371.032 51.4 371.232 51.24 371.392 51.16C372.032 50.68 372.592 50.08 373.072 49.36C373.552 48.64 373.992 47.88 374.392 47.08C374.872 46.28 375.312 45.52 375.712 44.8C376.192 44 376.672 43.28 377.152 42.64C377.232 42.48 377.512 42.08 377.992 41.44C378.472 40.72 378.712 40.28 378.712 40.12C379.832 38.52 381.072 36.96 382.432 35.44C383.792 33.84 385.032 32.16 386.152 30.4C386.312 30.32 386.512 30.08 386.752 29.68C387.072 29.28 387.312 28.92 387.472 28.6C388.192 27.4 389.072 26.2 390.112 25C391.152 23.72 392.112 22.4 392.992 21.04C393.152 21.04 393.392 20.72 393.712 20.08L394.192 19.12L394.672 16.6C394.752 16.44 394.872 16.2 395.032 15.88C395.192 15.48 395.272 15.2 395.272 15.04C395.272 14.88 395.352 14.8 395.512 14.8H395.872L397.312 14.56C398.352 14.32 399.432 14 400.552 13.6C401.752 13.12 402.912 13.08 404.032 13.48C405.952 13.72 407.432 14.84 408.472 16.84V17.2C408.392 17.36 408.352 17.72 408.352 18.28C408.352 18.76 408.352 19.08 408.352 19.24L408.112 19.96C406.992 22.28 406.152 24.6 405.592 26.92C405.112 29.16 404.552 31.4 403.912 33.64C403.832 33.88 403.632 34.48 403.312 35.44C403.072 36.32 402.792 37.28 402.472 38.32C402.152 39.28 401.832 40.2 401.512 41.08C401.272 41.96 401.152 42.48 401.152 42.64L400.072 46.96L399.592 47.8L399.352 48.64C398.792 50 398.352 51.32 398.032 52.6C397.792 53.88 397.472 55.08 397.072 56.2L396.592 60.16C398.432 59.76 400.072 59.6 401.512 59.68C402.952 59.76 404.312 59.96 405.592 60.28C406.232 60.84 407.312 61.32 408.832 61.72L409.552 62.44L410.512 62.8C410.832 62.96 411.352 63.36 412.072 64C412.792 64.56 413.232 64.92 413.392 65.08L413.992 65.8C414.552 66.28 415.072 66.76 415.552 67.24C416.112 67.64 416.592 68.16 416.992 68.8L418.792 72.76C418.552 73.4 418.272 74.08 417.952 74.8C417.712 75.52 417.232 76.04 416.512 76.36C416.272 76.2 415.872 76.2 415.312 76.36C414.752 76.44 414.352 76.48 414.112 76.48L413.392 76.96H412.912C411.072 76.72 409.312 76.32 407.632 75.76C405.952 75.12 404.192 74.72 402.352 74.56C401.472 74.4 400.592 74.48 399.712 74.8C398.912 75.04 398.032 75.2 397.072 75.28C396.432 75.44 395.792 75.52 395.152 75.52C394.512 75.44 393.872 75.52 393.232 75.76L388.792 78.52L387.712 79.12C387.632 79.28 387.232 79.56 386.512 79.96C385.872 80.28 385.392 80.52 385.072 80.68C384.912 80.6 384.552 80.68 383.992 80.92C383.432 81.16 383.072 81.28 382.912 81.28L382.792 81.52C382.392 81.92 382.032 82.24 381.712 82.48C381.472 82.72 381.232 82.92 380.992 83.08L380.032 83.2L379.432 83.8C379.272 84.04 379.032 84.32 378.712 84.64C378.472 84.88 378.152 85.16 377.752 85.48C377.352 85.8 376.912 86.16 376.432 86.56C376.272 86.72 376.072 86.84 375.832 86.92C375.672 86.92 375.512 86.96 375.352 87.04C375.672 87.04 376.272 87.16 377.152 87.4C378.032 87.64 378.992 87.8 380.032 87.88ZM355.792 49.24C355.952 48.76 356.112 48.36 356.272 48.04C356.432 47.64 356.512 47.2 356.512 46.72C356.992 45.36 357.312 44.08 357.472 42.88C357.712 41.68 358.072 40.4 358.552 39.04C359.032 36.56 359.672 34.12 360.472 31.72C361.352 29.32 362.112 26.92 362.752 24.52L363.232 21.76C363.232 21.36 363.072 21.16 362.752 21.16L362.392 21.04C358.392 21.04 354.472 21.76 350.632 23.2C348.712 24 346.752 24.84 344.752 25.72C342.832 26.6 340.832 27.52 338.752 28.48L338.632 28.36C338.232 28.36 337.952 28.36 337.792 28.36C337.712 28.28 337.592 28.04 337.432 27.64C337.352 27.56 336.992 27.2 336.352 26.56C335.712 25.92 335.312 25.4 335.152 25C334.672 24.68 334.192 24.16 333.712 23.44C333.232 22.72 333.072 21.96 333.232 21.16V21.04C334.512 20.64 335.712 20.36 336.832 20.2C337.952 20.04 339.192 19.84 340.552 19.6C342.072 19.36 343.512 19.08 344.872 18.76C346.232 18.44 347.512 18.08 348.712 17.68L358.312 16.36C359.272 16.12 360.112 15.96 360.832 15.88C361.552 15.72 362.232 15.64 362.872 15.64C363.592 15.64 364.312 15.72 365.032 15.88C365.832 15.96 366.792 16.12 367.912 16.36C369.672 16.76 371.112 17.32 372.232 18.04C373.352 18.76 374.152 19.88 374.632 21.4L374.152 23.8C373.912 24.68 373.712 25.44 373.552 26.08C373.472 26.64 373.232 27.36 372.832 28.24L372.232 28.96C371.832 29.52 371.472 30.36 371.152 31.48C370.912 32.6 370.712 33.48 370.552 34.12L370.072 35.08L369.712 36.04C369.712 36.2 369.632 36.48 369.472 36.88C369.312 37.2 369.152 37.6 368.992 38.08C368.832 38.48 368.632 38.92 368.392 39.4C368.232 39.8 368.152 40.08 368.152 40.24L367.432 41.2L367.312 42.04L366.952 42.16C365.992 42.4 365.352 42.84 365.032 43.48C364.712 44.04 364.232 44.56 363.592 45.04C363.592 45.28 363.312 45.52 362.752 45.76C362.192 46 361.872 46.2 361.792 46.36C361.792 46.52 361.552 46.88 361.072 47.44C360.592 48 360.352 48.32 360.352 48.4C359.872 48.88 359.512 49.04 359.272 48.88C359.112 48.72 358.712 48.84 358.072 49.24L356.512 49.96H356.392C356.232 49.96 356.072 49.88 355.912 49.72C355.832 49.48 355.792 49.32 355.792 49.24Z" fill="white"/>
</g>
<defs>
<filter id="filter0_d_52_522" x="0.956543" y="0.76001" width="421.836" height="122.6" filterUnits="userSpaceOnUse" color-interpolation-filters="sRGB">
<feFlood flood-opacity="0" result="BackgroundImageFix"/>
<feColorMatrix in="SourceAlpha" type="matrix" values="0 0 0 0 0 0 0 0 0 0 0 0 0 0 0 0 0 0 127 0" result="hardAlpha"/>
<feOffset dy="4"/>
<feGaussianBlur stdDeviation="2"/>
<feComposite in2="hardAlpha" operator="out"/>
<feColorMatrix type="matrix" values="0 0 0 0 0 0 0 0 0 0 0 0 0 0 0 0 0 0 0.25 0"/>
<feBlend mode="normal" in2="BackgroundImageFix" result="effect1_dropShadow_52_522"/>
<feBlend mode="normal" in="SourceGraphic" in2="effect1_dropShadow_52_522" result="shape"/>
</filter>
</defs>
</svg>
