<svg width="699" height="200" viewBox="0 0 699 200" fill="none" xmlns="http://www.w3.org/2000/svg">
<g filter="url(#filter0_d_52_522)">
<path d="M18.3609 53.2C18.3609 53.0667 18.4276 52.6667 18.5609 52C18.6943 51.3333 18.8276 50.6667 18.9609 50C19.0943 49.3333 19.2276 48.7333 19.3609 48.2C19.4943 47.5333 19.5609 47.1333 19.5609 47V45.8C19.5609 45.4 19.6276 44.7333 19.7609 43.8C20.0276 42.7333 20.2943 41.6667 20.5609 40.6C20.9609 39.5333 21.2943 38.4667 21.5609 37.4C21.8276 36.3333 22.0276 35.5333 22.1609 35C22.2943 34.4667 22.5609 33.6667 22.9609 32.6C23.3609 31.4 23.6943 30.2 23.9609 29C24.3609 27.8 24.6943 26.7333 24.9609 25.8C25.3609 24.7333 25.6276 24 25.7609 23.6C26.1609 22.9333 26.5609 22.2 26.9609 21.4C27.3609 20.6 27.9609 20.2 28.7609 20.2H29.3609C31.0943 21.2667 32.0943 22.5333 32.3609 24C32.6276 25.3333 33.2943 26.8 34.3609 28.4C35.5609 36.4 36.1609 44.4 36.1609 52.4H38.3609C42.4943 50.5333 46.4276 48.8667 50.1609 47.4C53.3609 46.0667 56.6943 44.7333 60.1609 43.4C63.6276 42.0667 66.4943 40.9333 68.7609 40C71.5609 38.9333 73.5609 37.2 74.7609 34.8C76.0943 32.2667 77.2943 29.8 78.3609 27.4L80.5609 23H81.1609C81.1609 22.4667 81.2943 21.9333 81.5609 21.4C81.6943 21 81.8276 20.6 81.9609 20.2C82.2276 19.6667 82.4943 19.2667 82.7609 19L83.3609 16L83.9609 14L83.3609 11.2V9.8C84.4276 8.33333 85.3609 7.13333 86.1609 6.2C87.0943 5.26666 88.4943 4.79999 90.3609 4.79999C91.2943 4.79999 92.3609 5.19999 93.5609 5.99999C94.7609 6.66665 95.8276 7.53332 96.7609 8.59999C97.6943 9.66666 98.4943 10.8667 99.1609 12.2C99.8276 13.4 100.161 14.5333 100.161 15.6V16C98.6943 23.7333 96.8276 31.4667 94.5609 39.2C92.4276 46.8 90.0943 54.2 87.5609 61.4C87.5609 61.9333 87.2943 62.6 86.7609 63.4C86.3609 64.2 86.1609 64.8 86.1609 65.2L83.3609 70.8C83.0943 71.0667 82.6276 71.7333 81.9609 72.8C81.4276 73.7333 81.1609 74.4 81.1609 74.8L80.5609 78.4L79.1609 80.4C78.7609 80.8 78.2943 81.5333 77.7609 82.6C77.3609 83.6667 77.1609 84.3333 77.1609 84.6V86C76.6276 87.4667 76.2276 88.5333 75.9609 89.2C75.8276 89.7333 75.2943 90.3333 74.3609 91C72.4943 92.0667 70.5609 92.8667 68.5609 93.4C66.5609 93.9333 64.6276 94.8 62.7609 96C62.6276 96 62.2943 96.2 61.7609 96.6C61.3609 96.8667 60.8276 97.2 60.1609 97.6C59.6276 98 59.0276 98.4 58.3609 98.8C57.8276 99.0667 57.4943 99.2 57.3609 99.2C57.0943 99.3333 56.5609 99.6 55.7609 100C54.9609 100.4 54.0276 100.867 52.9609 101.4C52.0276 101.8 51.1609 102.267 50.3609 102.8C49.5609 103.2 49.0943 103.533 48.9609 103.8C46.8276 104.6 44.6943 105.733 42.5609 107.2C40.4276 108.533 38.0943 109.2 35.5609 109.2C34.0943 109.2 33.0943 108.867 32.5609 108.2C32.0276 107.533 31.4276 106.6 30.7609 105.4L29.9609 105C27.2943 101.533 25.1609 98.1333 23.5609 94.8C22.0943 91.4667 20.9609 88.1333 20.1609 84.8C19.3609 81.3333 18.8276 77.8 18.5609 74.2C18.4276 70.6 18.3609 66.6667 18.3609 62.4V53.2ZM4.76093 137.8C5.0276 137.4 5.4276 136.867 5.96093 136.2C6.6276 135.533 7.2276 135.2 7.76093 135.2L10.9609 134.4C14.6943 133.6 18.1609 132.4 21.3609 130.8C24.5609 129.067 27.6943 127.467 30.7609 126C39.5609 121.733 48.3609 118.067 57.1609 115C66.0943 111.933 75.2943 110.4 84.7609 110.4H86.7609C86.8943 110.4 87.2943 110.467 87.9609 110.6C88.7609 110.6 89.5609 110.667 90.3609 110.8C91.1609 110.933 91.8943 111.067 92.5609 111.2C93.2276 111.2 93.6943 111.2 93.9609 111.2C94.6276 111.2 95.6276 111.333 96.9609 111.6C98.4276 111.733 99.8276 112.067 101.161 112.6C102.628 113 103.894 113.6 104.961 114.4C106.028 115.067 106.561 115.933 106.561 117L105.961 118.2L103.561 119C102.628 119.267 101.894 120.067 101.361 121.4C100.828 122.733 100.028 123.4 98.9609 123.4V122.6C94.0276 122.067 89.3609 122.067 84.9609 122.6C80.5609 123 76.3609 123.733 72.3609 124.8C68.3609 125.733 64.4943 126.933 60.7609 128.4C57.0276 129.867 53.2943 131.267 49.5609 132.6C46.4943 133.667 43.2276 134.867 39.7609 136.2C36.2943 137.4 33.0276 138.667 29.9609 140C29.2943 140.4 28.4276 140.933 27.3609 141.6C26.2943 142.133 25.2276 142.667 24.1609 143.2C23.2276 143.6 22.3609 144 21.5609 144.4C20.7609 144.8 20.2943 145 20.1609 145L17.1609 147.8C16.8943 148.2 15.9609 148.4 14.3609 148.4C13.4276 148.4 12.3609 148.133 11.1609 147.6C10.0943 146.933 9.09427 146.133 8.16093 145.2C7.2276 144.267 6.4276 143.2 5.76093 142C5.09426 140.8 4.76093 139.6 4.76093 138.4V137.8ZM56.5609 169.2C56.5609 168.533 56.6276 167.333 56.7609 165.6C57.0276 164 57.2276 162.2 57.3609 160.2C57.6276 158.2 57.8943 156.267 58.1609 154.4C58.4276 152.533 58.6943 151 58.9609 149.8C59.2276 148.333 59.4943 147.067 59.7609 146C60.0276 144.8 60.4943 143.467 61.1609 142C61.1609 141.6 61.2276 141 61.3609 140.2C61.4943 139.4 61.6276 138.533 61.7609 137.6C62.0276 136.533 62.2276 135.6 62.3609 134.8C62.4943 134 62.6276 133.4 62.7609 133L63.7609 132.2C65.7609 132.2 67.6276 133.133 69.3609 135C71.2276 136.733 72.1609 138.6 72.1609 140.6C72.1609 142.733 72.0943 144.667 71.9609 146.4C71.9609 148.133 71.8943 149.867 71.7609 151.6C71.6276 153.333 71.4276 155.067 71.1609 156.8C71.0276 158.667 70.8276 160.733 70.5609 163C70.5609 163.133 70.4276 163.6 70.1609 164.4C70.0276 165.333 69.8276 166.4 69.5609 167.6C69.4276 168.8 69.2276 169.933 68.9609 171C68.6943 172.067 68.4943 172.867 68.3609 173.4C67.6943 176.467 66.4943 179.467 64.7609 182.4C63.1609 185.467 62.0276 188.533 61.3609 191.6C59.8943 190.933 58.8943 189.6 58.3609 187.6C57.8276 185.733 57.3609 184.267 56.9609 183.2C56.6943 181.333 56.5609 179.867 56.5609 178.8C56.5609 177.867 56.5609 176.333 56.5609 174.2V169.2ZM34.9609 72C34.9609 72.1333 34.8943 72.4667 34.7609 73C34.7609 73.4 34.6943 73.8667 34.5609 74.4C34.5609 74.9333 34.4943 75.4667 34.3609 76C34.3609 76.5333 34.3609 76.8667 34.3609 77V92.6C44.3609 92.6 51.8276 89.5333 56.7609 83.4C59.5609 80.0667 61.5609 75.5333 62.7609 69.8C63.8276 67.6667 64.3609 65.6 64.3609 63.6H63.7609L62.3609 64.4C59.8276 65.3333 57.4943 66.2 55.3609 67C53.2276 67.8 50.8943 68.7333 48.3609 69.8C47.2943 70.3333 46.2276 70.9333 45.1609 71.6C44.0943 72.1333 43.0276 72.4 41.9609 72.4C40.8943 72.4 39.8276 72.3333 38.7609 72.2C37.8276 72.0667 36.9609 72 36.1609 72H34.9609ZM169.428 146.6L170.028 144.2C170.428 143.533 170.828 142.667 171.228 141.6C171.761 140.4 172.161 139.6 172.428 139.2C172.428 138.933 172.961 138.467 174.028 137.8C175.095 137.133 175.628 136.6 175.628 136.2C178.961 132.333 182.161 128.4 185.228 124.4C188.295 120.267 191.495 116.2 194.828 112.2C197.095 109.933 199.361 107.6 201.628 105.2C203.895 102.8 206.095 100.4 208.228 98C208.628 97.0667 209.495 96.0667 210.828 95C212.295 93.9333 213.161 92.9333 213.428 92C209.428 90.1333 206.161 88.4 203.628 86.8C201.095 85.0667 199.095 82.6 197.628 79.4C196.828 77.8 196.428 76.1333 196.428 74.4C196.428 72.6667 196.428 70.8 196.428 68.8C196.428 66.5333 196.761 64.3333 197.428 62.2C198.228 59.9333 198.961 57.6 199.628 55.2C200.295 52.2667 200.961 49.4 201.628 46.6C202.428 43.6667 203.228 40.6667 204.028 37.6L205.828 34.2L206.828 29.6C206.828 29.0667 207.161 28.4667 207.828 27.8C208.628 27 209.028 26.4667 209.028 26.2V24.6C209.028 23.9333 209.295 23.2 209.828 22.4C210.361 21.6 210.695 20.8667 210.828 20.2L212.028 19V17.2L213.028 16.8C213.428 15.8667 213.895 14.9333 214.428 14C215.095 12.9333 215.961 12.4 217.028 12.4C217.961 12.4 218.961 12.6667 220.028 13.2C221.095 13.7333 221.895 14.3333 222.428 15C222.561 15 222.895 15.2 223.428 15.6C223.961 16 224.561 16.4667 225.228 17C225.895 17.5333 226.495 18.0667 227.028 18.6C227.695 19.1333 228.161 19.5333 228.428 19.8L229.028 20.2C229.295 20.8667 229.628 21.8667 230.028 23.2C230.561 24.5333 230.828 25.3333 230.828 25.6C230.828 26.8 230.561 28.2 230.028 29.8C229.628 31.4 229.095 32.6667 228.428 33.6L226.628 35.8L226.228 37.2C225.828 38.2667 225.295 39.7333 224.628 41.6C224.095 43.3333 223.495 45.1333 222.828 47C222.161 48.8667 221.561 50.5333 221.028 52C220.495 53.4667 220.161 54.3333 220.028 54.6C220.028 54.7333 219.895 55.2 219.628 56C219.495 56.8 219.295 57.6667 219.028 58.6C218.895 59.4 218.695 60.2 218.428 61C218.295 61.6667 218.228 62.0667 218.228 62.2C217.961 63.2667 217.695 64.2667 217.428 65.2C217.161 66.1333 217.028 67.2 217.028 68.4C217.028 70.8 218.495 72 221.428 72H221.828C222.095 72 222.495 71.8 223.028 71.4C223.561 70.8667 223.961 70.6 224.228 70.6H231.428C233.828 72.2 236.295 73.4 238.828 74.2C241.495 74.8667 244.028 75.7333 246.428 76.8C247.095 77.0667 248.295 77.6667 250.028 78.6C251.895 79.4 253.161 80.0667 253.828 80.6C255.295 81.4 256.228 82.4 256.628 83.6C257.028 84.6667 257.228 86 257.228 87.6V90.2C257.228 90.3333 257.095 90.6667 256.828 91.2C256.561 91.6 256.228 92.0667 255.828 92.6C255.428 93.1333 255.028 93.6667 254.628 94.2C254.228 94.6 253.961 94.8 253.828 94.8C252.495 95.4667 251.028 95.9333 249.428 96.2C247.961 96.3333 246.561 96.6667 245.228 97.2C244.961 97.2 244.228 97.5333 243.028 98.2C241.961 98.7333 241.095 99.2 240.428 99.6L238.628 101L237.428 101.4C237.161 101.8 236.428 102.533 235.228 103.6C234.161 104.667 233.495 105.333 233.228 105.6L232.028 106.2C231.228 106.867 230.295 107.667 229.228 108.6C228.161 109.4 227.295 110.267 226.628 111.2L226.228 112.2L221.428 117L220.628 118.4L218.228 118.8C217.961 118.8 217.561 119 217.028 119.4C216.495 119.667 216.095 119.933 215.828 120.2L215.228 122H213.828L212.028 123L196.028 142H199.228C199.628 142 200.228 141.933 201.028 141.8C201.828 141.667 202.628 141.533 203.428 141.4C204.228 141.133 204.961 140.933 205.628 140.8C206.295 140.667 206.695 140.6 206.828 140.6C207.228 140.6 208.095 140.467 209.428 140.2C210.895 139.8 212.428 139.467 214.028 139.2C215.761 138.8 217.295 138.467 218.628 138.2C220.095 137.8 221.028 137.6 221.428 137.6C224.761 136.933 228.095 136.333 231.428 135.8C234.761 135.267 237.761 133.8 240.428 131.4C240.161 132.733 240.295 133.933 240.828 135C241.361 135.933 241.628 137 241.628 138.2H244.228C244.495 138.733 244.628 139.333 244.628 140V141.2V143L242.828 144.2C242.561 144.2 242.028 144.733 241.228 145.8C240.561 146.733 240.095 147.2 239.828 147.2C238.895 147.867 237.895 148.533 236.828 149.2C235.895 149.733 235.228 150.467 234.828 151.4L233.228 153.8L230.828 154.4C230.561 154.4 229.961 154.733 229.028 155.4C228.228 155.933 227.628 156.2 227.228 156.2C226.028 156.867 224.361 157.467 222.228 158C220.228 158.533 218.495 159 217.028 159.4L188.828 164C188.161 164.267 187.761 164.4 187.628 164.4C187.761 164.4 187.761 164.4 187.628 164.4C187.495 164.533 187.161 164.733 186.628 165C185.428 165.8 184.361 166.4 183.428 166.8C182.628 167.2 181.495 167.4 180.028 167.4C179.095 167.4 178.495 167.333 178.228 167.2C178.095 167.2 177.695 167.067 177.028 166.8L172.428 164.8C171.895 164.4 171.561 163.733 171.428 162.8C171.295 161.867 171.095 161.067 170.828 160.4C170.561 159.867 170.295 159.067 170.028 158C169.761 157.067 169.495 156.133 169.228 155.2C168.961 154.267 168.695 153.467 168.428 152.8C168.295 152 168.228 151.533 168.228 151.4V148.6L169.428 146.6ZM116.828 103.2C116.828 97.6 117.961 92.4 120.228 87.6C122.628 82.8 125.161 77.8667 127.828 72.8C129.695 69.3333 131.828 66 134.228 62.8C136.761 59.6 139.228 56.4667 141.628 53.4C142.028 53 142.828 52.1333 144.028 50.8C145.361 49.3333 146.828 47.7333 148.428 46C150.028 44.1333 151.561 42.3333 153.028 40.6C154.628 38.7333 155.895 37.3333 156.828 36.4C158.428 34.5333 160.028 32.8 161.628 31.2C163.361 29.4667 165.028 27.6 166.628 25.6L168.228 23.8C168.895 23.4 169.761 22.5333 170.828 21.2C171.361 20.6667 171.895 19.9333 172.428 19L173.228 17.2C173.361 16.5333 173.828 16 174.628 15.6C175.428 15.2 176.095 15 176.628 15C177.295 15 178.095 15.4 179.028 16.2C179.961 17 180.561 17.6 180.828 18C182.961 19.7333 185.228 21.6 187.628 23.6C190.028 25.6 191.228 28.0667 191.228 31C191.228 32.6 190.828 34.1333 190.028 35.6C189.228 36.9333 188.161 38.0667 186.828 39C186.695 39.1333 186.495 39.2 186.228 39.2C185.961 39.3333 185.561 39.4 185.028 39.4C183.295 40.0667 181.495 40.8667 179.628 41.8C177.761 42.7333 176.161 44 174.828 45.6L174.228 46.8C173.695 47.7333 173.028 48.5333 172.228 49.2C171.428 49.7333 170.495 50.3333 169.428 51L169.028 51.6C168.628 51.8667 168.095 52.5333 167.428 53.6C166.761 54.6667 166.228 55.3333 165.828 55.6L164.828 56.4C163.228 57.6 161.695 59.1333 160.228 61C158.895 62.8667 157.495 64.5333 156.028 66C155.761 66.2667 155.161 66.9333 154.228 68C153.295 68.9333 152.295 70 151.228 71.2C150.161 72.2667 149.095 73.3333 148.028 74.4C146.961 75.3333 146.228 75.9333 145.828 76.2L141.028 82.2C138.361 85.2667 135.695 88.1333 133.028 90.8C130.495 93.4667 128.161 96.6667 126.028 100.4C125.361 101.467 124.895 102.533 124.628 103.6C124.495 104.533 124.295 105.467 124.028 106.4C123.761 107.333 123.361 108.2 122.828 109C122.295 109.8 121.428 110.533 120.228 111.2C119.295 110.533 118.495 109.333 117.828 107.6C117.161 105.867 116.828 104.4 116.828 103.2ZM144.428 85.4C144.428 84.0667 144.561 83.2 144.828 82.8C145.228 82.2667 146.095 81.8 147.428 81.4C149.161 81.8 151.095 82.2667 153.228 82.8C155.361 83.3333 157.161 84.3333 158.628 85.8L165.828 94.8C166.495 95.8667 167.161 96.8667 167.828 97.8C168.628 98.7333 169.161 99.8 169.428 101C169.428 102.2 169.828 103.467 170.628 104.8C171.561 106.133 172.561 107.467 173.628 108.8C174.828 110 175.828 111.133 176.628 112.2C177.561 113.133 178.028 113.733 178.028 114V114.8L177.428 115.2C177.028 115.6 176.361 116 175.428 116.4C174.495 116.8 173.828 117 173.428 117H173.228C171.228 116.467 169.228 115.6 167.228 114.4C165.361 113.067 163.495 111.667 161.628 110.2C159.895 108.733 158.161 107.2 156.428 105.6C154.828 104 153.361 102.6 152.028 101.4L150.028 100.4L149.428 99.6C149.295 99.0667 148.895 98.2667 148.228 97.2C147.695 96 147.428 95.2 147.428 94.8C147.428 94.5333 147.295 93.8667 147.028 92.8C146.761 91.7333 146.628 91 146.628 90.6L145.228 89.4C144.961 88.7333 144.761 88 144.628 87.2C144.495 86.4 144.428 85.8 144.428 85.4ZM266.289 82.6C266.289 82.2 266.356 81.4667 266.489 80.4C266.622 79.3333 266.756 78.2 266.889 77C267.156 75.8 267.356 74.6667 267.489 73.6C267.622 72.5333 267.689 71.8667 267.689 71.6V66L268.089 64.2V62C268.089 61.7333 268.289 61.2 268.689 60.4C269.089 59.4667 269.289 58.8667 269.289 58.6C269.289 58.2 269.556 57.5333 270.089 56.6C270.756 55.6667 271.089 55.0667 271.089 54.8C271.089 54.5333 271.289 53.9333 271.689 53C272.222 51.9333 272.489 51.2667 272.489 51C273.022 48.4667 273.756 46.0667 274.689 43.8C275.622 41.4 276.489 38.8667 277.289 36.2L277.889 34.8C278.422 34.1333 278.689 33.5333 278.689 33C278.822 32.4667 279.022 31.6667 279.289 30.6C279.422 30.0667 279.622 29.2667 279.889 28.2C280.156 27.1333 280.489 26.0667 280.889 25C281.289 23.9333 281.622 22.9333 281.889 22C282.289 20.9333 282.556 20.2667 282.689 20C283.222 18.9333 283.689 18.1333 284.089 17.6C284.489 16.9333 285.289 16.6 286.489 16.6C287.689 16.6 288.956 16.9333 290.289 17.6C291.622 18.2667 292.822 19.1333 293.889 20.2C295.089 21.1333 296.022 22.2 296.689 23.4C297.489 24.6 297.889 25.7333 297.889 26.8C297.889 28 297.622 29.0667 297.089 30C296.556 30.8 295.956 31.8 295.289 33C292.622 38.6 290.356 44.3333 288.489 50.2L287.889 51.6C287.889 52.1333 288.222 52.4 288.889 52.4C289.156 52.5333 289.489 52.5333 289.889 52.4C291.222 52.4 292.422 52.0667 293.489 51.4C294.689 50.6 295.822 50.0667 296.889 49.8C297.422 49.8 298.356 49.5333 299.689 49C301.022 48.4667 301.822 48.2 302.089 48.2C303.156 47.9333 304.622 47.6 306.489 47.2C308.356 46.8 310.156 46.2667 311.889 45.6C313.756 44.9333 315.422 44.1333 316.889 43.2C318.356 42.2667 319.222 41.2 319.489 40C319.622 39.6 319.756 38.9333 319.889 38C320.156 36.9333 320.356 35.8667 320.489 34.8C320.756 33.6 320.956 32.4667 321.089 31.4C321.222 30.3333 321.289 29.6 321.289 29.2V25.8C321.289 23.9333 321.222 22.2 321.089 20.6C320.956 18.8667 320.889 17.0667 320.889 15.2C320.889 13.0667 321.422 11.2 322.489 9.59999C323.689 7.99999 325.422 7.2 327.689 7.2H328.089C328.622 7.2 329.689 7.53333 331.289 8.2C332.889 8.73333 333.889 9.13333 334.289 9.39999C334.556 9.39999 335.156 9.73333 336.089 10.4C337.022 10.9333 337.756 11.2 338.289 11.2C338.956 11.7333 339.889 12.4667 341.089 13.4C342.422 14.2 343.222 14.8 343.489 15.2L345.289 17V18.8L345.089 20.4V23.8C344.822 25.6667 344.222 27.4 343.289 29C342.489 30.6 342.289 32.3333 342.689 34.2C342.422 34.7333 342.156 35.6 341.889 36.8C341.622 37.8667 341.289 39.0667 340.889 40.4C340.622 41.6 340.356 42.7333 340.089 43.8C339.822 44.8667 339.622 45.6 339.489 46L337.289 52.8V54.8L336.289 57.4C336.289 57.6667 336.022 58.4667 335.489 59.8C335.089 61 334.889 61.7333 334.889 62L334.289 64V65.4L332.289 67.2V68.4L331.289 71V75.6C331.289 76 331.089 76.5333 330.689 77.2C330.289 77.7333 329.756 78.3333 329.089 79C328.556 79.6667 327.956 80.3333 327.289 81C326.756 81.5333 326.222 81.8667 325.689 82C325.289 82.2667 324.622 82.8667 323.689 83.8C322.889 84.7333 321.956 85.7333 320.889 86.8C319.956 87.7333 319.022 88.6667 318.089 89.6C317.289 90.5333 316.689 91.1333 316.289 91.4L312.889 94.4C312.489 94.6667 311.822 95.4 310.889 96.6C309.956 97.8 309.356 98.6667 309.089 99.2L301.489 107V109.4L299.689 110C299.422 110 298.889 110.467 298.089 111.4C297.289 112.2 296.822 112.6 296.689 112.6C296.022 113.133 295.022 113.867 293.689 114.8C292.356 115.733 291.489 116.2 291.089 116.2H288.489C287.156 116.2 285.956 116.067 284.889 115.8C283.956 115.4 282.956 115.2 281.889 115.2C281.222 115.2 280.489 115.6 279.689 116.4C279.022 117.2 278.156 117.8 277.089 118.2L275.689 117.4C275.422 117.133 275.089 116.867 274.689 116.6C274.289 116.333 273.956 116.067 273.689 115.8C273.156 115.4 272.756 115.067 272.489 114.8L271.489 112.6L270.489 111.2C270.222 110.533 270.022 109.8 269.889 109C269.756 108.067 269.556 107.4 269.289 107C267.956 103.533 267.089 100.133 266.689 96.8C266.422 93.3333 266.289 89.6667 266.289 85.8V82.6ZM349.689 167.4C349.689 164.467 349.822 161.6 350.089 158.8C350.356 156 350.689 153.133 351.089 150.2C351.222 148.067 351.356 146.267 351.489 144.8C351.622 143.2 351.756 141.667 351.889 140.2C352.156 138.6 352.422 137 352.689 135.4C352.956 133.667 353.356 131.667 353.889 129.4C354.022 128.867 354.222 128.133 354.489 127.2C354.756 126.267 354.956 125.333 355.089 124.4C355.356 123.467 355.556 122.667 355.689 122C355.822 121.2 355.889 120.733 355.889 120.6C355.889 120.333 356.089 119.533 356.489 118.2C357.022 116.867 357.556 115.867 358.089 115.2L358.689 113.8V113C358.156 113.4 357.156 113.933 355.689 114.6C354.356 115.267 352.889 116 351.289 116.8C349.689 117.467 348.222 118.2 346.889 119C345.556 119.667 344.622 120.2 344.089 120.6C343.956 120.733 343.489 121.067 342.689 121.6C341.889 122 341.022 122.467 340.089 123C339.156 123.533 338.222 124.067 337.289 124.6C336.489 125 336.022 125.267 335.889 125.4C335.622 125.4 334.889 125.733 333.689 126.4C332.622 127.067 331.822 127.4 331.289 127.4C328.756 128.467 326.289 129.8 323.889 131.4C321.489 133 318.889 133.8 316.089 133.8C315.289 133.8 314.222 133.6 312.889 133.2C311.556 132.667 310.222 132.067 308.889 131.4C307.556 130.6 306.422 129.733 305.489 128.8C304.556 127.733 304.089 126.6 304.089 125.4C304.089 125.133 304.089 124.933 304.089 124.8C304.222 124.667 304.489 124.333 304.889 123.8C305.156 123.533 305.556 123.133 306.089 122.6C306.756 122.067 307.422 121.533 308.089 121L310.489 119L312.889 118.4C315.556 117.333 318.089 116.067 320.489 114.6C323.022 113 325.489 111.333 327.889 109.6C332.289 107.067 336.489 104.733 340.489 102.6C344.489 100.467 348.956 98.4667 353.889 96.6L357.289 94.8L357.689 91.4C357.689 91 357.689 90.1333 357.689 88.8C357.822 87.4667 357.822 86 357.689 84.4C357.689 82.8 357.622 81.3333 357.489 80C357.356 78.5333 357.222 77.6 357.089 77.2L358.089 67.4C358.356 63.5333 358.756 59.8 359.289 56.2C359.822 52.6 360.822 48.8667 362.289 45C362.422 44.4667 362.756 43.3333 363.289 41.6C363.822 39.7333 364.422 37.8 365.089 35.8C365.756 33.6667 366.356 31.7333 366.889 30C367.556 28.1333 368.022 27 368.289 26.6C368.289 26.3333 368.489 25.4 368.889 23.8C369.289 22.2 369.489 21.2667 369.489 21C369.889 19.9333 370.289 19 370.689 18.2C371.222 17.2667 371.489 16.2667 371.489 15.2C371.756 13.7333 371.756 12.4667 371.489 11.4C371.222 10.3333 371.156 9.26666 371.289 8.2L371.489 7.79999L374.889 4.59999H375.889C376.822 4.59999 377.689 4.8 378.489 5.2C379.289 5.59999 380.089 5.93333 380.889 6.2C381.156 6.59999 381.489 7.06666 381.889 7.59999C382.689 8.66666 383.222 9.26666 383.489 9.39999C383.622 10.0667 384.156 10.8667 385.089 11.8C386.022 12.7333 386.356 13.6 386.089 14.4L385.689 15.2L385.289 17L384.289 26.2C384.022 29 383.222 32.0667 381.889 35.4C380.556 38.7333 379.556 41.9333 378.889 45C377.956 45.5333 377.489 46.2667 377.489 47.2C377.622 48.1333 377.556 49.1333 377.289 50.2C379.022 50.4667 380.422 50.2667 381.489 49.6C382.556 48.8 383.822 48.3333 385.289 48.2C387.956 47.6667 390.822 47 393.889 46.2C397.089 45.4 400.089 45.0667 402.889 45.2C403.556 45.2 404.622 45.2667 406.089 45.4C407.556 45.5333 409.022 45.7333 410.489 46C411.956 46.2667 413.222 46.7333 414.289 47.4C415.356 47.9333 415.822 48.7333 415.689 49.8C415.556 50.4667 415.422 51.1333 415.289 51.8C415.289 52.4667 415.156 53.3333 414.889 54.4H414.289C413.089 54.1333 412.356 53.8667 412.089 53.6C411.822 53.2 411.422 53 410.889 53C409.822 53 408.356 53.7333 406.489 55.2C404.622 56.6667 403.156 57.6 402.089 58C400.222 58.9333 398.089 59.8 395.689 60.6C393.289 61.2667 390.756 61.8667 388.089 62.4C385.556 62.9333 382.956 63.3333 380.289 63.6C377.756 63.8667 375.422 63.9333 373.289 63.8C372.222 66.6 371.622 69.4667 371.489 72.4C371.356 75.2 371.222 78 371.089 80.8C371.089 80.9333 370.956 81.5333 370.689 82.6C370.422 83.5333 370.089 84.6 369.689 85.8C369.422 87 369.156 88.1333 368.889 89.2C368.622 90.1333 368.489 90.6667 368.489 90.8L368.289 92.2C368.556 92.2 368.956 92.2 369.489 92.2C370.156 92.0667 370.822 92 371.489 92C372.289 92 372.956 92 373.489 92C374.156 91.8667 374.556 91.8 374.689 91.8C375.489 91.9333 376.556 92.2 377.889 92.6C379.356 92.8667 380.689 93.2667 381.889 93.8C383.222 94.2 384.356 94.8 385.289 95.6C386.222 96.4 386.689 97.4 386.689 98.6C386.689 99.8 386.422 100.733 385.889 101.4C385.356 102.067 384.689 102.667 383.889 103.2C383.222 103.6 382.489 104.067 381.689 104.6C381.022 105 380.489 105.533 380.089 106.2L379.089 108L376.889 110.4L376.089 112.4L375.689 113.8C374.089 116.067 372.622 118.333 371.289 120.6C370.089 122.867 368.956 125.333 367.889 128C367.356 130.133 366.756 132.2 366.089 134.2C365.556 136.2 365.089 138.2 364.689 140.2C364.022 143.933 363.422 147.267 362.889 150.2C362.356 153 361.622 156.067 360.689 159.4C360.689 159.667 360.422 160.333 359.889 161.4C359.489 162.6 359.289 163.4 359.289 163.8C359.289 163.933 359.222 164.333 359.089 165C358.956 165.667 358.756 166.4 358.489 167.2C358.356 168 358.222 168.733 358.089 169.4C357.956 170.2 357.889 170.667 357.889 170.8C357.889 171.067 357.622 171.667 357.089 172.6C356.689 173.533 356.489 174.133 356.489 174.4C356.356 174.8 356.222 175.333 356.089 176C355.956 176.667 355.756 177.333 355.489 178C355.356 178.667 355.089 179.2 354.689 179.6C354.289 180.133 353.689 180.4 352.889 180.4C351.956 180.4 351.222 179.8 350.689 178.6C350.289 177.533 350.022 176.2 349.889 174.6C349.756 173.133 349.689 171.667 349.689 170.2C349.689 168.867 349.689 167.933 349.689 167.4ZM310.289 64C310.289 65.2 309.222 66.4 307.089 67.6C305.089 68.8 302.756 69.8667 300.089 70.8C297.556 71.7333 295.089 72.6 292.689 73.4C290.289 74.2 288.689 74.8 287.889 75.2L285.489 77C285.222 77.2667 284.556 77.4 283.489 77.4C282.556 77.2667 282.022 77.5333 281.889 78.2C280.822 79.6667 280.156 81.7333 279.889 84.4C279.756 87.0667 279.689 89.1333 279.689 90.6V98.6C281.689 98.6 283.556 98.0667 285.289 97C287.022 95.8 288.689 94.7333 290.289 93.8C290.689 93.6667 291.489 93.3333 292.689 92.8C294.022 92.2667 295.422 91.6667 296.889 91C298.356 90.2 299.689 89.5333 300.889 89C302.222 88.3333 303.089 87.8667 303.489 87.6C304.289 87.3333 305.089 86.8 305.889 86C306.822 85.2 307.422 84.2667 307.689 83.2C307.956 82.1333 308.089 81.2 308.089 80.4C308.222 79.4667 308.289 78.5333 308.289 77.6C308.289 77.3333 308.422 76.7333 308.689 75.8C308.956 74.8667 309.089 74.2667 309.089 74C309.356 72.5333 309.689 70.9333 310.089 69.2C310.489 67.3333 310.689 65.6 310.689 64H310.289ZM446.831 183C446.165 182.733 445.765 182.267 445.631 181.6C445.631 181.067 445.631 180.533 445.631 180V179.4C445.631 178.467 445.831 177 446.231 175C446.631 173 446.831 171.8 446.831 171.4L447.431 170.6C447.698 169.933 448.298 169 449.231 167.8C450.298 166.6 450.831 165.867 450.831 165.6L455.231 161.8L458.231 160.2C458.365 160.067 458.898 159.667 459.831 159C460.765 158.467 461.831 157.733 463.031 156.8C464.365 156 465.631 155.133 466.831 154.2C468.031 153.267 468.965 152.467 469.631 151.8C470.431 150.867 471.298 150.067 472.231 149.4C473.298 148.733 474.231 147.8 475.031 146.6C473.831 145.933 472.298 145.667 470.431 145.8C468.565 145.933 466.965 146 465.631 146H460.631L458.231 146.6H457.631C456.431 146.6 455.365 146.2 454.431 145.4C453.631 144.467 452.965 143.467 452.431 142.4V139.4C452.431 137.267 452.698 135.133 453.231 133C453.898 130.733 455.031 128.667 456.631 126.8L462.231 120.8C462.631 120.533 463.165 120.2 463.831 119.8C464.498 119.4 464.965 119.2 465.231 119.2L479.831 104.6L480.431 102.4C478.565 102.4 476.431 103.133 474.031 104.6C471.631 106.067 469.698 107.267 468.231 108.2C467.965 108.333 467.498 108.533 466.831 108.8C466.298 109.067 465.698 109.4 465.031 109.8C464.498 110.2 463.898 110.6 463.231 111C462.698 111.267 462.365 111.467 462.231 111.6C460.765 112.667 459.298 113.733 457.831 114.8C456.498 115.867 455.031 116.8 453.431 117.6C452.898 117.6 452.231 117.933 451.431 118.6C450.765 119.267 450.231 119.6 449.831 119.6C449.565 119.6 449.031 119.933 448.231 120.6C447.565 121.133 447.098 121.4 446.831 121.4C446.431 121.4 445.565 121.8 444.231 122.6C443.031 123.267 442.298 123.6 442.031 123.6C440.698 124.267 439.298 125.067 437.831 126C436.498 126.8 435.098 127.2 433.631 127.2H433.031C431.698 126.133 430.498 124.6 429.431 122.6C428.365 120.467 427.365 118.667 426.431 117.2V116C426.431 114.267 427.031 113 428.231 112.2L429.631 111.4H435.631C436.031 111.4 436.431 111.333 436.831 111.2C437.765 110.933 438.298 110.733 438.431 110.6C439.898 109.533 441.365 108.733 442.831 108.2C444.431 107.667 446.165 107 448.031 106.2L449.231 105.8C451.631 104.333 454.231 103 457.031 101.8C459.965 100.467 462.298 98.7333 464.031 96.6C464.165 96.2 464.365 95.6 464.631 94.8C464.898 93.8667 465.165 92.9333 465.431 92C465.831 91.0667 466.098 90.2 466.231 89.4C466.498 88.4667 466.631 87.8 466.631 87.4V83.6C465.831 83.6 464.831 83.8667 463.631 84.4C462.565 84.9333 461.365 85.5333 460.031 86.2C458.831 86.8667 457.631 87.5333 456.431 88.2C455.231 88.8667 454.231 89.4 453.431 89.8C451.031 91 448.431 92.1333 445.631 93.2C442.831 94.1333 440.298 95.2 438.031 96.4C436.831 97.0667 435.498 97.8667 434.031 98.8C432.698 99.6 431.298 100 429.831 100C429.698 100 429.298 99.8667 428.631 99.6C428.098 99.3333 427.831 99.0667 427.831 98.8L418.631 91.2C417.965 90.9333 417.698 90.7333 417.831 90.6C418.098 90.3333 418.231 89.6667 418.231 88.6C418.231 88.0667 418.431 87.4667 418.831 86.8C419.365 86 420.098 85.4667 421.031 85.2C421.431 85.2 422.365 85.1333 423.831 85C425.431 84.7333 426.298 84.6 426.431 84.6C428.965 84.2 431.498 83.6 434.031 82.8C436.698 81.8667 439.298 80.8667 441.831 79.8C444.365 78.6 446.898 77.4667 449.431 76.4C451.965 75.2 454.365 74.1333 456.631 73.2C464.231 69.4667 472.298 66.6667 480.831 64.8C489.365 62.9333 497.965 62 506.631 62H510.831C511.098 62 511.631 62.0667 512.431 62.2C513.231 62.2 514.031 62.2 514.831 62.2C515.765 62.2 516.631 62.2667 517.431 62.4C518.231 62.4 518.765 62.4 519.031 62.4C519.965 62.5333 521.231 62.7333 522.831 63C524.565 63.2667 526.231 63.7333 527.831 64.4C529.565 64.9333 531.031 65.6667 532.231 66.6C533.431 67.5333 534.031 68.6667 534.031 70C534.031 70.6667 533.431 71.1333 532.231 71.4C531.165 71.6667 530.498 71.9333 530.231 72.2V74.2L527.431 75C525.165 76.0667 522.898 76.6667 520.631 76.8L518.631 77.8C516.765 77.8 515.031 77.4 513.431 76.6C511.831 75.8 510.165 75.4 508.431 75.4H501.431C501.031 75.4 500.298 75.4667 499.231 75.6C498.298 75.6 497.231 75.6667 496.031 75.8C494.831 75.9333 493.631 76.0667 492.431 76.2C491.365 76.3333 490.498 76.4667 489.831 76.6C488.631 76.6 487.498 76.8 486.431 77.2C485.498 77.6 484.431 77.8 483.231 77.8C483.498 78.7333 483.765 79.3333 484.031 79.6C484.431 79.8667 484.698 80.3333 484.831 81L484.631 81.8C484.631 82.0667 484.565 82.5333 484.431 83.2C484.431 83.7333 484.365 84.3333 484.231 85C484.098 85.6667 483.965 86.3333 483.831 87C483.831 87.5333 483.831 87.8667 483.831 88C483.831 88.2667 483.498 88.8667 482.831 89.8C482.165 90.6 481.698 91.1333 481.431 91.4H482.031C483.498 91.4 484.831 91.0667 486.031 90.4C487.365 89.6 488.631 89.0667 489.831 88.8C491.165 88.5333 492.165 88.4 492.831 88.4C493.498 88.4 494.365 88.4 495.431 88.4C497.431 88.4 499.365 88.7333 501.231 89.4C503.098 90.0667 504.498 91.5333 505.431 93.8C505.431 93.9333 505.298 94.3333 505.031 95C504.898 95.6667 504.698 96.4 504.431 97.2C504.298 97.8667 504.098 98.5333 503.831 99.2C503.698 99.8667 503.631 100.267 503.631 100.4L502.431 102.2C501.765 102.6 500.965 103.333 500.031 104.4C499.098 105.333 498.165 106.333 497.231 107.4C496.298 108.333 495.431 109.2 494.631 110C493.831 110.667 493.365 111.067 493.231 111.2C490.965 113.467 488.498 115.667 485.831 117.8C483.298 119.8 481.298 122.333 479.831 125.4V125.8C479.831 126.333 480.298 126.8 481.231 127.2C482.298 127.6 483.498 127.933 484.831 128.2C486.165 128.333 487.431 128.467 488.631 128.6C489.831 128.733 490.631 128.8 491.031 128.8C492.498 128.8 493.965 128.667 495.431 128.4C497.031 128.133 498.698 128 500.431 128H504.831C507.498 128.533 509.831 129.933 511.831 132.2C513.965 134.333 515.031 136.733 515.031 139.4V141.4C514.765 141.8 514.431 142.2 514.031 142.6C513.365 143.267 512.898 143.867 512.631 144.4C511.698 145.2 510.698 145.733 509.631 146C508.565 146.133 507.565 146.533 506.631 147.2C502.231 149.467 497.965 151.667 493.831 153.8C489.831 155.8 485.898 158.2 482.031 161C480.965 161.8 479.765 162.733 478.431 163.8C477.098 165 475.965 166.2 475.031 167.4H476.831C480.031 167.4 483.231 167.333 486.431 167.2C489.765 167.067 493.098 166.533 496.431 165.6C496.965 165.467 497.898 165.2 499.231 164.8C500.698 164.533 502.165 164.2 503.631 163.8C505.098 163.4 506.498 163 507.831 162.6C509.165 162.333 510.165 162.067 510.831 161.8C511.365 161.667 511.898 161.533 512.431 161.4C513.098 161.4 513.765 161.267 514.431 161C517.898 159.533 521.231 157.8 524.431 155.8C527.765 153.667 529.831 151 530.631 147.8L532.031 149.6L533.631 149.4C533.631 150.6 533.365 151.6 532.831 152.4C532.298 153.2 531.965 154.067 531.831 155C531.831 155.667 531.831 156.133 531.831 156.4C531.965 156.8 532.031 157.333 532.031 158V159L531.831 160.2L531.031 162.6C530.765 163.133 530.031 163.8 528.831 164.6C527.765 165.4 526.965 165.933 526.431 166.2C525.765 166.467 524.898 166.867 523.831 167.4C522.765 168.067 521.698 168.667 520.631 169.2C519.565 169.867 518.565 170.467 517.631 171C516.698 171.667 516.165 172.067 516.031 172.2C513.365 173.667 510.565 174.8 507.631 175.6C504.698 176.533 501.698 177.267 498.631 177.8C495.698 178.333 492.631 178.8 489.431 179.2C486.365 179.6 483.298 180 480.231 180.4C478.498 180.667 476.631 181.067 474.631 181.6C472.631 182.267 470.698 182.733 468.831 183C466.431 183.267 464.031 183.533 461.631 183.8C459.231 184.067 456.698 184.2 454.031 184.2C453.231 184.2 451.965 184 450.231 183.6C448.631 183.2 447.498 183 446.831 183ZM438.231 43.2C438.365 42.6667 438.498 42.1333 438.631 41.6C438.898 40.5333 439.031 39.6667 439.031 39C439.031 38.7333 439.098 38.2667 439.231 37.6C439.365 36.8 439.431 36.2 439.431 35.8C439.431 35.2667 439.631 34.4667 440.031 33.4C440.565 32.2 440.831 31.4667 440.831 31.2C441.098 30.4 441.565 29.0667 442.231 27.2C442.898 25.2 443.631 23.2 444.431 21.2C445.231 19.0667 446.031 17.2 446.831 15.6C447.765 14 448.565 13.2 449.231 13.2H449.631C450.831 13.2 451.765 13.9333 452.431 15.4C452.565 15.5333 452.698 15.6 452.831 15.6C452.965 15.7333 453.231 15.8 453.631 15.8C455.765 15.1333 457.765 14.2667 459.631 13.2C461.631 12.1333 463.498 11.2 465.231 10.4C469.365 8.53332 473.698 6.93333 478.231 5.59999C482.898 4.13333 487.365 2.99999 491.631 2.19999C494.031 1.13333 496.365 0.599998 498.631 0.599998C499.565 0.599998 500.831 0.799995 502.431 1.19999C504.165 1.59999 505.831 2.13333 507.431 2.79999C509.165 3.46666 510.698 4.26666 512.031 5.2C513.498 6 514.431 6.79999 514.831 7.59999C514.831 8.13333 514.898 8.66666 515.031 9.19999C515.298 10.2667 515.431 11.0667 515.431 11.6V12.6C515.431 12.8667 515.365 13.1333 515.231 13.4C515.098 13.6667 514.965 13.9333 514.831 14.2C514.565 14.6 514.365 15 514.231 15.4C513.965 15.5333 513.165 16.0667 511.831 17C510.498 17.8 509.698 18.3333 509.431 18.6C506.098 21.4 503.165 24.4667 500.631 27.8C498.231 31 495.431 34.1333 492.231 37.2L491.031 38.6C493.698 37.9333 496.031 37.5333 498.031 37.4C500.165 37.2667 502.298 37.2 504.431 37.2H508.831C509.365 37.2 509.898 37.3333 510.431 37.6C510.965 37.8667 511.231 38.3333 511.231 39C511.231 40.2 510.831 41.3333 510.031 42.4C509.365 43.4667 508.631 44.3333 507.831 45C507.565 45.1333 507.298 45.2 507.031 45.2C506.765 45.3333 506.365 45.4 505.831 45.4H500.231C498.498 45.4 496.765 46 495.031 47.2C493.298 48.2667 491.698 49.1333 490.231 49.8C489.565 50.0667 488.365 50.6667 486.631 51.6C485.031 52.4 484.031 52.9333 483.631 53.2C483.498 53.4667 483.098 53.8 482.431 54.2C481.765 54.6 481.031 55 480.231 55.4C479.565 55.8 478.898 56.2 478.231 56.6C477.565 57 477.165 57.2667 477.031 57.4C475.565 58.3333 473.831 59.4 471.831 60.6C469.965 61.8 467.898 62.4 465.631 62.4C464.831 62.4 464.031 62.1333 463.231 61.6C462.565 60.9333 462.231 60.0667 462.231 59C462.231 57.9333 462.298 57.0667 462.431 56.4C462.565 55.6 462.498 54.4667 462.231 53C462.898 50.3333 463.898 48 465.231 46C466.565 43.8667 467.965 41.5333 469.431 39C469.565 38.8667 469.831 38.4667 470.231 37.8C470.765 37.1333 471.231 36.4667 471.631 35.8C472.031 35 472.431 34.2667 472.831 33.6C473.231 32.9333 473.498 32.5333 473.631 32.4C473.765 32.2667 474.031 31.8667 474.431 31.2C474.831 30.5333 475.298 29.8 475.831 29C476.365 28.2 476.831 27.5333 477.231 27C477.765 26.3333 478.165 25.9333 478.431 25.8C478.831 25.1333 479.365 24.4 480.031 23.6C480.831 22.6667 481.565 21.7333 482.231 20.8C482.898 19.8667 483.498 19 484.031 18.2C484.565 17.2667 484.831 16.4 484.831 15.6H484.431C480.965 16.9333 477.431 18.3333 473.831 19.8C470.231 21.2667 466.898 22.7333 463.831 24.2L462.031 25C461.765 25.5333 461.431 26 461.031 26.4C460.365 27.3333 459.831 27.8 459.431 27.8C459.165 27.8 458.698 27.8 458.031 27.8C457.365 27.6667 456.698 27.8 456.031 28.2C455.765 28.8667 455.498 29.8667 455.231 31.2C455.098 32.5333 455.031 33.5333 455.031 34.2C453.698 39.6667 452.165 45 450.431 50.2C448.698 55.2667 447.498 60.8 446.831 66.8C446.431 67.0667 445.431 67.2 443.831 67.2C442.365 67.2 441.498 67.2 441.231 67.2C440.965 67.2 440.631 67.1333 440.231 67C439.965 66.8667 439.831 66.4667 439.831 65.8C439.698 65.4 439.565 64.8 439.431 64C439.298 63.0667 439.098 62.1333 438.831 61.2C438.698 60.2667 438.565 59.4667 438.431 58.8C438.298 58 438.231 57.5333 438.231 57.4V43.2ZM629.887 145.8C635.487 146.067 641.021 145.867 646.487 145.2C651.954 144.4 657.554 143.867 663.287 143.6C663.554 143.333 663.887 143.067 664.287 142.8C664.687 142.533 665.021 142.4 665.287 142.4C666.087 142.533 666.487 143 666.487 143.8C666.487 144.6 667.354 145.267 669.087 145.8C669.487 145.933 670.087 146 670.887 146C671.687 146 672.087 146.467 672.087 147.4C671.821 149.133 671.287 150.333 670.487 151H671.087C671.354 151 671.554 150.933 671.687 150.8C671.821 150.533 672.021 150.4 672.287 150.4C672.021 151.6 672.154 152.333 672.687 152.6C673.354 152.733 673.687 153.2 673.687 154L673.287 154.6C673.287 154.733 673.154 155.067 672.887 155.6C672.754 155.867 672.687 156.067 672.687 156.2L671.687 156C669.154 158.133 665.821 159.533 661.687 160.2C657.687 160.867 653.954 161.333 650.487 161.6C650.487 161.6 650.087 161.6 649.287 161.6C648.487 161.733 647.621 161.8 646.687 161.8C645.754 161.8 644.821 161.8 643.887 161.8C643.087 161.933 642.621 162 642.487 162L641.087 162.2C639.087 162.6 636.887 162.667 634.487 162.4C632.221 162.267 629.954 162.267 627.687 162.4C627.421 162.4 626.821 162.4 625.887 162.4C625.087 162.4 624.221 162.4 623.287 162.4C622.487 162.4 621.687 162.4 620.887 162.4C620.087 162.4 619.621 162.4 619.487 162.4C619.354 162.4 618.954 162.4 618.287 162.4C617.621 162.4 616.887 162.4 616.087 162.4C615.287 162.4 614.554 162.333 613.887 162.2C613.221 162.2 612.821 162.2 612.687 162.2C611.887 162.2 611.154 162.333 610.487 162.6C609.821 163 609.087 163.4 608.287 163.8C607.621 164.2 606.887 164.533 606.087 164.8C605.287 165.067 604.421 165.133 603.487 165C602.421 164.867 601.421 164.467 600.487 163.8C599.687 163.133 599.021 162.533 598.487 162L595.487 158.2L594.887 156C594.887 154.8 594.687 154.067 594.287 153.8C593.887 153.4 593.687 152.667 593.687 151.6L594.487 145.4C595.021 144.733 595.487 144.067 595.887 143.4C596.421 142.6 596.954 142 597.487 141.6C597.754 141.333 598.287 140.867 599.087 140.2C599.887 139.533 600.421 139.067 600.687 138.8C601.087 138.4 601.687 138 602.487 137.6C603.287 137.2 603.954 136.8 604.487 136.4C605.021 136.133 605.621 135.667 606.287 135C607.087 134.333 607.821 133.667 608.487 133C609.287 132.333 610.087 131.6 610.887 130.8L611.087 130.4C611.487 130.133 611.887 129.8 612.287 129.4C612.554 129.133 612.821 128.867 613.087 128.6C613.487 128.2 613.821 127.867 614.087 127.6L630.087 116.2L631.487 116C631.754 116 632.154 115.6 632.687 114.8C633.354 113.867 633.954 113.4 634.487 113.4C635.021 113.133 635.021 112.6 634.487 111.8C634.087 111 633.954 110.267 634.087 109.6C634.354 108.533 634.421 107.333 634.287 106C634.287 104.533 634.021 103.267 633.487 102.2C633.221 100.867 633.287 98.8 633.687 96C634.087 93.2 635.554 88.8667 638.087 83C638.754 81.6667 639.221 80.3333 639.487 79C639.887 77.6667 640.354 76.4 640.887 75.2C640.887 74.8 641.154 74.3333 641.687 73.8C641.954 73.5333 642.154 73.2667 642.287 73L642.487 72.6C642.887 71.5333 643.287 70.4 643.687 69.2C644.087 68 644.621 66.8 645.287 65.6C645.287 65.3333 645.487 64.8 645.887 64C646.287 63.0667 646.687 62.1333 647.087 61.2C647.487 60.2667 647.887 59.4 648.287 58.6C648.687 57.6667 648.954 57.0667 649.087 56.8C649.087 56.6667 649.154 56.2667 649.287 55.6C649.554 54.8 649.821 54 650.087 53.2C650.354 52.2667 650.554 51.4667 650.687 50.8C650.954 50 651.087 49.5333 651.087 49.4C651.221 49.1333 651.621 48.2667 652.287 46.8C653.087 45.3333 653.487 44.3333 653.487 43.8L655.687 37C654.887 37.2667 654.354 37.8 654.087 38.6C653.954 39.2667 653.754 39.8667 653.487 40.4C653.487 41.2 653.154 41.8667 652.487 42.4C651.821 42.9333 651.154 43.4667 650.487 44L643.287 56.2C642.221 57.5333 641.221 58.8667 640.287 60.2C639.487 61.4 638.754 62.6 638.087 63.8C637.954 64.0667 637.687 64.5333 637.287 65.2C637.021 65.8667 636.687 66.6667 636.287 67.6C636.021 68.4 635.687 69.2 635.287 70C635.021 70.6667 634.887 71.1333 634.887 71.4C634.754 71.8 634.687 72.4 634.687 73.2C634.821 73.8667 634.821 74.3333 634.687 74.6L633.487 76.8C633.221 77.2 632.954 77.6667 632.687 78.2C632.554 78.7333 632.354 79.2667 632.087 79.8C631.821 80.3333 631.621 80.9333 631.487 81.6L631.087 84.4C630.687 85.3333 630.354 86.2 630.087 87C629.954 87.8 629.887 88.8 629.887 90C629.887 90.2667 630.087 90.7333 630.487 91.4C630.887 91.9333 631.021 92.4667 630.887 93V93.8C629.687 95.4 628.621 97.4 627.687 99.8C626.754 102.067 625.421 103.733 623.687 104.8C623.021 105.067 622.487 105.467 622.087 106C621.821 106.4 621.354 106.733 620.687 107H618.887C618.621 107 618.087 107.2 617.287 107.6C616.487 107.867 615.954 108.133 615.687 108.4L614.287 109.6H612.087C611.154 109.867 610.221 110.2 609.287 110.6C608.354 111 607.354 111.267 606.287 111.4C603.887 112.067 601.487 112.667 599.087 113.2C596.687 113.733 594.287 114.333 591.887 115L583.487 117L582.487 117.4C582.221 117.667 581.487 118 580.287 118.4C579.221 118.8 578.021 119.2 576.687 119.6C575.354 119.867 574.154 120.2 573.087 120.6C572.154 121 571.621 121.333 571.487 121.6C570.954 121.467 570.287 121.6 569.487 122C568.821 122.4 568.354 122.733 568.087 123C567.554 123.267 566.887 123.4 566.087 123.4C565.421 123.267 564.754 123.467 564.087 124L562.487 125.4L560.887 125.6L559.087 127.2L557.887 127.6C556.687 128 555.287 128.6 553.687 129.4C552.087 130.2 550.754 130.6 549.687 130.6L543.687 135.2H543.287C540.087 134.8 538.087 133.933 537.287 132.6C535.821 130.867 535.154 128.667 535.287 126C535.554 123.333 535.821 120.8 536.087 118.4L535.687 117.4V116.8C535.954 116.4 536.154 115.933 536.287 115.4C536.554 114.733 536.887 114.2 537.287 113.8V113.4L536.687 112.2C538.154 110.733 539.554 109.667 540.887 109C542.354 108.2 543.954 107.333 545.687 106.4L546.687 105.4C546.821 105.267 547.021 104.933 547.287 104.4C547.687 103.867 548.087 103.333 548.487 102.8C549.021 102.133 549.487 101.6 549.887 101.2C550.287 100.667 550.621 100.333 550.887 100.2V99.2C550.887 98.9333 551.221 98.3333 551.887 97.4C552.687 96.4667 553.087 95.8667 553.087 95.6L556.087 89.2C556.221 88.5333 556.354 88.0667 556.487 87.8C556.754 87.5333 556.954 87.0667 557.087 86.4C557.087 86.1333 557.221 85.5333 557.487 84.6C557.754 83.6667 557.887 83.0667 557.887 82.8L558.487 82.2C559.687 79.5333 560.621 76.6667 561.287 73.6C561.954 70.5333 562.354 67.4667 562.487 64.4L564.887 62.2L567.087 62.4C569.087 62.6667 570.487 63.2 571.287 64C572.221 64.8 573.421 65.7333 574.887 66.8C575.154 66.8 575.821 67.2667 576.887 68.2C577.954 69 578.621 69.4667 578.887 69.6C579.954 70.4 580.487 71.7333 580.487 73.6C580.621 75.3333 580.687 76.9333 580.687 78.4V79.2L580.287 80C580.287 80 580.221 80.3333 580.087 81C579.954 81.6667 579.821 82.4 579.687 83.2C579.554 83.8667 579.421 84.5333 579.287 85.2C579.287 85.7333 579.287 86.0667 579.287 86.2C579.154 86.4667 578.954 86.9333 578.687 87.6C578.421 88.1333 578.287 88.6 578.287 89C578.287 89.1333 578.087 89.6667 577.687 90.6C577.287 91.5333 577.087 92.1333 577.087 92.4V94L576.687 99.2C579.354 99.2 581.954 98.6667 584.487 97.6C587.021 96.4 589.621 95.5333 592.287 95C592.554 95.1333 593.154 95 594.087 94.6C595.021 94.2 595.621 94.0667 595.887 94.2C596.154 94.2 596.621 94 597.287 93.6C598.087 93.2 598.621 93 598.887 93L599.887 93.2L601.087 92.4C602.687 91.7333 604.421 91.2 606.287 90.8C608.287 90.2667 610.087 89.5333 611.687 88.6C612.221 87.9333 612.754 87.3333 613.287 86.8C613.687 86.2667 614.087 85.8 614.487 85.4C614.887 85 615.221 84.7333 615.487 84.6C616.554 83.8 617.487 82.8 618.287 81.6C619.087 80.4 619.821 79.1333 620.487 77.8C621.287 76.4667 622.021 75.2 622.687 74C623.487 72.6667 624.287 71.4667 625.087 70.4C625.221 70.1333 625.687 69.4667 626.487 68.4C627.287 67.2 627.687 66.4667 627.687 66.2C629.554 63.5333 631.621 60.9333 633.887 58.4C636.154 55.7333 638.221 52.9333 640.087 50C640.354 49.8667 640.687 49.4667 641.087 48.8C641.621 48.1333 642.021 47.5333 642.287 47C643.487 45 644.954 43 646.687 41C648.421 38.8667 650.021 36.6667 651.487 34.4C651.754 34.4 652.154 33.8667 652.687 32.8L653.487 31.2L654.287 27C654.421 26.7333 654.621 26.3333 654.887 25.8C655.154 25.1333 655.287 24.6667 655.287 24.4C655.287 24.1333 655.421 24 655.687 24H656.287L658.687 23.6C660.421 23.2 662.221 22.6667 664.087 22C666.087 21.2 668.021 21.1333 669.887 21.8C673.087 22.2 675.554 24.0667 677.287 27.4V28C677.154 28.2667 677.087 28.8667 677.087 29.8C677.087 30.6 677.087 31.1333 677.087 31.4L676.687 32.6C674.821 36.4667 673.421 40.3333 672.487 44.2C671.687 47.9333 670.754 51.6667 669.687 55.4C669.554 55.8 669.221 56.8 668.687 58.4C668.287 59.8667 667.821 61.4667 667.287 63.2C666.754 64.8 666.221 66.3333 665.687 67.8C665.287 69.2667 665.087 70.1333 665.087 70.4L663.287 77.6L662.487 79L662.087 80.4C661.154 82.6667 660.421 84.8667 659.887 87C659.487 89.1333 658.954 91.1333 658.287 93L657.487 99.6C660.554 98.9333 663.287 98.6667 665.687 98.8C668.087 98.9333 670.354 99.2667 672.487 99.8C673.554 100.733 675.354 101.533 677.887 102.2L679.087 103.4L680.687 104C681.221 104.267 682.087 104.933 683.287 106C684.487 106.933 685.221 107.533 685.487 107.8L686.487 109C687.421 109.8 688.287 110.6 689.087 111.4C690.021 112.067 690.821 112.933 691.487 114L694.487 120.6C694.087 121.667 693.621 122.8 693.087 124C692.687 125.2 691.887 126.067 690.687 126.6C690.287 126.333 689.621 126.333 688.687 126.6C687.754 126.733 687.087 126.8 686.687 126.8L685.487 127.6H684.687C681.621 127.2 678.687 126.533 675.887 125.6C673.087 124.533 670.154 123.867 667.087 123.6C665.621 123.333 664.154 123.467 662.687 124C661.354 124.4 659.887 124.667 658.287 124.8C657.221 125.067 656.154 125.2 655.087 125.2C654.021 125.067 652.954 125.2 651.887 125.6L644.487 130.2L642.687 131.2C642.554 131.467 641.887 131.933 640.687 132.6C639.621 133.133 638.821 133.533 638.287 133.8C638.021 133.667 637.421 133.8 636.487 134.2C635.554 134.6 634.954 134.8 634.687 134.8L634.487 135.2C633.821 135.867 633.221 136.4 632.687 136.8C632.287 137.2 631.887 137.533 631.487 137.8L629.887 138L628.887 139C628.621 139.4 628.221 139.867 627.687 140.4C627.287 140.8 626.754 141.267 626.087 141.8C625.421 142.333 624.687 142.933 623.887 143.6C623.621 143.867 623.287 144.067 622.887 144.2C622.621 144.2 622.354 144.267 622.087 144.4C622.621 144.4 623.621 144.6 625.087 145C626.554 145.4 628.154 145.667 629.887 145.8ZM589.487 81.4C589.754 80.6 590.021 79.9333 590.287 79.4C590.554 78.7333 590.687 78 590.687 77.2C591.487 74.9333 592.021 72.8 592.287 70.8C592.687 68.8 593.287 66.6667 594.087 64.4C594.887 60.2667 595.954 56.2 597.287 52.2C598.754 48.2 600.021 44.2 601.087 40.2L601.887 35.6C601.887 34.9333 601.621 34.6 601.087 34.6L600.487 34.4C593.821 34.4 587.287 35.6 580.887 38C577.687 39.3333 574.421 40.7333 571.087 42.2C567.887 43.6667 564.554 45.2 561.087 46.8L560.887 46.6C560.221 46.6 559.754 46.6 559.487 46.6C559.354 46.4667 559.154 46.0667 558.887 45.4C558.754 45.2667 558.154 44.6667 557.087 43.6C556.021 42.5333 555.354 41.6667 555.087 41C554.287 40.4667 553.487 39.6 552.687 38.4C551.887 37.2 551.621 35.9333 551.887 34.6V34.4C554.021 33.7333 556.021 33.2667 557.887 33C559.754 32.7333 561.821 32.4 564.087 32C566.621 31.6 569.021 31.1333 571.287 30.6C573.554 30.0667 575.687 29.4667 577.687 28.8L593.687 26.6C595.287 26.2 596.687 25.9333 597.887 25.8C599.087 25.5333 600.221 25.4 601.287 25.4C602.487 25.4 603.687 25.5333 604.887 25.8C606.221 25.9333 607.821 26.2 609.687 26.6C612.621 27.2667 615.021 28.2 616.887 29.4C618.754 30.6 620.087 32.4667 620.887 35L620.087 39C619.687 40.4667 619.354 41.7333 619.087 42.8C618.954 43.7333 618.554 44.9333 617.887 46.4L616.887 47.6C616.221 48.5333 615.621 49.9333 615.087 51.8C614.687 53.6667 614.354 55.1333 614.087 56.2L613.287 57.8L612.687 59.4C612.687 59.6667 612.554 60.1333 612.287 60.8C612.021 61.3333 611.754 62 611.487 62.8C611.221 63.4667 610.887 64.2 610.487 65C610.221 65.6667 610.087 66.1333 610.087 66.4L608.887 68L608.687 69.4L608.087 69.6C606.487 70 605.421 70.7333 604.887 71.8C604.354 72.7333 603.554 73.6 602.487 74.4C602.487 74.8 602.021 75.2 601.087 75.6C600.154 76 599.621 76.3333 599.487 76.6C599.487 76.8667 599.087 77.4667 598.287 78.4C597.487 79.3333 597.087 79.8667 597.087 80C596.287 80.8 595.687 81.0667 595.287 80.8C595.021 80.5333 594.354 80.7333 593.287 81.4L590.687 82.6H590.487C590.221 82.6 589.954 82.4667 589.687 82.2C589.554 81.8 589.487 81.5333 589.487 81.4Z" fill="white"/>
</g>
<defs>
<filter id="filter0_d_52_522" x="0.760986" y="0.599976" width="697.727" height="199" filterUnits="userSpaceOnUse" color-interpolation-filters="sRGB">
<feFlood flood-opacity="0" result="BackgroundImageFix"/>
<feColorMatrix in="SourceAlpha" type="matrix" values="0 0 0 0 0 0 0 0 0 0 0 0 0 0 0 0 0 0 127 0" result="hardAlpha"/>
<feOffset dy="4"/>
<feGaussianBlur stdDeviation="2"/>
<feComposite in2="hardAlpha" operator="out"/>
<feColorMatrix type="matrix" values="0 0 0 0 0 0 0 0 0 0 0 0 0 0 0 0 0 0 0.25 0"/>
<feBlend mode="normal" in2="BackgroundImageFix" result="effect1_dropShadow_52_522"/>
<feBlend mode="normal" in="SourceGraphic" in2="effect1_dropShadow_52_522" result="shape"/>
</filter>
</defs>
</svg>
